<svg width="852" height="529" viewBox="0 0 852 529" fill="none" xmlns="http://www.w3.org/2000/svg">
<g clip-path="url(#paint0_diamond_883_562_clip_path)" data-figma-skip-parse="true"><g transform="matrix(0 0.450215 -0.726483 0 426 264.246)"><rect x="0" y="0" width="589.196" height="588.128" fill="url(#paint0_diamond_883_562)" opacity="1" shape-rendering="crispEdges"/><rect x="0" y="0" width="589.196" height="588.128" transform="scale(1 -1)" fill="url(#paint0_diamond_883_562)" opacity="1" shape-rendering="crispEdges"/><rect x="0" y="0" width="589.196" height="588.128" transform="scale(-1 1)" fill="url(#paint0_diamond_883_562)" opacity="1" shape-rendering="crispEdges"/><rect x="0" y="0" width="589.196" height="588.128" transform="scale(-1)" fill="url(#paint0_diamond_883_562)" opacity="1" shape-rendering="crispEdges"/></g></g><rect width="852" height="528" transform="translate(0 0.246094)" data-figma-gradient-fill="{&#34;type&#34;:&#34;GRADIENT_DIAMOND&#34;,&#34;stops&#34;:[{&#34;color&#34;:{&#34;r&#34;:0.89803922176361084,&#34;g&#34;:0.91372549533843994,&#34;b&#34;:0.94509804248809814,&#34;a&#34;:1.0},&#34;position&#34;:0.0},{&#34;color&#34;:{&#34;r&#34;:0.80784314870834351,&#34;g&#34;:0.81176471710205078,&#34;b&#34;:0.83137255907058716,&#34;a&#34;:1.0},&#34;position&#34;:0.52403843402862549},{&#34;color&#34;:{&#34;r&#34;:0.85882353782653809,&#34;g&#34;:0.78823530673980713,&#34;b&#34;:0.71764707565307617,&#34;a&#34;:1.0},&#34;position&#34;:1.0}],&#34;stopsVar&#34;:[{&#34;color&#34;:{&#34;r&#34;:0.89803922176361084,&#34;g&#34;:0.91372549533843994,&#34;b&#34;:0.94509804248809814,&#34;a&#34;:1.0},&#34;position&#34;:0.0},{&#34;color&#34;:{&#34;r&#34;:0.80784314870834351,&#34;g&#34;:0.81176471710205078,&#34;b&#34;:0.83137255907058716,&#34;a&#34;:1.0},&#34;position&#34;:0.52403843402862549},{&#34;color&#34;:{&#34;r&#34;:0.85882353782653809,&#34;g&#34;:0.78823530673980713,&#34;b&#34;:0.71764707565307617,&#34;a&#34;:1.0},&#34;position&#34;:1.0}],&#34;transform&#34;:{&#34;m00&#34;:8.8968485085615806e-14,&#34;m01&#34;:-1452.9655761718750,&#34;m02&#34;:1152.4827880859375,&#34;m10&#34;:900.42938232421875,&#34;m11&#34;:1.7237494526374519e-13,&#34;m12&#34;:-185.96858215332031},&#34;opacity&#34;:1.0,&#34;blendMode&#34;:&#34;NORMAL&#34;,&#34;visible&#34;:true}"/>
<line y1="-1.26482" x2="964.208" y2="-1.26482" transform="matrix(-0.852486 0.52275 -0.455586 -0.890192 833.98 12.8438)" stroke="white" stroke-width="2.52964"/>
<path d="M839.336 503.526L16.3072 18.8802" stroke="white" stroke-width="2.52964"/>
<path d="M840.404 412.027L14.7199 116.667" stroke="white" stroke-width="2.52964"/>
<path d="M836.366 310.094L10.6707 212.656" stroke="white" stroke-width="2.52964"/>
<path d="M834.995 217.058L7.96349 317.517" stroke="white" stroke-width="2.52964"/>
<path d="M843.07 115.186L10.6571 413.508" stroke="white" stroke-width="2.52964"/>
<rect x="25.2578" width="26.5612" height="24.0316" transform="rotate(90 25.2578 0)" fill="white"/>
<rect x="25.2578" width="26.5612" height="24.0316" transform="rotate(90 25.2578 0)" fill="white"/>
<rect x="25.2578" width="26.5612" height="24.0316" transform="rotate(90 25.2578 0)" fill="white"/>
<rect x="25.2578" width="26.5612" height="24.0316" transform="rotate(90 25.2578 0)" fill="white"/>
<rect x="25.2578" y="103.715" width="26.5612" height="24.0316" transform="rotate(90 25.2578 103.715)" fill="white"/>
<rect x="25.2578" y="103.715" width="26.5612" height="24.0316" transform="rotate(90 25.2578 103.715)" fill="white"/>
<rect x="25.2578" y="103.715" width="26.5612" height="24.0316" transform="rotate(90 25.2578 103.715)" fill="white"/>
<rect x="25.2578" y="103.715" width="26.5612" height="24.0316" transform="rotate(90 25.2578 103.715)" fill="white"/>
<rect x="25.2578" y="201.105" width="26.5612" height="24.0316" transform="rotate(90 25.2578 201.105)" fill="white"/>
<rect x="25.2578" y="201.105" width="26.5612" height="24.0316" transform="rotate(90 25.2578 201.105)" fill="white"/>
<rect x="25.2578" y="201.105" width="26.5612" height="24.0316" transform="rotate(90 25.2578 201.105)" fill="white"/>
<rect x="25.2578" y="201.105" width="26.5612" height="24.0316" transform="rotate(90 25.2578 201.105)" fill="white"/>
<rect x="25.2578" y="298.498" width="26.5612" height="24.0316" transform="rotate(90 25.2578 298.498)" fill="white"/>
<rect x="25.2578" y="298.498" width="26.5612" height="24.0316" transform="rotate(90 25.2578 298.498)" fill="white"/>
<rect x="25.2578" y="298.498" width="26.5612" height="24.0316" transform="rotate(90 25.2578 298.498)" fill="white"/>
<rect x="25.2578" y="298.498" width="26.5612" height="24.0316" transform="rotate(90 25.2578 298.498)" fill="white"/>
<rect x="25.2578" y="395.889" width="26.5612" height="24.0316" transform="rotate(90 25.2578 395.889)" fill="white"/>
<rect x="25.2578" y="395.889" width="26.5612" height="24.0316" transform="rotate(90 25.2578 395.889)" fill="white"/>
<rect x="25.2578" y="395.889" width="26.5612" height="24.0316" transform="rotate(90 25.2578 395.889)" fill="white"/>
<rect x="25.2578" y="395.889" width="26.5612" height="24.0316" transform="rotate(90 25.2578 395.889)" fill="white"/>
<rect x="25.2578" y="502.135" width="26.5612" height="24.0316" transform="rotate(90 25.2578 502.135)" fill="white"/>
<rect x="25.2578" y="502.135" width="26.5612" height="24.0316" transform="rotate(90 25.2578 502.135)" fill="white"/>
<rect x="25.2578" y="502.135" width="26.5612" height="24.0316" transform="rotate(90 25.2578 502.135)" fill="white"/>
<rect x="25.2578" y="502.135" width="26.5612" height="24.0316" transform="rotate(90 25.2578 502.135)" fill="white"/>
<rect x="851.184" width="26.5612" height="24.0316" transform="rotate(90 851.184 0)" fill="white"/>
<rect x="851.184" width="26.5612" height="24.0316" transform="rotate(90 851.184 0)" fill="white"/>
<rect x="851.184" width="26.5612" height="24.0316" transform="rotate(90 851.184 0)" fill="white"/>
<rect x="851.184" width="26.5612" height="24.0316" transform="rotate(90 851.184 0)" fill="white"/>
<rect x="851.184" y="103.715" width="26.5612" height="24.0316" transform="rotate(90 851.184 103.715)" fill="white"/>
<rect x="851.184" y="103.715" width="26.5612" height="24.0316" transform="rotate(90 851.184 103.715)" fill="white"/>
<rect x="851.184" y="103.715" width="26.5612" height="24.0316" transform="rotate(90 851.184 103.715)" fill="white"/>
<rect x="851.184" y="103.715" width="26.5612" height="24.0316" transform="rotate(90 851.184 103.715)" fill="white"/>
<rect x="851.184" y="201.105" width="26.5612" height="24.0316" transform="rotate(90 851.184 201.105)" fill="white"/>
<rect x="851.184" y="201.105" width="26.5612" height="24.0316" transform="rotate(90 851.184 201.105)" fill="white"/>
<rect x="851.184" y="201.105" width="26.5612" height="24.0316" transform="rotate(90 851.184 201.105)" fill="white"/>
<rect x="851.184" y="201.105" width="26.5612" height="24.0316" transform="rotate(90 851.184 201.105)" fill="white"/>
<rect x="851.184" y="298.498" width="26.5612" height="24.0316" transform="rotate(90 851.184 298.498)" fill="white"/>
<rect x="851.184" y="298.498" width="26.5612" height="24.0316" transform="rotate(90 851.184 298.498)" fill="white"/>
<rect x="851.184" y="298.498" width="26.5612" height="24.0316" transform="rotate(90 851.184 298.498)" fill="white"/>
<rect x="851.184" y="298.498" width="26.5612" height="24.0316" transform="rotate(90 851.184 298.498)" fill="white"/>
<rect x="851.184" y="395.889" width="26.5612" height="24.0316" transform="rotate(90 851.184 395.889)" fill="white"/>
<rect x="851.184" y="395.889" width="26.5612" height="24.0316" transform="rotate(90 851.184 395.889)" fill="white"/>
<rect x="851.184" y="395.889" width="26.5612" height="24.0316" transform="rotate(90 851.184 395.889)" fill="white"/>
<rect x="851.184" y="395.889" width="26.5612" height="24.0316" transform="rotate(90 851.184 395.889)" fill="white"/>
<rect x="851.184" y="502.135" width="26.5612" height="24.0316" transform="rotate(90 851.184 502.135)" fill="white"/>
<rect x="851.184" y="502.135" width="26.5612" height="24.0316" transform="rotate(90 851.184 502.135)" fill="white"/>
<rect x="851.184" y="502.135" width="26.5612" height="24.0316" transform="rotate(90 851.184 502.135)" fill="white"/>
<rect x="851.184" y="502.135" width="26.5612" height="24.0316" transform="rotate(90 851.184 502.135)" fill="white"/>
<ellipse cx="422.973" cy="260.954" rx="17.7075" ry="18.9723" transform="rotate(90 422.973 260.954)" fill="white"/>
<ellipse cx="691.185" cy="22.1344" rx="22.1344" ry="23.3992" transform="rotate(90 691.185 22.1344)" fill="white"/>
<ellipse cx="691.185" cy="503.398" rx="21.502" ry="23.3992" transform="rotate(90 691.185 503.398)" fill="white"/>
<ellipse cx="157.429" cy="22.1344" rx="22.1344" ry="23.3992" transform="rotate(90 157.429 22.1344)" fill="white"/>
<ellipse cx="157.429" cy="503.398" rx="21.502" ry="23.3992" transform="rotate(90 157.429 503.398)" fill="white"/>
<defs>
<clipPath id="paint0_diamond_883_562_clip_path"><rect width="852" height="528" transform="translate(0 0.246094)"/></clipPath><linearGradient id="paint0_diamond_883_562" x1="0" y1="0" x2="500" y2="500" gradientUnits="userSpaceOnUse">
<stop stop-color="#E5E9F1"/>
<stop offset="0.524038" stop-color="#CECFD4"/>
<stop offset="1" stop-color="#DBC9B7"/>
</linearGradient>
</defs>
</svg>
