<svg width="760" height="788" viewBox="0 0 760 788" fill="none" xmlns="http://www.w3.org/2000/svg">
<path d="M383.011 771.015C588.377 771.014 754.895 602.647 754.895 394.91C754.894 187.174 588.377 18.8069 383.011 18.8066C177.645 18.8066 11.1262 187.174 11.126 394.91C11.126 602.647 177.645 771.015 383.011 771.015Z" fill="#D9D9D9" fill-opacity="0.2" stroke="white" stroke-width="3.79446"/>
<path d="M454.463 698.767C620.371 698.767 754.902 562.747 754.902 394.914C754.902 227.081 620.371 91.0625 454.463 91.0625C288.555 91.0627 154.025 227.081 154.024 394.914C154.024 562.747 288.555 698.766 454.463 698.767Z" fill="#D9D9D9" fill-opacity="0.2" stroke="white" stroke-width="3.79446"/>
<path d="M518.928 633.577C649.227 633.577 754.892 526.75 754.892 394.928C754.891 263.106 649.227 156.279 518.928 156.279C388.629 156.279 282.964 263.105 282.964 394.928C282.964 526.75 388.628 633.577 518.928 633.577Z" fill="#D9D9D9" fill-opacity="0.2" stroke="white" stroke-width="3.79446"/>
<path d="M579.916 573.663C677.494 573.663 756.633 493.662 756.633 394.931C756.633 296.199 677.494 216.197 579.916 216.197C482.338 216.197 403.2 296.199 403.2 394.931C403.2 493.662 482.339 573.663 579.916 573.663Z" fill="#D9D9D9" fill-opacity="0.2" stroke="white" stroke-width="3.79446"/>
<path d="M386.566 18.076L639.999 285.46" stroke="white" stroke-width="3.79446"/>
<path d="M206.498 63.9601L576 276.961" stroke="white" stroke-width="3.79446"/>
<path d="M11.416 375.096L482.781 352.187" stroke="white" stroke-width="3.79446"/>
<path d="M25.7749 502.418L472.308 392.277" stroke="white" stroke-width="3.79446"/>
<path d="M98.541 636.354L484.085 449.556" stroke="white" stroke-width="3.79446"/>
<path d="M281.065 758.819L531.562 500.212" stroke="white" stroke-width="3.79446"/>
<path d="M186.999 715.461L506.5 481.461" stroke="white" stroke-width="3.79446"/>
<path d="M400.445 771.153L586.997 516.46" stroke="white" stroke-width="3.79446"/>
<path d="M522.838 744.718L636.997 507.962" stroke="white" stroke-width="3.79446"/>
<path d="M62.3714 208.999L514.569 304.601" stroke="white" stroke-width="3.79446"/>
<path d="M592.116 517.265C657.935 517.265 711.328 463.3 711.328 396.687C711.328 330.073 657.935 276.107 592.116 276.107C526.298 276.108 472.905 330.073 472.905 396.687C472.906 463.3 526.298 517.264 592.116 517.265Z" fill="#D9D9D9" fill-opacity="0.2" stroke="white" stroke-width="3.79446"/>
<path d="M636.548 472.321C677.825 472.321 711.324 438.475 711.324 396.68C711.324 354.884 677.825 321.038 636.548 321.038C595.271 321.038 561.773 354.884 561.772 396.68C561.772 438.475 595.27 472.321 636.548 472.321Z" fill="#D9D9D9" fill-opacity="0.2" stroke="white" stroke-width="3.79446"/>
</svg>
