<svg width="472" height="705" viewBox="0 0 472 705" fill="none" xmlns="http://www.w3.org/2000/svg">
<g clip-path="url(#clip0_897_4701)">
<path d="M41.4211 -593.797C41.4211 -593.797 385.689 -325.585 415.892 -86.5619C452.934 206.592 11.4462 275.488 72.3217 563.45C117.044 775.001 384.733 746.005 415.892 960.679C453.84 1222.13 37.1906 1253.52 72.3217 1515.49C101.533 1733.31 410.585 1702.31 415.892 1922.56C421.356 2149.38 70.7927 2125.73 72.3217 2352.62C73.838 2577.62 415.892 2551.11 415.892 2776.11C415.892 3001.12 41.4211 3277.82 41.4211 3277.82" stroke="white" stroke-width="6.32411"/>
<path d="M41.4211 -759.486C41.4211 -759.486 385.689 -491.275 415.892 -252.251C452.934 40.9022 11.4462 109.799 72.3217 397.76C117.044 609.312 384.733 580.315 415.892 794.989C453.84 1056.44 37.1906 1087.84 72.3217 1349.8C101.533 1567.62 410.585 1536.62 415.892 1756.87C421.356 1983.69 70.7927 1960.04 72.3217 2186.93C73.838 2411.93 415.892 2385.42 415.892 2610.42C415.892 2835.43 41.4211 3112.13 41.4211 3112.13" stroke="white" stroke-width="6.32411"/>
<path d="M41.4211 -925.178C41.4211 -925.178 385.689 -656.966 415.892 -417.943C452.934 -124.789 11.4462 -55.8925 72.3217 232.069C117.044 443.621 384.733 414.624 415.892 629.298C453.84 890.751 37.1906 922.144 72.3217 1184.11C101.533 1401.92 410.585 1370.93 415.892 1591.18C421.356 1818 70.7927 1794.35 72.3217 2021.24C73.838 2246.24 415.892 2219.73 415.892 2444.73C415.892 2669.74 41.4211 2946.44 41.4211 2946.44" stroke="white" stroke-width="6.32411"/>
<path d="M41.4211 -1092.14C41.4211 -1092.14 385.689 -823.925 415.892 -584.902C452.934 -291.748 11.4462 -222.852 72.3217 65.1097C117.044 276.662 384.733 247.665 415.892 462.339C453.84 723.792 37.1906 755.185 72.3217 1017.15C101.533 1234.97 410.585 1203.97 415.892 1424.22C421.356 1651.04 70.7927 1627.39 72.3217 1854.28C73.838 2079.28 415.892 2052.77 415.892 2277.77C415.892 2502.78 41.4211 2779.48 41.4211 2779.48" stroke="white" stroke-width="6.32411"/>
<path d="M41.4211 -1257.83C41.4211 -1257.83 385.689 -989.614 415.892 -750.591C452.934 -457.438 11.4462 -388.541 72.3217 -100.58C117.044 110.972 384.733 81.9753 415.892 296.649C453.84 558.103 37.1906 589.495 72.3217 851.457C101.533 1069.28 410.585 1038.28 415.892 1258.53C421.356 1485.35 70.7927 1461.7 72.3217 1688.59C73.838 1913.59 415.892 1887.08 415.892 2112.09C415.892 2337.09 41.4211 2613.79 41.4211 2613.79" stroke="white" stroke-width="6.32411"/>
<path d="M41.4211 -1423.52C41.4211 -1423.52 385.689 -1155.31 415.892 -916.285C452.934 -623.131 11.4462 -554.234 72.3217 -266.273C117.044 -54.7212 384.733 -83.7181 415.892 130.956C453.84 392.409 37.1906 423.802 72.3217 685.764C101.533 903.583 410.585 872.587 415.892 1092.84C421.356 1319.65 70.7927 1296.01 72.3217 1522.9C73.838 1747.9 415.892 1721.39 415.892 1946.39C415.892 2171.4 41.4211 2448.1 41.4211 2448.1" stroke="white" stroke-width="6.32411"/>
</g>
<defs>
<clipPath id="clip0_897_4701">
<rect width="705" height="472" fill="white" transform="matrix(0 1 -1 0 472 0)"/>
</clipPath>
</defs>
</svg>
