<svg width="423" height="466" viewBox="0 0 423 466" fill="none" xmlns="http://www.w3.org/2000/svg">
<path d="M411.722 177.735C405.658 168.31 402.274 147.877 403.026 135.444C404.789 106.401 389.355 77.5622 365.506 65.3246C360.907 62.9586 356.771 61.7677 353.12 60.7179C346.844 58.9081 344.251 58.156 341.877 53.2281C331.817 32.3333 320.724 24.9296 299.476 24.9296C296.366 24.9296 292.989 25.0706 289.135 25.3135C286.933 25.3135 283.502 21.6391 280.188 18.0979C274.382 11.885 266.626 3.58823 254.326 2.17801L250.369 1.78628C237.192 1.78628 224.445 5.7114 215.404 12.551C213.312 14.1336 210.82 15.4889 207.514 12.598C200.588 6.50269 189.471 0 179.075 0C175.486 0 172.274 0.775622 169.446 2.34254C157.248 4.75558 149.429 12.4961 143.655 18.2075C139.816 22.0073 136.502 25.29 133.634 25.29C129.952 25.0549 126.567 24.9139 123.457 24.9139C102.21 24.9139 91.116 32.3176 81.0486 53.2124C78.6826 58.1403 76.0893 58.8925 69.8138 60.7022C66.1708 61.7521 62.0341 62.9429 57.4274 65.309C33.579 77.5544 18.1527 106.386 19.9076 135.428C20.6598 147.87 17.2752 168.294 11.2113 177.719C-3.73709 200.98 -3.73709 233.454 11.2113 256.707C13.5225 260.296 16.907 264.472 20.8243 269.313C27.8127 277.947 39.5176 292.386 39.118 298.998C37.3396 328.268 55.2024 361.996 78.9333 374.179C83.2031 376.373 83.9239 378.59 85.5378 385.304C86.431 389.018 87.5435 393.632 89.9408 398.599C96.3887 412.004 106.503 415.843 113.883 418.664C121.216 421.445 124.248 422.604 125.361 430.643C128.416 452.783 141.531 466.008 160.444 466.008C177.288 466.008 195.512 454.624 206.864 437.004C208.251 434.858 210.554 434.615 211.471 434.615C212.387 434.615 214.691 434.85 216.077 437.004C227.43 454.624 245.653 466.008 262.497 466.008C277.093 466.008 293.977 456.716 297.58 430.643C298.693 422.604 301.725 421.445 309.058 418.664C316.438 415.851 326.553 412.004 333.008 398.599C335.398 393.632 336.51 389.01 337.404 385.304C339.025 378.598 339.738 376.373 344.008 374.179C367.731 361.996 385.594 328.276 383.823 298.998C383.424 292.386 395.129 277.939 402.117 269.313C406.034 264.472 409.419 260.296 411.73 256.707C426.671 233.47 426.671 200.988 411.722 177.735ZM180.132 89.9643C184.457 89.9643 187.967 93.4742 187.967 97.7989C187.967 102.124 184.457 105.633 180.132 105.633C175.808 105.633 172.298 102.124 172.298 97.7989C172.298 93.4664 175.808 89.9643 180.132 89.9643ZM54.7793 246.656C59.104 246.656 62.6139 250.166 62.6139 254.49C62.6139 258.815 59.104 262.325 54.7793 262.325C50.4546 262.325 46.9447 258.815 46.9447 254.49C46.9447 250.158 50.4546 246.656 54.7793 246.656ZM39.1102 215.317C34.7855 215.317 31.2756 211.808 31.2756 207.483C31.2756 203.158 34.7855 199.648 39.1102 199.648C43.4349 199.648 46.9447 203.158 46.9447 207.483C46.9447 211.808 43.4427 215.317 39.1102 215.317ZM148.794 230.987C144.469 230.987 140.96 227.477 140.96 223.152C140.96 218.827 144.469 215.317 148.794 215.317C153.119 215.317 156.629 218.827 156.629 223.152C156.629 227.477 153.127 230.987 148.794 230.987ZM156.629 285.829C156.629 290.153 153.119 293.663 148.794 293.663C144.469 293.663 140.96 290.153 140.96 285.829C140.96 281.504 144.469 277.994 148.794 277.994C153.119 277.994 156.629 281.496 156.629 285.829ZM86.1176 262.325C81.7929 262.325 78.283 258.815 78.283 254.49C78.283 250.166 81.7929 246.656 86.1176 246.656C90.4423 246.656 93.9521 250.166 93.9521 254.49C93.9521 258.815 90.4501 262.325 86.1176 262.325ZM93.9521 285.829C93.9521 290.153 90.4423 293.663 86.1176 293.663C81.7929 293.663 78.283 290.153 78.283 285.829C78.283 281.504 81.7929 277.994 86.1176 277.994C90.4423 277.994 93.9521 281.496 93.9521 285.829ZM70.4484 183.979C66.1238 183.979 62.6139 180.469 62.6139 176.145C62.6139 171.82 66.1238 168.31 70.4484 168.31C74.7731 168.31 78.283 171.82 78.283 176.145C78.283 180.469 74.781 183.979 70.4484 183.979ZM86.1176 230.987C81.7929 230.987 78.283 227.477 78.283 223.152C78.283 218.827 81.7929 215.317 86.1176 215.317C90.4423 215.317 93.9521 218.827 93.9521 223.152C93.9521 227.477 90.4501 230.987 86.1176 230.987ZM86.1176 199.648C81.7929 199.648 78.283 196.138 78.283 191.814C78.283 187.489 81.7929 183.979 86.1176 183.979C90.4423 183.979 93.9521 187.489 93.9521 191.814C93.9521 196.138 90.4501 199.648 86.1176 199.648ZM101.787 199.648C106.111 199.648 109.621 203.158 109.621 207.483C109.621 211.808 106.111 215.317 101.787 215.317C97.462 215.317 93.9521 211.808 93.9521 207.483C93.9521 203.15 97.462 199.648 101.787 199.648ZM117.456 262.325C113.131 262.325 109.621 258.815 109.621 254.49C109.621 250.166 113.131 246.656 117.456 246.656C121.781 246.656 125.29 250.166 125.29 254.49C125.29 258.815 121.788 262.325 117.456 262.325ZM125.29 285.829C125.29 290.153 121.781 293.663 117.456 293.663C113.131 293.663 109.621 290.153 109.621 285.829C109.621 281.504 113.131 277.994 117.456 277.994C121.781 277.994 125.29 281.496 125.29 285.829ZM117.456 168.31C113.131 168.31 109.621 164.8 109.621 160.475C109.621 156.151 113.131 152.641 117.456 152.641C121.781 152.641 125.29 156.151 125.29 160.475C125.29 164.8 121.788 168.31 117.456 168.31ZM133.125 199.648C137.45 199.648 140.96 203.158 140.96 207.483C140.96 211.808 137.45 215.317 133.125 215.317C128.8 215.317 125.29 211.808 125.29 207.483C125.29 203.15 128.8 199.648 133.125 199.648ZM140.96 160.475C140.96 156.151 144.469 152.641 148.794 152.641C153.119 152.641 156.629 156.151 156.629 160.475C156.629 164.8 153.119 168.31 148.794 168.31C144.469 168.31 140.96 164.8 140.96 160.475ZM164.463 230.987C168.788 230.987 172.298 234.496 172.298 238.821C172.298 243.146 168.788 246.656 164.463 246.656C160.139 246.656 156.629 243.146 156.629 238.821C156.629 234.489 160.139 230.987 164.463 230.987ZM164.463 215.317C160.139 215.317 156.629 211.808 156.629 207.483C156.629 203.158 160.139 199.648 164.463 199.648C168.788 199.648 172.298 203.158 172.298 207.483C172.298 211.808 168.796 215.317 164.463 215.317ZM164.463 183.979C160.139 183.979 156.629 180.469 156.629 176.145C156.629 171.82 160.139 168.31 164.463 168.31C168.788 168.31 172.298 171.82 172.298 176.145C172.298 180.469 168.796 183.979 164.463 183.979ZM148.794 89.9643C153.119 89.9643 156.629 93.4742 156.629 97.7989C156.629 102.124 153.119 105.633 148.794 105.633C144.469 105.633 140.96 102.124 140.96 97.7989C140.96 93.4664 144.469 89.9643 148.794 89.9643ZM140.96 66.4606C140.96 62.136 144.469 58.6261 148.794 58.6261C153.119 58.6261 156.629 62.136 156.629 66.4606C156.629 70.7853 153.119 74.2952 148.794 74.2952C144.469 74.2952 140.96 70.7853 140.96 66.4606ZM148.794 121.303C153.119 121.303 156.629 124.813 156.629 129.137C156.629 133.462 153.119 136.972 148.794 136.972C144.469 136.972 140.96 133.462 140.96 129.137C140.96 124.805 144.469 121.303 148.794 121.303ZM133.125 121.303C128.8 121.303 125.29 117.793 125.29 113.468C125.29 109.143 128.8 105.633 133.125 105.633C137.45 105.633 140.96 109.143 140.96 113.468C140.96 117.793 137.457 121.303 133.125 121.303ZM117.456 105.633C113.131 105.633 109.621 102.124 109.621 97.7989C109.621 93.4742 113.131 89.9643 117.456 89.9643C121.781 89.9643 125.29 93.4742 125.29 97.7989C125.29 102.124 121.788 105.633 117.456 105.633ZM101.787 89.9643C97.462 89.9643 93.9521 86.4545 93.9521 82.1298C93.9521 77.8051 97.462 74.2952 101.787 74.2952C106.111 74.2952 109.621 77.8051 109.621 82.1298C109.621 86.4545 106.119 89.9643 101.787 89.9643ZM101.787 105.633C106.111 105.633 109.621 109.143 109.621 113.468C109.621 117.793 106.111 121.303 101.787 121.303C97.462 121.303 93.9521 117.793 93.9521 113.468C93.9521 109.136 97.462 105.633 101.787 105.633ZM101.787 168.31C106.111 168.31 109.621 171.82 109.621 176.145C109.621 180.469 106.111 183.979 101.787 183.979C97.462 183.979 93.9521 180.469 93.9521 176.145C93.9521 171.812 97.462 168.31 101.787 168.31ZM86.1176 168.31C81.7929 168.31 78.283 164.8 78.283 160.475C78.283 156.151 81.7929 152.641 86.1176 152.641C90.4423 152.641 93.9521 156.151 93.9521 160.475C93.9521 164.8 90.4501 168.31 86.1176 168.31ZM70.4484 136.972C74.7731 136.972 78.283 140.482 78.283 144.806C78.283 149.131 74.7731 152.641 70.4484 152.641C66.1238 152.641 62.6139 149.131 62.6139 144.806C62.6139 140.474 66.1238 136.972 70.4484 136.972ZM62.6139 113.468C62.6139 109.143 66.1238 105.633 70.4484 105.633C74.7731 105.633 78.283 109.143 78.283 113.468C78.283 117.793 74.7731 121.303 70.4484 121.303C66.1238 121.303 62.6139 117.793 62.6139 113.468ZM54.7793 136.972C50.4546 136.972 46.9447 133.462 46.9447 129.137C46.9447 124.813 50.4546 121.303 54.7793 121.303C59.104 121.303 62.6139 124.813 62.6139 129.137C62.6139 133.462 59.1118 136.972 54.7793 136.972ZM54.7793 277.994C59.104 277.994 62.6139 281.504 62.6139 285.829C62.6139 290.153 59.104 293.663 54.7793 293.663C50.4546 293.663 46.9447 290.153 46.9447 285.829C46.9447 281.496 50.4546 277.994 54.7793 277.994ZM70.4484 293.663C74.7731 293.663 78.283 297.173 78.283 301.498C78.283 305.822 74.7731 309.332 70.4484 309.332C66.1238 309.332 62.6139 305.822 62.6139 301.498C62.6139 297.165 66.1238 293.663 70.4484 293.663ZM86.1176 309.332C90.4423 309.332 93.9521 312.842 93.9521 317.167C93.9521 321.492 90.4423 325.001 86.1176 325.001C81.7929 325.001 78.283 321.492 78.283 317.167C78.283 312.834 81.7929 309.332 86.1176 309.332ZM101.787 325.001C106.111 325.001 109.621 328.511 109.621 332.836C109.621 337.161 106.111 340.671 101.787 340.671C97.462 340.671 93.9521 337.161 93.9521 332.836C93.9521 328.503 97.462 325.001 101.787 325.001ZM101.787 356.34C106.111 356.34 109.621 359.85 109.621 364.174C109.621 368.499 106.111 372.009 101.787 372.009C97.462 372.009 93.9521 368.499 93.9521 364.174C93.9521 359.842 97.462 356.34 101.787 356.34ZM117.456 372.009C121.781 372.009 125.29 375.519 125.29 379.843C125.29 384.168 121.781 387.678 117.456 387.678C113.131 387.678 109.621 384.168 109.621 379.843C109.621 375.511 113.131 372.009 117.456 372.009ZM133.125 387.678C137.45 387.678 140.96 391.188 140.96 395.513C140.96 399.837 137.45 403.347 133.125 403.347C128.8 403.347 125.29 399.837 125.29 395.513C125.29 391.18 128.8 387.678 133.125 387.678ZM133.125 372.009C128.8 372.009 125.29 368.499 125.29 364.174C125.29 359.85 128.8 356.34 133.125 356.34C137.45 356.34 140.96 359.85 140.96 364.174C140.96 368.499 137.457 372.009 133.125 372.009ZM133.125 340.671C128.8 340.671 125.29 337.161 125.29 332.836C125.29 328.511 128.8 325.001 133.125 325.001C137.45 325.001 140.96 328.511 140.96 332.836C140.96 337.161 137.457 340.671 133.125 340.671ZM133.125 246.656C128.8 246.656 125.29 243.146 125.29 238.821C125.29 234.496 128.8 230.987 133.125 230.987C137.45 230.987 140.96 234.496 140.96 238.821C140.96 243.146 137.457 246.656 133.125 246.656ZM148.794 309.332C153.119 309.332 156.629 312.842 156.629 317.167C156.629 321.492 153.119 325.001 148.794 325.001C144.469 325.001 140.96 321.492 140.96 317.167C140.96 312.834 144.469 309.332 148.794 309.332ZM164.463 325.001C168.788 325.001 172.298 328.511 172.298 332.836C172.298 337.161 168.788 340.671 164.463 340.671C160.139 340.671 156.629 337.161 156.629 332.836C156.629 328.503 160.139 325.001 164.463 325.001ZM180.132 340.671C184.457 340.671 187.967 344.18 187.967 348.505C187.967 352.83 184.457 356.34 180.132 356.34C175.808 356.34 172.298 352.83 172.298 348.505C172.298 344.173 175.808 340.671 180.132 340.671ZM180.132 293.663C175.808 293.663 172.298 290.153 172.298 285.829C172.298 281.504 175.808 277.994 180.132 277.994C184.457 277.994 187.967 281.504 187.967 285.829C187.967 290.153 184.465 293.663 180.132 293.663ZM180.132 262.325C175.808 262.325 172.298 258.815 172.298 254.49C172.298 250.166 175.808 246.656 180.132 246.656C184.457 246.656 187.967 250.166 187.967 254.49C187.967 258.815 184.465 262.325 180.132 262.325ZM180.132 199.648C175.808 199.648 172.298 196.138 172.298 191.814C172.298 187.489 175.808 183.979 180.132 183.979C184.457 183.979 187.967 187.489 187.967 191.814C187.967 196.138 184.465 199.648 180.132 199.648ZM180.132 168.31C175.808 168.31 172.298 164.8 172.298 160.475C172.298 156.151 175.808 152.641 180.132 152.641C184.457 152.641 187.967 156.151 187.967 160.475C187.967 164.8 184.465 168.31 180.132 168.31ZM180.132 136.972C175.808 136.972 172.298 133.462 172.298 129.137C172.298 124.813 175.808 121.303 180.132 121.303C184.457 121.303 187.967 124.813 187.967 129.137C187.967 133.462 184.465 136.972 180.132 136.972ZM164.463 11.6187C168.788 11.6187 172.298 15.1286 172.298 19.4532C172.298 23.7779 168.788 27.2878 164.463 27.2878C160.139 27.2878 156.629 23.7779 156.629 19.4532C156.629 15.1207 160.139 11.6187 164.463 11.6187ZM148.794 27.2878C153.119 27.2878 156.629 30.7977 156.629 35.1224C156.629 39.4471 153.119 42.9569 148.794 42.9569C144.469 42.9569 140.96 39.4471 140.96 35.1224C140.96 30.7899 144.469 27.2878 148.794 27.2878ZM133.125 42.9569C137.45 42.9569 140.96 46.4668 140.96 50.7915C140.96 55.1162 137.45 58.6261 133.125 58.6261C128.8 58.6261 125.29 55.1162 125.29 50.7915C125.29 46.459 128.8 42.9569 133.125 42.9569ZM117.456 27.2878C121.781 27.2878 125.29 30.7977 125.29 35.1224C125.29 39.4471 121.781 42.9569 117.456 42.9569C113.131 42.9569 109.621 39.4471 109.621 35.1224C109.621 30.7899 113.131 27.2878 117.456 27.2878ZM101.787 42.9569C106.111 42.9569 109.621 46.4668 109.621 50.7915C109.621 55.1162 106.111 58.6261 101.787 58.6261C97.462 58.6261 93.9521 55.1162 93.9521 50.7915C93.9521 46.459 97.462 42.9569 101.787 42.9569ZM86.1176 58.6261C90.4423 58.6261 93.9521 62.136 93.9521 66.4606C93.9521 70.7853 90.4423 74.2952 86.1176 74.2952C81.7929 74.2952 78.283 70.7853 78.283 66.4606C78.283 62.1281 81.7929 58.6261 86.1176 58.6261ZM70.4484 74.2952C74.7731 74.2952 78.283 77.8051 78.283 82.1298C78.283 86.4545 74.7731 89.9643 70.4484 89.9643C66.1238 89.9643 62.6139 86.4545 62.6139 82.1298C62.6139 77.7973 66.1238 74.2952 70.4484 74.2952ZM54.7793 89.9643C59.104 89.9643 62.6139 93.4742 62.6139 97.7989C62.6139 102.124 59.104 105.633 54.7793 105.633C50.4546 105.633 46.9447 102.124 46.9447 97.7989C46.9447 93.4664 50.4546 89.9643 54.7793 89.9643ZM39.1102 105.633C43.4349 105.633 46.9447 109.143 46.9447 113.468C46.9447 117.793 43.4349 121.303 39.1102 121.303C34.7855 121.303 31.2756 117.793 31.2756 113.468C31.2756 109.136 34.7855 105.633 39.1102 105.633ZM39.1102 136.972C43.4349 136.972 46.9447 140.482 46.9447 144.806C46.9447 149.131 43.4349 152.641 39.1102 152.641C34.7855 152.641 31.2756 149.131 31.2756 144.806C31.2756 140.474 34.7855 136.972 39.1102 136.972ZM39.1102 168.31C43.4349 168.31 46.9447 171.82 46.9447 176.145C46.9447 180.469 43.4349 183.979 39.1102 183.979C34.7855 183.979 31.2756 180.469 31.2756 176.145C31.2756 171.812 34.7855 168.31 39.1102 168.31ZM23.441 183.979C27.7657 183.979 31.2756 187.489 31.2756 191.814C31.2756 196.138 27.7657 199.648 23.441 199.648C19.1164 199.648 15.6065 196.138 15.6065 191.814C15.6065 187.481 19.1164 183.979 23.441 183.979ZM23.441 215.317C27.7657 215.317 31.2756 218.827 31.2756 223.152C31.2756 227.477 27.7657 230.987 23.441 230.987C19.1164 230.987 15.6065 227.477 15.6065 223.152C15.6065 218.82 19.1164 215.317 23.441 215.317ZM23.441 262.325C19.1164 262.325 15.6065 258.815 15.6065 254.49C15.6065 250.166 19.1164 246.656 23.441 246.656C27.7657 246.656 31.2756 250.166 31.2756 254.49C31.2756 258.815 27.7735 262.325 23.441 262.325ZM39.1102 277.994C34.7855 277.994 31.2756 274.484 31.2756 270.159C31.2756 265.835 34.7855 262.325 39.1102 262.325C43.4349 262.325 46.9447 265.835 46.9447 270.159C46.9447 274.484 43.4427 277.994 39.1102 277.994ZM54.7793 325.001C50.4546 325.001 46.9447 321.492 46.9447 317.167C46.9447 312.842 50.4546 309.332 54.7793 309.332C59.104 309.332 62.6139 312.842 62.6139 317.167C62.6139 321.492 59.1118 325.001 54.7793 325.001ZM70.4484 340.671C66.1238 340.671 62.6139 337.161 62.6139 332.836C62.6139 328.511 66.1238 325.001 70.4484 325.001C74.7731 325.001 78.283 328.511 78.283 332.836C78.283 337.161 74.781 340.671 70.4484 340.671ZM86.1176 356.34C81.7929 356.34 78.283 352.83 78.283 348.505C78.283 344.18 81.7929 340.671 86.1176 340.671C90.4423 340.671 93.9521 344.18 93.9521 348.505C93.9521 352.83 90.4501 356.34 86.1176 356.34ZM101.787 403.347C97.462 403.347 93.9521 399.837 93.9521 395.513C93.9521 391.188 97.462 387.678 101.787 387.678C106.111 387.678 109.621 391.188 109.621 395.513C109.621 399.837 106.119 403.347 101.787 403.347ZM117.456 419.016C113.131 419.016 109.621 415.506 109.621 411.182C109.621 406.857 113.131 403.347 117.456 403.347C121.781 403.347 125.29 406.857 125.29 411.182C125.29 415.506 121.788 419.016 117.456 419.016ZM133.125 434.685C128.8 434.685 125.29 431.175 125.29 426.851C125.29 422.526 128.8 419.016 133.125 419.016C137.45 419.016 140.96 422.526 140.96 426.851C140.96 431.175 137.457 434.685 133.125 434.685ZM148.794 450.355C144.469 450.355 140.96 446.845 140.96 442.52C140.96 438.195 144.469 434.685 148.794 434.685C153.119 434.685 156.629 438.195 156.629 442.52C156.629 446.845 153.127 450.355 148.794 450.355ZM148.794 419.016C144.469 419.016 140.96 415.506 140.96 411.182C140.96 406.857 144.469 403.347 148.794 403.347C153.119 403.347 156.629 406.857 156.629 411.182C156.629 415.506 153.127 419.016 148.794 419.016ZM164.463 403.347C160.139 403.347 156.629 399.837 156.629 395.513C156.629 391.188 160.139 387.678 164.463 387.678C168.788 387.678 172.298 391.188 172.298 395.513C172.298 399.837 168.796 403.347 164.463 403.347ZM180.132 419.016C175.808 419.016 172.298 415.506 172.298 411.182C172.298 406.857 175.808 403.347 180.132 403.347C184.457 403.347 187.967 406.857 187.967 411.182C187.967 415.506 184.465 419.016 180.132 419.016ZM195.802 434.685C191.477 434.685 187.967 431.175 187.967 426.851C187.967 422.526 191.477 419.016 195.802 419.016C200.126 419.016 203.636 422.526 203.636 426.851C203.636 431.175 200.134 434.685 195.802 434.685ZM195.802 372.009C191.477 372.009 187.967 368.499 187.967 364.174C187.967 359.85 191.477 356.34 195.802 356.34C200.126 356.34 203.636 359.85 203.636 364.174C203.636 368.499 200.134 372.009 195.802 372.009ZM195.802 309.332C191.477 309.332 187.967 305.822 187.967 301.498C187.967 297.173 191.477 293.663 195.802 293.663C200.126 293.663 203.636 297.173 203.636 301.498C203.636 305.822 200.134 309.332 195.802 309.332ZM195.802 215.317C191.477 215.317 187.967 211.808 187.967 207.483C187.967 203.158 191.477 199.648 195.802 199.648C200.126 199.648 203.636 203.158 203.636 207.483C203.636 211.808 200.134 215.317 195.802 215.317ZM195.802 58.6261C191.477 58.6261 187.967 55.1162 187.967 50.7915C187.967 46.4668 191.477 42.9569 195.802 42.9569C200.126 42.9569 203.636 46.4668 203.636 50.7915C203.636 55.1162 200.134 58.6261 195.802 58.6261ZM195.802 27.2878C191.477 27.2878 187.967 23.7779 187.967 19.4532C187.967 15.1286 191.477 11.6187 195.802 11.6187C200.126 11.6187 203.636 15.1286 203.636 19.4532C203.636 23.7779 200.134 27.2878 195.802 27.2878ZM383.831 105.633C388.156 105.633 391.666 109.143 391.666 113.468C391.666 117.793 388.156 121.303 383.831 121.303C379.507 121.303 375.997 117.793 375.997 113.468C375.997 109.136 379.507 105.633 383.831 105.633ZM242.809 293.663C238.484 293.663 234.974 290.153 234.974 285.829C234.974 281.504 238.484 277.994 242.809 277.994C247.134 277.994 250.644 281.504 250.644 285.829C250.644 290.153 247.141 293.663 242.809 293.663ZM250.644 348.505C250.644 352.83 247.134 356.34 242.809 356.34C238.484 356.34 234.974 352.83 234.974 348.505C234.974 344.18 238.484 340.671 242.809 340.671C247.134 340.671 250.644 344.173 250.644 348.505ZM336.824 230.987C332.499 230.987 328.989 227.477 328.989 223.152C328.989 218.827 332.499 215.317 336.824 215.317C341.148 215.317 344.658 218.827 344.658 223.152C344.658 227.477 341.156 230.987 336.824 230.987ZM344.658 254.49C344.658 258.815 341.148 262.325 336.824 262.325C332.499 262.325 328.989 258.815 328.989 254.49C328.989 250.166 332.499 246.656 336.824 246.656C341.148 246.656 344.658 250.158 344.658 254.49ZM336.824 199.648C332.499 199.648 328.989 196.138 328.989 191.814C328.989 187.489 332.499 183.979 336.824 183.979C341.148 183.979 344.658 187.489 344.658 191.814C344.658 196.138 341.156 199.648 336.824 199.648ZM321.155 183.979C316.83 183.979 313.32 180.469 313.32 176.145C313.32 171.82 316.83 168.31 321.155 168.31C325.479 168.31 328.989 171.82 328.989 176.145C328.989 180.469 325.487 183.979 321.155 183.979ZM336.824 168.31C332.499 168.31 328.989 164.8 328.989 160.475C328.989 156.151 332.499 152.641 336.824 152.641C341.148 152.641 344.658 156.151 344.658 160.475C344.658 164.8 341.156 168.31 336.824 168.31ZM321.155 105.633C325.479 105.633 328.989 109.143 328.989 113.468C328.989 117.793 325.479 121.303 321.155 121.303C316.83 121.303 313.32 117.793 313.32 113.468C313.32 109.136 316.83 105.633 321.155 105.633ZM313.32 82.1298C313.32 77.8051 316.83 74.2952 321.155 74.2952C325.479 74.2952 328.989 77.8051 328.989 82.1298C328.989 86.4545 325.479 89.9643 321.155 89.9643C316.83 89.9643 313.32 86.4545 313.32 82.1298ZM305.486 105.633C301.161 105.633 297.651 102.124 297.651 97.7989C297.651 93.4742 301.161 89.9643 305.486 89.9643C309.81 89.9643 313.32 93.4742 313.32 97.7989C313.32 102.124 309.818 105.633 305.486 105.633ZM305.486 152.641C309.81 152.641 313.32 156.151 313.32 160.475C313.32 164.8 309.81 168.31 305.486 168.31C301.161 168.31 297.651 164.8 297.651 160.475C297.651 156.143 301.161 152.641 305.486 152.641ZM274.147 168.31C269.823 168.31 266.313 164.8 266.313 160.475C266.313 156.151 269.823 152.641 274.147 152.641C278.472 152.641 281.982 156.151 281.982 160.475C281.982 164.8 278.48 168.31 274.147 168.31ZM289.816 199.648C294.141 199.648 297.651 203.158 297.651 207.483C297.651 211.808 294.141 215.317 289.816 215.317C285.492 215.317 281.982 211.808 281.982 207.483C281.982 203.15 285.492 199.648 289.816 199.648ZM274.147 215.317C278.472 215.317 281.982 218.827 281.982 223.152C281.982 227.477 278.472 230.987 274.147 230.987C269.823 230.987 266.313 227.477 266.313 223.152C266.313 218.82 269.823 215.317 274.147 215.317ZM258.478 199.648C262.803 199.648 266.313 203.158 266.313 207.483C266.313 211.808 262.803 215.317 258.478 215.317C254.153 215.317 250.644 211.808 250.644 207.483C250.644 203.15 254.153 199.648 258.478 199.648ZM250.644 176.145C250.644 171.82 254.153 168.31 258.478 168.31C262.803 168.31 266.313 171.82 266.313 176.145C266.313 180.469 262.803 183.979 258.478 183.979C254.153 183.979 250.644 180.469 250.644 176.145ZM258.478 230.987C262.803 230.987 266.313 234.496 266.313 238.821C266.313 243.146 262.803 246.656 258.478 246.656C254.153 246.656 250.644 243.146 250.644 238.821C250.644 234.489 254.153 230.987 258.478 230.987ZM274.147 277.994C278.472 277.994 281.982 281.504 281.982 285.829C281.982 290.153 278.472 293.663 274.147 293.663C269.823 293.663 266.313 290.153 266.313 285.829C266.313 281.496 269.823 277.994 274.147 277.994ZM289.816 246.656C285.492 246.656 281.982 243.146 281.982 238.821C281.982 234.496 285.492 230.987 289.816 230.987C294.141 230.987 297.651 234.496 297.651 238.821C297.651 243.146 294.149 246.656 289.816 246.656ZM297.651 332.836C297.651 337.161 294.141 340.671 289.816 340.671C285.492 340.671 281.982 337.161 281.982 332.836C281.982 328.511 285.492 325.001 289.816 325.001C294.141 325.001 297.651 328.503 297.651 332.836ZM305.486 246.656C309.81 246.656 313.32 250.166 313.32 254.49C313.32 258.815 309.81 262.325 305.486 262.325C301.161 262.325 297.651 258.815 297.651 254.49C297.651 250.158 301.161 246.656 305.486 246.656ZM289.816 121.303C285.492 121.303 281.982 117.793 281.982 113.468C281.982 109.143 285.492 105.633 289.816 105.633C294.141 105.633 297.651 109.143 297.651 113.468C297.651 117.793 294.149 121.303 289.816 121.303ZM274.147 89.9643C278.472 89.9643 281.982 93.4742 281.982 97.7989C281.982 102.124 278.472 105.633 274.147 105.633C269.823 105.633 266.313 102.124 266.313 97.7989C266.313 93.4664 269.823 89.9643 274.147 89.9643ZM266.313 66.4606C266.313 62.136 269.823 58.6261 274.147 58.6261C278.472 58.6261 281.982 62.136 281.982 66.4606C281.982 70.7853 278.472 74.2952 274.147 74.2952C269.823 74.2952 266.313 70.7853 266.313 66.4606ZM274.147 121.303C278.472 121.303 281.982 124.813 281.982 129.137C281.982 133.462 278.472 136.972 274.147 136.972C269.823 136.972 266.313 133.462 266.313 129.137C266.313 124.805 269.823 121.303 274.147 121.303ZM258.478 121.303C254.153 121.303 250.644 117.793 250.644 113.468C250.644 109.143 254.153 105.633 258.478 105.633C262.803 105.633 266.313 109.143 266.313 113.468C266.313 117.793 262.811 121.303 258.478 121.303ZM242.809 105.633C238.484 105.633 234.974 102.124 234.974 97.7989C234.974 93.4742 238.484 89.9643 242.809 89.9643C247.134 89.9643 250.644 93.4742 250.644 97.7989C250.644 102.124 247.141 105.633 242.809 105.633ZM242.809 121.303C247.134 121.303 250.644 124.813 250.644 129.137C250.644 133.462 247.134 136.972 242.809 136.972C238.484 136.972 234.974 133.462 234.974 129.137C234.974 124.805 238.484 121.303 242.809 121.303ZM242.809 152.641C247.134 152.641 250.644 156.151 250.644 160.475C250.644 164.8 247.134 168.31 242.809 168.31C238.484 168.31 234.974 164.8 234.974 160.475C234.974 156.143 238.484 152.641 242.809 152.641ZM242.809 183.979C247.134 183.979 250.644 187.489 250.644 191.814C250.644 196.138 247.134 199.648 242.809 199.648C238.484 199.648 234.974 196.138 234.974 191.814C234.974 187.481 238.484 183.979 242.809 183.979ZM242.809 246.656C247.134 246.656 250.644 250.166 250.644 254.49C250.644 258.815 247.134 262.325 242.809 262.325C238.484 262.325 234.974 258.815 234.974 254.49C234.974 250.158 238.484 246.656 242.809 246.656ZM258.478 325.001C262.803 325.001 266.313 328.511 266.313 332.836C266.313 337.161 262.803 340.671 258.478 340.671C254.153 340.671 250.644 337.161 250.644 332.836C250.644 328.503 254.153 325.001 258.478 325.001ZM274.147 325.001C269.823 325.001 266.313 321.492 266.313 317.167C266.313 312.842 269.823 309.332 274.147 309.332C278.472 309.332 281.982 312.842 281.982 317.167C281.982 321.492 278.48 325.001 274.147 325.001ZM281.982 411.182C281.982 415.506 278.472 419.016 274.147 419.016C269.823 419.016 266.313 415.506 266.313 411.182C266.313 406.857 269.823 403.347 274.147 403.347C278.472 403.347 281.982 406.849 281.982 411.182ZM289.816 372.009C285.492 372.009 281.982 368.499 281.982 364.174C281.982 359.85 285.492 356.34 289.816 356.34C294.141 356.34 297.651 359.85 297.651 364.174C297.651 368.499 294.149 372.009 289.816 372.009ZM297.651 395.513C297.651 399.837 294.141 403.347 289.816 403.347C285.492 403.347 281.982 399.837 281.982 395.513C281.982 391.188 285.492 387.678 289.816 387.678C294.141 387.678 297.651 391.18 297.651 395.513ZM305.486 372.009C309.81 372.009 313.32 375.519 313.32 379.843C313.32 384.168 309.81 387.678 305.486 387.678C301.161 387.678 297.651 384.168 297.651 379.843C297.651 375.511 301.161 372.009 305.486 372.009ZM305.486 293.663C301.161 293.663 297.651 290.153 297.651 285.829C297.651 281.504 301.161 277.994 305.486 277.994C309.81 277.994 313.32 281.504 313.32 285.829C313.32 290.153 309.818 293.663 305.486 293.663ZM321.155 325.001C325.479 325.001 328.989 328.511 328.989 332.836C328.989 337.161 325.479 340.671 321.155 340.671C316.83 340.671 313.32 337.161 313.32 332.836C313.32 328.503 316.83 325.001 321.155 325.001ZM321.155 215.317C316.83 215.317 313.32 211.808 313.32 207.483C313.32 203.158 316.83 199.648 321.155 199.648C325.479 199.648 328.989 203.158 328.989 207.483C328.989 211.808 325.487 215.317 321.155 215.317ZM336.824 293.663C332.499 293.663 328.989 290.153 328.989 285.829C328.989 281.504 332.499 277.994 336.824 277.994C341.148 277.994 344.658 281.504 344.658 285.829C344.658 290.153 341.156 293.663 336.824 293.663ZM344.658 317.167C344.658 321.492 341.148 325.001 336.824 325.001C332.499 325.001 328.989 321.492 328.989 317.167C328.989 312.842 332.499 309.332 336.824 309.332C341.148 309.332 344.658 312.834 344.658 317.167ZM352.493 293.663C356.818 293.663 360.327 297.173 360.327 301.498C360.327 305.822 356.818 309.332 352.493 309.332C348.168 309.332 344.658 305.822 344.658 301.498C344.658 297.165 348.168 293.663 352.493 293.663ZM352.493 183.979C348.168 183.979 344.658 180.469 344.658 176.145C344.658 171.82 348.168 168.31 352.493 168.31C356.818 168.31 360.327 171.82 360.327 176.145C360.327 180.469 356.825 183.979 352.493 183.979ZM352.493 136.972C356.818 136.972 360.327 140.482 360.327 144.806C360.327 149.131 356.818 152.641 352.493 152.641C348.168 152.641 344.658 149.131 344.658 144.806C344.658 140.474 348.168 136.972 352.493 136.972ZM344.658 113.468C344.658 109.143 348.168 105.633 352.493 105.633C356.818 105.633 360.327 109.143 360.327 113.468C360.327 117.793 356.818 121.303 352.493 121.303C348.168 121.303 344.658 117.793 344.658 113.468ZM368.162 230.987C363.837 230.987 360.327 227.477 360.327 223.152C360.327 218.827 363.837 215.317 368.162 215.317C372.487 215.317 375.997 218.827 375.997 223.152C375.997 227.477 372.495 230.987 368.162 230.987ZM375.997 254.49C375.997 258.815 372.487 262.325 368.162 262.325C363.837 262.325 360.327 258.815 360.327 254.49C360.327 250.166 363.837 246.656 368.162 246.656C372.487 246.656 375.997 250.158 375.997 254.49ZM368.162 136.972C363.837 136.972 360.327 133.462 360.327 129.137C360.327 124.813 363.837 121.303 368.162 121.303C372.487 121.303 375.997 124.813 375.997 129.137C375.997 133.462 372.495 136.972 368.162 136.972ZM383.831 183.979C379.507 183.979 375.997 180.469 375.997 176.145C375.997 171.82 379.507 168.31 383.831 168.31C388.156 168.31 391.666 171.82 391.666 176.145C391.666 180.469 388.164 183.979 383.831 183.979ZM391.666 207.483C391.666 211.808 388.156 215.317 383.831 215.317C379.507 215.317 375.997 211.808 375.997 207.483C375.997 203.158 379.507 199.648 383.831 199.648C388.156 199.648 391.666 203.15 391.666 207.483ZM383.831 152.641C379.507 152.641 375.997 149.131 375.997 144.806C375.997 140.482 379.507 136.972 383.831 136.972C388.156 136.972 391.666 140.482 391.666 144.806C391.666 149.131 388.164 152.641 383.831 152.641ZM368.162 89.9643C372.487 89.9643 375.997 93.4742 375.997 97.7989C375.997 102.124 372.487 105.633 368.162 105.633C363.837 105.633 360.327 102.124 360.327 97.7989C360.327 93.4664 363.837 89.9643 368.162 89.9643ZM352.493 74.2952C356.818 74.2952 360.327 77.8051 360.327 82.1298C360.327 86.4545 356.818 89.9643 352.493 89.9643C348.168 89.9643 344.658 86.4545 344.658 82.1298C344.658 77.7973 348.168 74.2952 352.493 74.2952ZM336.824 58.6261C341.148 58.6261 344.658 62.136 344.658 66.4606C344.658 70.7853 341.148 74.2952 336.824 74.2952C332.499 74.2952 328.989 70.7853 328.989 66.4606C328.989 62.1281 332.499 58.6261 336.824 58.6261ZM321.155 42.9569C325.479 42.9569 328.989 46.4668 328.989 50.7915C328.989 55.1162 325.479 58.6261 321.155 58.6261C316.83 58.6261 313.32 55.1162 313.32 50.7915C313.32 46.459 316.83 42.9569 321.155 42.9569ZM305.486 27.2878C309.81 27.2878 313.32 30.7977 313.32 35.1224C313.32 39.4471 309.81 42.9569 305.486 42.9569C301.161 42.9569 297.651 39.4471 297.651 35.1224C297.651 30.7899 301.161 27.2878 305.486 27.2878ZM289.816 42.9569C294.141 42.9569 297.651 46.4668 297.651 50.7915C297.651 55.1162 294.141 58.6261 289.816 58.6261C285.492 58.6261 281.982 55.1162 281.982 50.7915C281.982 46.459 285.492 42.9569 289.816 42.9569ZM274.147 27.2878C278.472 27.2878 281.982 30.7977 281.982 35.1224C281.982 39.4471 278.472 42.9569 274.147 42.9569C269.823 42.9569 266.313 39.4471 266.313 35.1224C266.313 30.7899 269.823 27.2878 274.147 27.2878ZM258.478 11.6187C262.803 11.6187 266.313 15.1286 266.313 19.4532C266.313 23.7779 262.803 27.2878 258.478 27.2878C254.153 27.2878 250.644 23.7779 250.644 19.4532C250.644 15.1207 254.153 11.6187 258.478 11.6187ZM242.809 27.2878C247.134 27.2878 250.644 30.7977 250.644 35.1224C250.644 39.4471 247.134 42.9569 242.809 42.9569C238.484 42.9569 234.974 39.4471 234.974 35.1224C234.974 30.7899 238.484 27.2878 242.809 27.2878ZM227.14 11.6187C231.464 11.6187 234.974 15.1286 234.974 19.4532C234.974 23.7779 231.464 27.2878 227.14 27.2878C222.815 27.2878 219.305 23.7779 219.305 19.4532C219.305 15.1207 222.815 11.6187 227.14 11.6187ZM227.14 74.2952C231.464 74.2952 234.974 77.8051 234.974 82.1298C234.974 86.4545 231.464 89.9643 227.14 89.9643C222.815 89.9643 219.305 86.4545 219.305 82.1298C219.305 77.7973 222.815 74.2952 227.14 74.2952ZM227.14 136.972C231.464 136.972 234.974 140.482 234.974 144.806C234.974 149.131 231.464 152.641 227.14 152.641C222.815 152.641 219.305 149.131 219.305 144.806C219.305 140.474 222.815 136.972 227.14 136.972ZM227.14 230.987C231.464 230.987 234.974 234.496 234.974 238.821C234.974 243.146 231.464 246.656 227.14 246.656C222.815 246.656 219.305 243.146 219.305 238.821C219.305 234.489 222.815 230.987 227.14 230.987ZM227.14 262.325C231.464 262.325 234.974 265.835 234.974 270.159C234.974 274.484 231.464 277.994 227.14 277.994C222.815 277.994 219.305 274.484 219.305 270.159C219.305 265.827 222.815 262.325 227.14 262.325ZM227.14 325.001C231.464 325.001 234.974 328.511 234.974 332.836C234.974 337.161 231.464 340.671 227.14 340.671C222.815 340.671 219.305 337.161 219.305 332.836C219.305 328.503 222.815 325.001 227.14 325.001ZM227.14 403.347C222.815 403.347 219.305 399.837 219.305 395.513C219.305 391.188 222.815 387.678 227.14 387.678C231.464 387.678 234.974 391.188 234.974 395.513C234.974 399.837 231.472 403.347 227.14 403.347ZM242.809 450.355C238.484 450.355 234.974 446.845 234.974 442.52C234.974 438.195 238.484 434.685 242.809 434.685C247.134 434.685 250.644 438.195 250.644 442.52C250.644 446.845 247.141 450.355 242.809 450.355ZM242.809 419.016C238.484 419.016 234.974 415.506 234.974 411.182C234.974 406.857 238.484 403.347 242.809 403.347C247.134 403.347 250.644 406.857 250.644 411.182C250.644 415.506 247.141 419.016 242.809 419.016ZM258.478 403.347C254.153 403.347 250.644 399.837 250.644 395.513C250.644 391.188 254.153 387.678 258.478 387.678C262.803 387.678 266.313 391.188 266.313 395.513C266.313 399.837 262.811 403.347 258.478 403.347ZM274.147 450.355C269.823 450.355 266.313 446.845 266.313 442.52C266.313 438.195 269.823 434.685 274.147 434.685C278.472 434.685 281.982 438.195 281.982 442.52C281.982 446.845 278.48 450.355 274.147 450.355ZM289.816 434.685C285.492 434.685 281.982 431.175 281.982 426.851C281.982 422.526 285.492 419.016 289.816 419.016C294.141 419.016 297.651 422.526 297.651 426.851C297.651 431.175 294.149 434.685 289.816 434.685ZM305.486 419.016C301.161 419.016 297.651 415.506 297.651 411.182C297.651 406.857 301.161 403.347 305.486 403.347C309.81 403.347 313.32 406.857 313.32 411.182C313.32 415.506 309.818 419.016 305.486 419.016ZM321.155 403.347C316.83 403.347 313.32 399.837 313.32 395.513C313.32 391.188 316.83 387.678 321.155 387.678C325.479 387.678 328.989 391.188 328.989 395.513C328.989 399.837 325.487 403.347 321.155 403.347ZM321.155 372.009C316.83 372.009 313.32 368.499 313.32 364.174C313.32 359.85 316.83 356.34 321.155 356.34C325.479 356.34 328.989 359.85 328.989 364.174C328.989 368.499 325.487 372.009 321.155 372.009ZM336.824 356.34C332.499 356.34 328.989 352.83 328.989 348.505C328.989 344.18 332.499 340.671 336.824 340.671C341.148 340.671 344.658 344.18 344.658 348.505C344.658 352.83 341.156 356.34 336.824 356.34ZM352.493 340.671C348.168 340.671 344.658 337.161 344.658 332.836C344.658 328.511 348.168 325.001 352.493 325.001C356.818 325.001 360.327 328.511 360.327 332.836C360.327 337.161 356.825 340.671 352.493 340.671ZM368.162 325.001C363.837 325.001 360.327 321.492 360.327 317.167C360.327 312.842 363.837 309.332 368.162 309.332C372.487 309.332 375.997 312.842 375.997 317.167C375.997 321.492 372.495 325.001 368.162 325.001ZM368.162 293.663C363.837 293.663 360.327 290.153 360.327 285.829C360.327 281.504 363.837 277.994 368.162 277.994C372.487 277.994 375.997 281.504 375.997 285.829C375.997 290.153 372.495 293.663 368.162 293.663ZM383.831 277.994C379.507 277.994 375.997 274.484 375.997 270.159C375.997 265.835 379.507 262.325 383.831 262.325C388.156 262.325 391.666 265.835 391.666 270.159C391.666 274.484 388.164 277.994 383.831 277.994ZM399.5 262.325C395.176 262.325 391.666 258.815 391.666 254.49C391.666 250.166 395.176 246.656 399.5 246.656C403.825 246.656 407.335 250.166 407.335 254.49C407.335 258.815 403.833 262.325 399.5 262.325ZM399.5 230.987C395.176 230.987 391.666 227.477 391.666 223.152C391.666 218.827 395.176 215.317 399.5 215.317C403.825 215.317 407.335 218.827 407.335 223.152C407.335 227.477 403.833 230.987 399.5 230.987ZM399.5 199.648C395.176 199.648 391.666 196.138 391.666 191.814C391.666 187.489 395.176 183.979 399.5 183.979C403.825 183.979 407.335 187.489 407.335 191.814C407.335 196.138 403.833 199.648 399.5 199.648Z" fill="white"/>
</svg>
