<svg width="2053" height="87" viewBox="0 0 2053 87" fill="none" xmlns="http://www.w3.org/2000/svg">
<g clip-path="url(#clip0_788_6005)">
<path d="M-222.68 88.2832C-222.68 88.2832 0.650604 9.72537 199.677 2.8336C443.775 -5.61891 501.143 95.1231 740.918 81.2321C917.07 71.027 892.925 9.94362 1071.68 2.8336C1289.38 -5.82576 1315.52 89.2486 1533.65 81.2321C1715.02 74.5664 1689.21 4.04455 1872.6 2.8336C2061.46 1.58658 2041.77 81.581 2230.7 81.2321C2418.05 80.8861 2395.97 2.8336 2583.33 2.8336C2770.68 2.8336 3001.08 88.2832 3001.08 88.2832" stroke="#B69AB4" stroke-width="6.32411"/>
<path d="M-360.902 88.2832C-360.902 88.2832 -137.572 9.72537 61.4542 2.8336C305.553 -5.61891 362.92 95.1231 602.695 81.2321C778.847 71.027 754.703 9.94362 933.454 2.8336C1151.16 -5.82576 1177.3 89.2486 1395.42 81.2321C1576.79 74.5664 1550.98 4.04455 1734.38 2.8336C1923.24 1.58658 1903.55 81.581 2092.48 81.2321C2279.82 80.8861 2257.75 2.8336 2445.1 2.8336C2632.46 2.8336 2862.86 88.2832 2862.86 88.2832" stroke="#B69AB4" stroke-width="6.32411"/>
<path d="M-499.133 88.2832C-499.133 88.2832 -275.803 9.72537 -76.7763 2.8336C167.322 -5.61891 224.69 95.1231 464.465 81.2321C640.617 71.027 616.472 9.94362 795.223 2.8336C1012.93 -5.82576 1039.07 89.2486 1257.19 81.2321C1438.56 74.5664 1412.75 4.04455 1596.15 2.8336C1785.01 1.58658 1765.32 81.581 1954.25 81.2321C2141.59 80.8861 2119.52 2.8336 2306.87 2.8336C2494.23 2.8336 2724.63 88.2832 2724.63 88.2832" stroke="#B69AB4" stroke-width="6.32411"/>
<path d="M-637.363 88.2832C-637.363 88.2832 -414.033 9.72537 -215.007 2.8336C29.0917 -5.61891 86.4595 95.1231 326.234 81.2321C502.386 71.027 478.242 9.94362 656.993 2.8336C874.696 -5.82576 900.835 89.2486 1118.96 81.2321C1300.33 74.5664 1274.52 4.04455 1457.92 2.8336C1646.78 1.58658 1627.09 81.581 1816.01 81.2321C2003.36 80.8861 1981.29 2.8336 2168.64 2.8336C2356 2.8336 2586.39 88.2832 2586.39 88.2832" stroke="#B69AB4" stroke-width="6.32411"/>
<path d="M-775.582 88.2832C-775.582 88.2832 -552.252 9.72537 -353.226 2.8336C-109.127 -5.61891 -51.7593 95.1231 188.016 81.2321C364.168 71.027 340.023 9.94362 518.774 2.8336C736.477 -5.82576 762.617 89.2486 980.743 81.2321C1162.11 74.5664 1136.3 4.04455 1319.7 2.8336C1508.56 1.58658 1488.87 81.581 1677.8 81.2321C1865.14 80.8861 1843.07 2.8336 2030.42 2.8336C2217.78 2.8336 2448.18 88.2832 2448.18 88.2832" stroke="#B69AB4" stroke-width="6.32411"/>
</g>
<defs>
<clipPath id="clip0_788_6005">
<rect width="2053" height="87" fill="white"/>
</clipPath>
</defs>
</svg>
