<svg width="2228" height="181" viewBox="0 0 2228 181" fill="none" xmlns="http://www.w3.org/2000/svg">
<g clip-path="url(#clip0_788_6012)">
<path d="M-613.648 155.318C-613.648 155.318 -285.632 39.9363 6.68775 29.814C365.207 17.3994 449.466 165.364 801.636 144.962C1060.36 129.973 1024.9 40.2569 1287.44 29.814C1607.19 17.0956 1645.58 156.736 1965.95 144.962C2232.34 135.172 2194.43 31.5926 2463.8 29.814C2741.19 27.9825 2712.27 145.474 2989.75 144.962C3264.92 144.454 3232.5 29.814 3507.67 29.814C3782.85 29.814 4121.25 155.318 4121.25 155.318" stroke="#B69AB4" stroke-width="9.28853"/>
<path d="M-816.67 155.318C-816.67 155.318 -488.654 39.9363 -196.334 29.814C162.186 17.3994 246.445 165.364 598.614 144.962C857.337 129.973 821.875 40.2569 1084.42 29.814C1404.17 17.0956 1442.56 156.736 1762.93 144.962C2029.32 135.172 1991.41 31.5926 2260.78 29.814C2538.16 27.9825 2509.25 145.474 2786.73 144.962C3061.9 144.454 3029.47 29.814 3304.65 29.814C3579.83 29.814 3918.23 155.318 3918.23 155.318" stroke="#B69AB4" stroke-width="9.28853"/>
<path d="M-1019.69 155.318C-1019.69 155.318 -691.671 39.9363 -399.351 29.814C-40.8316 17.3994 43.4273 165.364 395.597 144.962C654.32 129.973 618.857 40.2569 881.399 29.814C1201.15 17.0956 1239.54 156.736 1559.91 144.962C1826.3 135.172 1788.4 31.5926 2057.76 29.814C2335.15 27.9825 2306.23 145.474 2583.71 144.962C2858.88 144.454 2826.46 29.814 3101.63 29.814C3376.81 29.814 3715.21 155.318 3715.21 155.318" stroke="#B69AB4" stroke-width="9.28853"/>
<path d="M-1222.71 155.318C-1222.71 155.318 -894.698 39.9363 -602.379 29.814C-243.859 17.3994 -159.6 165.364 192.57 144.962C451.292 129.973 415.83 40.2569 678.371 29.814C998.122 17.0956 1036.51 156.736 1356.89 144.962C1623.27 135.172 1585.37 31.5926 1854.73 29.814C2132.12 27.9825 2103.2 145.474 2380.68 144.962C2655.85 144.454 2623.43 29.814 2898.61 29.814C3173.78 29.814 3512.18 155.318 3512.18 155.318" stroke="#B69AB4" stroke-width="9.28853"/>
<path d="M-1425.72 155.318C-1425.72 155.318 -1097.71 39.9363 -805.388 29.814C-446.869 17.3994 -362.61 165.364 -10.4402 144.962C248.283 129.973 212.82 40.2569 475.361 29.814C795.112 17.0956 833.505 156.736 1153.88 144.962C1420.27 135.172 1382.36 31.5926 1651.72 29.814C1929.11 27.9825 1900.19 145.474 2177.67 144.962C2452.84 144.454 2420.42 29.814 2695.6 29.814C2970.77 29.814 3309.17 155.318 3309.17 155.318" stroke="#B69AB4" stroke-width="9.28853"/>
<path d="M-1628.75 155.318C-1628.75 155.318 -1300.74 39.9363 -1008.42 29.814C-649.898 17.3994 -565.639 165.364 -213.47 144.962C45.2534 129.973 9.7909 40.2569 272.332 29.814C592.083 17.0956 630.476 156.736 950.849 144.962C1217.24 135.172 1179.33 31.5926 1448.69 29.814C1726.08 27.9825 1697.16 145.474 1974.65 144.962C2249.81 144.454 2217.39 29.814 2492.57 29.814C2767.74 29.814 3106.14 155.318 3106.14 155.318" stroke="#B69AB4" stroke-width="9.28853"/>
</g>
<defs>
<clipPath id="clip0_788_6012">
<rect width="2228" height="181" fill="white"/>
</clipPath>
</defs>
</svg>
