<svg width="495" height="435" viewBox="0 0 495 435" fill="none" xmlns="http://www.w3.org/2000/svg">
<path d="M30.1725 158.822C29.3684 158.757 30.0821 152.985 25.5815 147.918C24.8202 147.062 21.6831 143.534 17.23 143.058C10.0005 142.281 4.0342 150.043 3.36252 150.94C-3.70328 160.386 1.84463 171.059 6.53076 197.843C9.45043 214.53 10.5398 228.947 10.8148 232.8C11.1849 237.997 13.2631 268.94 22.3548 279.774C23.2969 280.891 24.4392 282.253 26.4698 283.191C33.3143 286.343 43.1088 283.191 43.1088 283.191C43.1088 283.191 44.9018 325.714 63.4453 362.014C79.3862 393.218 102.383 409.418 106.952 412.551C114.499 417.722 131.043 428.791 155.886 432.955C163.09 434.163 177.338 436.423 194.712 432.955C222.58 427.393 247.401 409.308 247.401 409.308C247.401 409.308 232.898 398.976 225.214 392.666C219.364 387.861 203.286 374.387 192.861 352.378C186.525 339.009 184.642 327.474 183.616 320.909C183.616 320.909 181.368 306.497 181.77 280.565C181.067 281.056 176.889 283.867 171.25 282.895C165.025 281.818 162.127 276.997 161.756 276.351C159.916 273.755 157.314 269.731 154.924 264.52C147.09 247.442 150.285 236.638 146.25 203.481C145.567 197.899 145.197 195.904 144.292 187.991C140.987 159.108 142.277 153.837 145.72 151.822C149.566 149.572 154.998 152.027 155.453 152.243C163.111 155.816 163.264 165.938 165.131 165.838C167.929 165.683 166.178 143.118 171.599 118.544C175.91 99.0157 183.283 84.8752 187.335 77.2232C194.855 63.0269 201.117 51.2109 214.123 39.7206C227.488 27.9097 247.401 16.9506 247.401 16.9506C247.295 16.9155 216.27 2.76442 196.558 1.18596C176.476 -0.422616 146.472 -2.82791 113.362 12.571C69.6648 32.8957 51.3544 69.9123 46.8062 80.0094C30.4686 116.269 32.3356 159.008 30.1671 158.833L30.1725 158.822Z" fill="#B69AB4"/>
<path d="M83.5876 207.791C83.2763 202.885 92.6876 198.42 98.6207 196.808C115.383 192.238 135.571 201.906 135.399 208.806C135.275 213.823 124.4 217.142 122.51 217.719C105.556 222.892 84.0495 215.012 83.593 207.791H83.5876Z" fill="white"/>
<path d="M464.624 158.822C465.428 158.757 464.715 152.985 469.215 147.918C469.977 147.062 473.114 143.534 477.567 143.058C484.796 142.281 490.763 150.043 491.434 150.94C498.5 160.386 492.952 171.059 488.266 197.843C485.346 214.53 484.257 228.947 483.982 232.8C483.612 237.997 481.534 268.94 472.442 279.774C471.5 280.891 470.358 282.253 468.327 283.191C461.483 286.343 451.688 283.191 451.688 283.191C451.688 283.191 449.895 325.714 431.352 362.014C415.411 393.218 392.414 409.418 387.845 412.551C380.298 417.722 363.754 428.791 338.911 432.955C331.707 434.163 317.459 436.423 300.085 432.955C272.217 427.393 247.396 409.308 247.396 409.308C247.396 409.308 261.899 398.976 269.583 392.666C275.432 387.861 291.511 374.387 301.936 352.378C308.272 339.009 310.155 327.474 311.181 320.909C311.181 320.909 313.429 306.497 313.027 280.565C313.73 281.056 317.908 283.867 323.547 282.895C329.772 281.818 332.67 276.997 333.04 276.351C334.881 273.755 337.483 269.731 339.873 264.52C347.707 247.442 344.512 236.638 348.547 203.481C349.23 197.899 349.6 195.904 350.505 187.991C353.81 159.108 352.52 153.837 349.076 151.822C345.231 149.572 339.799 152.027 339.344 152.243C331.686 155.816 331.533 165.938 329.666 165.838C326.868 165.683 328.618 143.118 323.198 118.544C318.887 99.0157 311.514 84.8752 307.462 77.2232C299.942 63.0269 293.68 51.2109 280.674 39.7206C267.309 27.9097 247.396 16.9506 247.396 16.9506C247.502 16.9155 278.527 2.76442 298.239 1.18596C318.321 -0.422616 348.325 -2.82791 381.434 12.571C425.132 32.8957 443.443 69.9123 447.991 80.0094C464.328 116.269 462.461 159.008 464.63 158.833L464.624 158.822Z" fill="#B69AB4"/>
<path d="M411.215 207.791C411.526 202.885 402.115 198.42 396.182 196.808C379.42 192.238 359.232 201.906 359.403 208.806C359.528 213.823 370.403 217.142 372.293 217.719C389.246 222.892 410.753 215.012 411.21 207.791H411.215Z" fill="white"/>
</svg>
