<svg width="463" height="479" viewBox="0 0 463 479" fill="none" xmlns="http://www.w3.org/2000/svg">
<path d="M249.792 249.23L392.216 346.428M244.228 259.325L277.367 430.363" stroke="white" stroke-width="2.52964"/>
<path d="M241.53 237.196L404.353 129.452M249.275 244.609L430.079 243.715" stroke="white" stroke-width="2.52964"/>
<path d="M230.858 239.794L185.435 45.2364M237.566 236.873L295.672 46.908" stroke="white" stroke-width="2.52964"/>
<path d="M166.117 430.685L202.52 345.23L238.923 259.775M67.2481 364.442L231.965 259.963M31.0729 232.583L226.18 253.83M73.7094 125.095L226.43 244.548" stroke="white" stroke-width="2.52964"/>
<path d="M200.824 42.7615C310.973 19.9709 413.814 89.4477 430.579 197.866C447.344 306.283 371.7 412.69 261.551 435.481C151.401 458.271 48.5603 388.795 31.7954 280.377C15.0304 171.959 90.6741 65.5521 200.824 42.7615Z" stroke="white" stroke-width="2.52964"/>
<path d="M209.147 85.3055C298.116 66.8971 381.173 123.015 394.713 210.572C408.252 298.13 347.163 384.074 258.193 402.482C169.223 420.891 86.1657 364.771 72.6265 277.214C59.0875 189.657 120.177 103.714 209.147 85.3055Z" stroke="white" stroke-width="2.52964"/>
<path d="M218.547 125.084C288.403 110.63 353.606 154.694 364.234 223.426C374.862 292.157 326.908 359.634 257.051 374.088C187.194 388.541 121.992 344.478 111.363 275.746C100.735 207.014 148.69 139.538 218.547 125.084Z" stroke="white" stroke-width="2.52964"/>
<path d="M223.417 158.696C275.711 147.877 324.506 180.862 332.459 232.295C340.412 283.727 304.528 334.235 252.235 345.055C199.941 355.874 151.145 322.888 143.192 271.455C135.239 220.023 171.124 169.516 223.417 158.696Z" stroke="white" stroke-width="2.52964"/>
<path d="M228.023 186.358C263.27 179.066 296.141 201.299 301.498 235.942C306.855 270.584 282.685 304.62 247.438 311.913C212.192 319.205 179.32 296.972 173.963 262.329C168.607 227.687 192.777 193.651 228.023 186.358Z" stroke="white" stroke-width="2.52964"/>
<path d="M231.549 209.865C253.623 205.298 274.189 219.224 277.54 240.892C280.891 262.56 265.773 283.869 243.699 288.437C221.625 293.004 201.058 279.078 197.708 257.409C194.357 235.741 209.476 214.433 231.549 209.865Z" stroke="white" stroke-width="2.52964"/>
<path d="M233.443 223.041C248.078 220.012 261.697 229.247 263.915 243.589C266.132 257.931 256.125 272.053 241.49 275.081C226.855 278.11 213.236 268.876 211.018 254.534C208.8 240.192 218.807 226.069 233.443 223.041Z" stroke="white" stroke-width="2.52964"/>
<path d="M235.531 236.807C242.467 235.372 248.894 239.75 249.939 246.509C250.984 253.267 246.268 259.951 239.332 261.386C232.396 262.821 225.969 258.443 224.924 251.684C223.879 244.926 228.595 238.242 235.531 236.807Z" stroke="white" stroke-width="2.52964"/>
</svg>
