<svg width="300" height="300" viewBox="0 0 300 300" fill="none" xmlns="http://www.w3.org/2000/svg">
<path d="M40.2249 120.141C39.8192 120.108 40.1793 117.196 37.9083 114.639C37.5242 114.207 35.9412 112.427 33.6942 112.186C30.0462 111.794 27.0356 115.711 26.6967 116.164C23.1313 120.93 25.9308 126.316 28.2954 139.831C29.7686 148.251 30.3183 155.525 30.4571 157.47C30.6439 160.092 31.6925 175.706 36.2801 181.173C36.7555 181.736 37.3319 182.424 38.3565 182.897C41.8102 184.487 46.7525 182.897 46.7525 182.897C46.7525 182.897 47.6573 204.354 57.0142 222.671C65.0579 238.416 76.6619 246.591 78.9675 248.171C82.7759 250.781 91.1239 256.366 103.659 258.467C107.294 259.077 114.484 260.217 123.251 258.467C137.313 255.661 149.837 246.535 149.837 246.535C149.837 246.535 142.52 241.321 138.642 238.138C135.69 235.713 127.577 228.914 122.317 217.808C119.12 211.062 118.17 205.242 117.652 201.929C117.652 201.929 116.518 194.657 116.72 181.572C116.365 181.82 114.257 183.238 111.412 182.748C108.271 182.204 106.809 179.772 106.622 179.446C105.693 178.135 104.38 176.105 103.174 173.476C99.2211 164.858 100.833 159.407 98.7969 142.675C98.4524 139.859 98.2657 138.852 97.8092 134.86C96.1413 120.285 96.7924 117.625 98.5299 116.609C100.47 115.473 103.211 116.712 103.441 116.821C107.305 118.624 107.382 123.732 108.324 123.681C109.736 123.603 108.853 112.217 111.588 99.8168C113.763 89.9629 117.484 82.8277 119.528 78.9665C123.323 71.8031 126.483 65.8408 133.045 60.0429C139.79 54.0831 149.837 48.5532 149.837 48.5532C149.784 48.5355 134.129 41.3949 124.182 40.5984C114.049 39.7867 98.9089 38.573 82.2022 46.3433C60.1526 56.599 50.9132 75.2775 48.6182 80.3724C40.3743 98.6687 41.3164 120.235 40.2222 120.146L40.2249 120.141Z" fill="#B69AB4"/>
<path d="M67.1776 144.85C67.0206 142.374 71.7695 140.121 74.7633 139.308C83.2215 137.002 93.4081 141.88 93.3217 145.362C93.2588 147.893 87.7712 149.568 86.8177 149.86C78.263 152.47 67.4107 148.494 67.1803 144.85H67.1776Z" fill="white"/>
<path d="M259.447 120.141C259.853 120.108 259.493 117.196 261.764 114.639C262.148 114.207 263.731 112.427 265.978 112.186C269.626 111.794 272.636 115.711 272.975 116.164C276.541 120.93 273.741 126.316 271.376 139.831C269.903 148.251 269.354 155.525 269.215 157.47C269.028 160.092 267.979 175.706 263.392 181.173C262.916 181.736 262.34 182.424 261.315 182.897C257.862 184.487 252.919 182.897 252.919 182.897C252.919 182.897 252.015 204.354 242.658 222.671C234.614 238.416 223.01 246.591 220.704 248.171C216.896 250.781 208.548 256.366 196.013 258.467C192.378 259.077 185.188 260.217 176.421 258.467C162.359 255.661 149.834 246.535 149.834 246.535C149.834 246.535 157.152 241.321 161.03 238.138C163.982 235.713 172.095 228.914 177.355 217.808C180.552 211.062 181.502 205.242 182.02 201.929C182.02 201.929 183.154 194.657 182.951 181.572C183.306 181.82 185.415 183.238 188.26 182.748C191.401 182.204 192.863 179.772 193.05 179.446C193.979 178.135 195.292 176.105 196.498 173.476C200.451 164.858 198.839 159.407 200.875 142.675C201.219 139.859 201.406 138.852 201.863 134.86C203.531 120.285 202.879 117.625 201.142 116.609C199.202 115.473 196.461 116.712 196.231 116.821C192.367 118.624 192.289 123.732 191.347 123.681C189.936 123.603 190.819 112.217 188.084 99.8168C185.909 89.9629 182.188 82.8277 180.144 78.9665C176.349 71.8031 173.189 65.8408 166.626 60.0429C159.882 54.0831 149.834 48.5532 149.834 48.5532C149.888 48.5355 165.543 41.3949 175.49 40.5984C185.623 39.7867 200.763 38.573 217.47 46.3433C239.519 56.599 248.759 75.2775 251.054 80.3724C259.298 98.6687 258.355 120.235 259.45 120.146L259.447 120.141Z" fill="#B69AB4"/>
<path d="M232.498 144.85C232.655 142.374 227.906 140.121 224.912 139.308C216.454 137.002 206.268 141.88 206.354 145.362C206.417 147.893 211.905 149.568 212.858 149.86C221.413 152.47 232.265 148.494 232.495 144.85H232.498Z" fill="white"/>
</svg>
