<svg width="284" height="395" viewBox="0 0 284 395" fill="none" xmlns="http://www.w3.org/2000/svg">
<path d="M107.319 238.2C105.17 237.428 103.077 236.602 101.039 235.776C99.496 235.114 97.7882 235.831 97.1271 237.373C96.466 238.916 97.1822 240.624 98.7247 241.285C100.928 242.221 103.132 243.103 105.391 243.874C117.07 248.006 124.948 259.244 124.948 271.971V393.557C126.932 393.888 128.915 394.163 130.898 394.384V271.971C130.898 256.765 121.422 243.213 107.374 238.255L107.319 238.2Z" fill="white"/>
<path d="M58.7808 67.6824C41.2617 87.7356 31.6758 113.408 31.6758 139.962C31.6758 177.039 50.1865 211.361 81.2581 231.855C81.7539 232.185 82.3599 232.35 82.9108 232.35C83.9024 232.35 84.839 231.91 85.3899 231.028C86.2714 229.651 85.9408 227.778 84.5635 226.896C55.1998 207.504 37.6807 175 37.6807 139.962C37.6807 114.841 46.7708 90.5453 63.3533 71.5938C64.4552 70.3818 64.2899 68.4536 63.0779 67.4068C61.8108 66.3601 59.9377 66.4704 58.8909 67.6824H58.7808Z" fill="white"/>
<path d="M73.1673 61.6868C89.86 47.0325 110.244 38.2728 132.225 36.2344C133.878 36.0691 135.09 34.6368 134.925 32.984C134.76 31.3313 133.382 30.1193 131.674 30.2846C108.426 32.3781 86.83 41.6886 69.2008 57.1692C67.9888 58.271 67.8235 60.1442 68.9253 61.3562C69.5313 62.0173 70.3577 62.3478 71.1841 62.3478C71.9002 62.3478 72.5613 62.1274 73.1673 61.6316V61.6868Z" fill="white"/>
<path d="M220.538 72.0947C221.144 72.7558 221.971 73.1415 222.797 73.1415C223.513 73.1415 224.174 72.9211 224.725 72.4252C225.992 71.3234 226.102 69.4504 225.056 68.2384C205.829 45.9815 179.33 32.484 150.462 30.2804C148.864 30.1702 147.377 31.3822 147.267 33.035C147.157 34.6877 148.369 36.12 150.021 36.2302C177.347 38.3237 202.413 51.105 220.593 72.1499L220.538 72.0947Z" fill="white"/>
<path d="M237.058 188.834C237.499 189.055 237.94 189.11 238.325 189.11C239.427 189.11 240.529 188.504 241.025 187.402C249.233 170.323 252.869 151.152 251.547 132.035C250.39 115.838 245.763 100.413 237.719 86.144C236.893 84.7117 235.075 84.2157 233.642 84.987C232.21 85.8134 231.714 87.6315 232.541 89.0639C240.143 102.506 244.551 117.105 245.597 132.421C246.864 150.491 243.449 168.616 235.681 184.758C234.965 186.245 235.571 188.008 237.058 188.724V188.834Z" fill="white"/>
<path d="M167.49 247.009C194.209 240.563 217.458 224.421 232.993 201.503C233.93 200.126 233.544 198.308 232.167 197.372C230.79 196.435 228.972 196.821 228.035 198.143C213.381 219.794 191.344 235.109 166.112 241.169C150.026 245.026 138.787 259.129 138.787 275.491V289.539C138.787 291.192 140.109 292.514 141.762 292.514C143.415 292.514 144.737 291.192 144.737 289.539V275.491C144.737 261.939 154.103 250.204 167.49 246.954V247.009Z" fill="white"/>
<path d="M141.762 303.479C140.109 303.479 138.787 304.801 138.787 306.453V394.875C139.779 394.875 140.77 394.985 141.762 394.93H142.258C143.084 394.93 143.911 394.93 144.737 394.875V306.453C144.737 304.801 143.415 303.479 141.762 303.479Z" fill="white"/>
<path d="M256.014 244.312C257.116 243.1 257.061 241.227 255.849 240.125C254.637 239.023 252.764 239.078 251.662 240.29C235.631 257.809 215.467 271.417 193.376 279.57C186.159 282.27 181.311 289.101 181.311 296.594V321.33C181.311 322.982 182.633 324.304 184.285 324.304C185.938 324.304 187.26 322.982 187.26 321.33V296.594C187.26 291.47 190.456 287.008 195.414 285.135C218.442 276.595 239.377 262.492 256.014 244.257V244.312Z" fill="white"/>
<path d="M84.6214 324.801C82.9687 324.801 81.6465 326.123 81.6465 327.776V376.146C83.6298 377.413 85.6131 378.625 87.5963 379.782V327.776C87.5963 326.123 86.2741 324.801 84.6214 324.801Z" fill="white"/>
<path d="M184.227 337.244C182.574 337.244 181.252 338.566 181.252 340.219V387.212C183.235 386.386 185.219 385.559 187.202 384.623V340.219C187.202 338.566 185.88 337.244 184.227 337.244Z" fill="white"/>
<path d="M78.3481 274.604C64.9058 268.213 52.4551 259.894 41.4369 249.812C40.2248 248.711 38.3517 248.766 37.2499 249.978C36.1481 251.19 36.2032 253.063 37.4152 254.165C48.8742 264.632 61.7656 273.281 75.7588 279.947C79.2847 281.6 81.5985 285.236 81.5985 289.148V307.438C81.5985 309.091 82.9207 310.413 84.5734 310.413C86.2262 310.413 87.5484 309.091 87.5484 307.438V289.148C87.5484 282.977 83.9123 277.248 78.293 274.604H78.3481Z" fill="white"/>
<path d="M283.942 189.992C283.942 188.009 283.887 186.081 283.832 184.152C279.204 198.917 272.373 213.02 263.172 225.967C262.236 227.289 262.511 229.162 263.889 230.099C265.211 231.035 267.084 230.76 268.02 229.382C274.411 220.403 279.645 210.872 283.887 201.01C283.887 200.239 283.887 199.523 283.887 198.752C283.887 197.264 283.887 195.832 283.887 194.344C283.887 192.857 283.887 191.425 283.887 189.937L283.942 189.992Z" fill="white"/>
<path d="M25.7828 240.839C26.4439 240.839 27.1601 240.619 27.711 240.123C28.9781 239.076 29.1434 237.203 28.0415 235.936C15.3705 220.951 6.00497 203.652 0.110185 185.252C0.110185 186.85 0 188.392 0 189.99C0 191.477 0 192.91 0 194.397C0 195.885 0 197.317 0 198.804C0 199.906 1.26217e-06 200.953 0.0550927 202.055C6.00496 215.607 13.7729 228.333 23.4689 239.792C24.0749 240.509 24.9013 240.839 25.7277 240.839H25.7828Z" fill="white"/>
<path d="M254.309 262.931C255.465 264.088 257.339 264.198 258.551 263.041C267.255 254.777 274.913 245.687 281.579 236.046C282.13 231.694 282.626 227.342 283.011 222.824C275.298 235.881 265.768 247.946 254.474 258.689C253.262 259.845 253.207 261.719 254.364 262.931H254.309Z" fill="white"/>
<path d="M65.1783 284.637C38.1284 270.258 16.2571 249.048 1.16211 223.816C1.54775 228.334 2.04356 232.741 2.64957 237.093C17.7997 258.744 38.0733 276.98 62.4237 289.926C65.3987 291.524 67.2718 294.664 67.2718 298.079V365.566C69.2551 367.219 71.2383 368.817 73.2216 370.359V298.079C73.2216 292.46 70.1365 287.282 65.2334 284.692L65.1783 284.637Z" fill="white"/>
<path d="M247.692 268.661C246.645 267.394 244.772 267.174 243.505 268.165C231.605 277.641 218.493 285.354 204.555 291.193C198.991 293.507 195.41 298.851 195.41 304.911V380.441C197.393 379.34 199.377 378.128 201.36 376.861V304.911C201.36 301.33 203.509 298.08 206.814 296.703C221.248 290.698 234.856 282.654 247.196 272.848C248.463 271.801 248.684 269.928 247.692 268.661Z" fill="white"/>
<path d="M226.754 331.299C225.101 331.299 223.779 332.621 223.779 334.274V359.285C225.818 357.357 227.801 355.374 229.729 353.28V334.274C229.729 332.621 228.407 331.299 226.754 331.299Z" fill="white"/>
<path d="M240.912 301.545C239.26 301.545 237.938 302.867 237.938 304.52V343.965C239.976 341.431 241.959 338.842 243.887 336.142V304.52C243.887 302.867 242.565 301.545 240.912 301.545Z" fill="white"/>
<path d="M255.077 292.512C253.424 292.512 252.102 293.834 252.102 295.487V323.693C254.195 320.278 256.178 316.697 258.051 313.006V295.487C258.051 293.834 256.729 292.512 255.077 292.512Z" fill="white"/>
<path d="M269.235 277.096C267.582 277.096 266.26 278.418 266.26 280.071V295.166C268.353 290.042 270.281 284.699 272.044 279.189C271.659 277.977 270.557 277.041 269.235 277.041V277.096Z" fill="white"/>
<path d="M100.491 251.58C62.5878 237.532 34.6014 205.634 25.6766 166.299C25.2909 164.701 23.6933 163.709 22.0956 164.04C20.498 164.426 19.5063 166.023 19.8369 167.621C29.2024 208.939 58.5661 242.435 98.3972 257.2C105.724 259.899 110.407 266.565 110.407 274.168V320.885C110.407 322.538 111.729 323.86 113.382 323.86C115.035 323.86 116.357 322.538 116.357 320.885V274.168C116.357 264.196 109.966 255.161 100.436 251.635L100.491 251.58Z" fill="white"/>
<path d="M113.444 337.254C111.791 337.254 110.469 338.577 110.469 340.229V389.977C112.452 390.638 114.435 391.189 116.419 391.685V340.174C116.419 338.521 115.096 337.199 113.444 337.199V337.254Z" fill="white"/>
<path d="M155.914 368.539C154.262 368.539 152.939 369.861 152.939 371.514V394.322C154.923 394.101 156.906 393.826 158.889 393.495V371.514C158.889 369.861 157.567 368.539 155.914 368.539Z" fill="white"/>
<path d="M235.356 222.719C236.458 221.507 236.348 219.579 235.081 218.532C233.869 217.43 231.941 217.54 230.894 218.807C214.697 237.098 193.652 249.824 170.073 255.608C159.991 258.087 152.939 266.902 152.939 277.039V350.751C152.939 352.404 154.262 353.726 155.914 353.726C157.567 353.726 158.889 352.404 158.889 350.751V277.039C158.889 269.657 164.068 263.211 171.45 261.393C196.241 255.333 218.278 241.946 235.301 222.719H235.356Z" fill="white"/>
<path d="M259.539 122.889C260.365 128.508 260.751 134.293 260.751 139.967C260.751 164.538 253.258 188.172 239.155 208.281C238.219 209.603 238.549 211.476 239.871 212.412C240.367 212.798 240.973 212.963 241.579 212.963C242.516 212.963 243.452 212.523 244.003 211.696C258.823 190.596 266.701 165.805 266.701 139.967C266.701 133.962 266.26 127.957 265.434 122.007C265.213 120.355 263.671 119.253 262.073 119.473C260.42 119.694 259.319 121.236 259.539 122.834V122.889Z" fill="white"/>
<path d="M203.953 31.6051C202.521 30.7787 200.703 31.2746 199.877 32.707C199.05 34.1393 199.546 35.9573 200.978 36.7837C227.808 52.2643 248.026 78.1574 256.345 107.797C256.731 109.119 257.888 109.945 259.21 109.945C259.485 109.945 259.761 109.945 260.036 109.835C261.634 109.394 262.571 107.741 262.075 106.144C253.315 75.0171 232.105 47.802 203.953 31.5501V31.6051Z" fill="white"/>
<path d="M62.6966 47.1426C63.3026 47.8587 64.129 48.2445 65.0104 48.2445C65.6715 48.2445 66.3326 48.0241 66.8836 47.5834C85.9452 32.1027 108.808 22.9574 133.048 21.2496C150.953 19.9825 168.472 22.6269 185 29.0726C186.542 29.6786 188.25 28.9073 188.856 27.3648C189.462 25.8222 188.691 24.1143 187.148 23.5083C169.794 16.7321 151.449 13.9225 132.608 15.2998C107.155 17.1178 83.1355 26.6485 63.0822 42.9556C61.8151 44.0023 61.5948 45.8755 62.6415 47.1426H62.6966Z" fill="white"/>
<path d="M20.0565 151.869C20.0565 151.869 20.2217 151.869 20.2768 151.869C21.9296 151.759 23.1416 150.327 23.0314 148.674C22.6458 143.44 22.5907 138.096 22.9212 132.753C24.574 104.876 36.1983 78.2672 55.7006 57.8283C56.8575 56.6163 56.8024 54.7432 55.5904 53.5863C54.3784 52.4294 52.5053 52.4844 51.3484 53.6964C30.8544 75.1821 18.6241 103.113 16.9163 132.367C16.5857 137.931 16.6408 143.55 17.0264 149.06C17.1366 150.657 18.4588 151.814 20.0014 151.814L20.0565 151.869Z" fill="white"/>
<path d="M90.1914 263.537C40.1684 242.602 7.82978 194.067 7.82978 139.912C7.82978 131.648 8.60106 123.55 10.0885 115.672C6.78305 127.241 4.24885 139.526 2.54102 152.528C7.16869 203.873 39.6175 248.772 87.9327 268.991C92.8909 271.084 96.0862 275.767 96.0862 280.946V384.187C98.0695 385.124 100.053 386.005 102.036 386.831V280.946C102.036 273.343 97.4084 266.512 90.2465 263.537H90.1914Z" fill="white"/>
<path d="M122.475 7.42176C124.127 7.20139 125.229 5.65875 125.009 4.0611C124.789 2.46345 123.301 1.30658 121.648 1.52694C104.901 3.95096 89.1444 9.40504 74.9308 17.228C61.3233 27.1995 48.6522 40.2562 37.7441 56.1776C58.4034 30.5602 88.2079 12.38 122.53 7.42176H122.475Z" fill="white"/>
<path d="M201.577 266.395C203.064 265.679 203.725 263.916 203.009 262.429C202.293 260.941 200.53 260.335 199.042 260.996C193.093 263.806 186.977 266.175 180.752 268.103C172.599 270.582 167.145 277.965 167.145 286.504V391.838C169.128 391.343 171.111 390.737 173.094 390.131V286.504C173.094 280.609 176.841 275.486 182.46 273.778C188.961 271.794 195.351 269.315 201.577 266.395Z" fill="white"/>
<path d="M213.646 252.901C212.268 253.783 211.828 255.656 212.764 257.033C213.315 257.914 214.307 258.41 215.298 258.41C215.849 258.41 216.4 258.245 216.896 257.969C254.634 233.839 277.992 193.898 281.243 150.211C279.259 135.942 276.174 122.5 272.208 109.994C273.585 115.834 274.632 121.729 275.183 127.844C279.645 177.922 256.066 225.851 213.701 252.956L213.646 252.901Z" fill="white"/>
<path d="M138.555 6.03895C142.962 5.92876 147.48 6.03893 151.997 6.36948C191.443 9.34441 226.481 30.0587 249.124 60.4141C238.105 43.3358 225.104 29.3426 211.111 18.6549C193.536 8.46301 173.593 2.01717 152.493 0.41952C147.755 0.0889718 143.018 -0.0761745 138.445 0.0340082C136.792 0.0340082 135.47 1.41122 135.525 3.06397C135.525 4.71671 136.902 6.09398 138.555 5.9838V6.03895Z" fill="white"/>
<path d="M53.0028 294.936C34.8226 284.468 18.9563 271.026 5.73438 255.49C6.61584 259.567 7.55238 263.589 8.59912 267.5C20.6641 280.116 34.4921 291.189 50.0278 300.114C51.7357 301.106 52.7824 302.924 52.7824 304.797V351.68C54.7106 353.828 56.749 355.867 58.7323 357.85V304.852C58.7323 300.83 56.5286 297.029 52.9477 294.991L53.0028 294.936Z" fill="white"/>
<path d="M216.126 302.375C212.159 304.193 209.625 308.159 209.625 312.456V371.239C211.608 369.751 213.647 368.209 215.575 366.611V312.511C215.575 310.528 216.787 308.71 218.66 307.829C220.423 307.002 222.076 306.066 223.783 305.239V316.919C223.783 318.571 225.106 319.894 226.758 319.894C228.411 319.894 229.733 318.571 229.733 316.919V302.209C246.977 292.844 262.347 281.109 275.459 267.502C276.506 263.535 277.498 259.458 278.324 255.271C261.741 274.884 240.752 291.081 216.126 302.43V302.375Z" fill="white"/>
<path d="M41.3714 301.49C39.7187 301.49 38.3965 302.812 38.3965 304.465V333.608C40.3247 336.418 42.308 339.118 44.3464 341.707V304.465C44.3464 302.812 43.0242 301.49 41.3714 301.49Z" fill="white"/>
<path d="M26.9398 288.273C25.287 288.273 23.9648 289.596 23.9648 291.248V309.098C25.838 312.954 27.8763 316.646 29.9147 320.227V291.248C29.9147 289.596 28.5925 288.273 26.9398 288.273Z" fill="white"/>
<path d="M12.5568 278.191C12.2814 278.191 12.0059 278.302 11.7305 278.357C12.9425 282.158 14.2096 285.959 15.5869 289.595V281.166C15.5869 279.514 14.2647 278.191 12.6119 278.191H12.5568Z" fill="white"/>
<path d="M141.752 235.107C145.113 235.107 148.528 234.942 151.889 234.556C153.542 234.391 154.699 232.904 154.533 231.306C154.368 229.653 152.936 228.496 151.283 228.662C142.028 229.598 132.717 229.157 123.792 227.339C84.0164 219.186 54.7629 185.14 52.6694 144.647C52.5593 142.995 51.2371 141.617 49.5292 141.838C47.8765 141.893 46.6094 143.325 46.7196 144.978C48.9783 188.225 80.1601 224.53 122.58 233.234C128.861 234.501 135.307 235.162 141.752 235.162V235.107Z" fill="white"/>
<path d="M168.369 231.201C168.644 231.201 168.92 231.201 169.25 231.09C209.082 219.025 236.903 181.563 236.903 139.969C236.903 87.4673 194.207 44.7715 141.76 44.7715C130.907 44.7715 120.274 46.5894 110.137 50.1703C108.595 50.7212 107.769 52.4291 108.319 53.9716C108.87 55.5142 110.578 56.3407 112.121 55.7898C121.652 52.4292 131.623 50.7213 141.76 50.7213C190.957 50.7213 230.953 90.7176 230.953 139.914C230.953 178.919 204.84 214.067 167.488 225.306C165.89 225.802 165.008 227.454 165.504 228.997C165.89 230.264 167.102 231.09 168.369 231.09V231.201Z" fill="white"/>
<path d="M50.0275 130.435C50.0275 130.435 50.303 130.435 50.4132 130.435C51.9006 130.435 53.1677 129.333 53.3881 127.846C57.1894 99.7491 74.433 74.903 99.5547 61.3506C100.987 60.5793 101.538 58.7612 100.767 57.3288C99.9954 55.8965 98.1774 55.3456 96.745 56.1168C69.9706 70.5508 51.5701 97.1048 47.5484 127.075C47.3281 128.727 48.485 130.215 50.0826 130.435H50.0275Z" fill="white"/>
<path d="M222.023 139.963C222.023 95.7251 185.993 59.6953 141.755 59.6953C97.5161 59.6953 61.4863 95.7251 61.4863 139.963C61.4863 162.551 71.1273 184.257 87.9302 199.462C89.1422 200.564 91.0153 200.454 92.1171 199.242C93.219 198.03 93.1088 196.157 91.8968 195.055C76.361 180.951 67.4362 160.898 67.4362 139.963C67.4362 98.9755 100.767 65.6453 141.755 65.6453C182.743 65.6453 216.073 98.9755 216.073 139.963C216.073 180.951 182.743 214.282 141.755 214.282C129.579 214.282 117.514 211.252 106.882 205.577C105.394 204.806 103.631 205.357 102.86 206.789C102.089 208.222 102.64 210.04 104.072 210.811C115.586 216.981 128.643 220.232 141.755 220.232C185.993 220.232 222.023 184.202 222.023 139.963Z" fill="white"/>
<path d="M185.885 179.686C184.783 180.898 184.893 182.771 186.105 183.873C186.656 184.369 187.372 184.644 188.089 184.644C188.915 184.644 189.686 184.314 190.292 183.653C201.145 171.643 207.095 156.107 207.095 139.91C207.095 123.713 201.311 108.729 190.843 96.8288C189.741 95.5617 187.868 95.4516 186.656 96.5534C185.444 97.6552 185.279 99.5284 186.381 100.74C195.912 111.593 201.145 125.476 201.145 139.91C201.145 154.344 195.691 168.723 185.83 179.631L185.885 179.686Z" fill="white"/>
<path d="M176.682 84.711C166.215 78.1 154.15 74.5742 141.754 74.5742C105.725 74.5742 76.416 103.883 76.416 139.912C76.416 175.942 105.725 205.251 141.754 205.251C153.875 205.251 165.719 201.89 176.021 195.555C177.399 194.673 177.839 192.855 177.013 191.478C176.131 190.101 174.313 189.66 172.881 190.486C163.516 196.271 152.773 199.301 141.754 199.301C109.03 199.301 82.3659 172.637 82.3659 139.912C82.3659 107.188 109.03 80.524 141.754 80.524C152.993 80.524 164.011 83.7194 173.487 89.7243C174.864 90.6058 176.737 90.2201 177.619 88.7877C178.5 87.4104 178.115 85.5373 176.682 84.6559V84.711Z" fill="white"/>
<path d="M141.752 89.5059C130.403 89.5059 119.22 93.4173 110.35 100.524C109.083 101.571 108.862 103.444 109.854 104.711C110.901 105.978 112.774 106.199 114.041 105.207C121.974 98.8714 131.56 95.5108 141.752 95.5108C166.268 95.5108 186.211 115.454 186.211 139.97C186.211 164.485 166.268 184.428 141.752 184.428C117.236 184.428 97.2932 164.485 97.2932 139.97C97.2932 131.045 99.9376 122.395 105.006 115.013C105.943 113.636 105.557 111.818 104.235 110.881C102.913 109.945 101.039 110.33 100.103 111.653C94.3734 120.026 91.3984 129.833 91.3984 139.97C91.3984 167.791 114.041 190.433 141.862 190.433C169.683 190.433 192.326 167.791 192.326 139.97C192.326 112.148 169.683 89.5059 141.862 89.5059H141.752Z" fill="white"/>
<path d="M155.201 172.861C168.588 167.352 177.292 154.461 177.292 139.971C177.292 120.359 161.371 104.438 141.759 104.438C122.146 104.438 106.225 120.359 106.225 139.971C106.225 157.821 119.612 173.026 137.296 175.23C137.406 175.23 137.572 175.23 137.682 175.23C139.169 175.23 140.436 174.128 140.657 172.641C140.877 170.988 139.72 169.5 138.067 169.335C123.303 167.462 112.23 154.901 112.23 139.971C112.23 123.664 125.507 110.387 141.814 110.387C158.121 110.387 171.398 123.664 171.398 139.971C171.398 152.036 164.181 162.779 152.997 167.352C151.455 167.958 150.738 169.721 151.344 171.263C151.95 172.806 153.713 173.522 155.256 172.916L155.201 172.861Z" fill="white"/>
<path d="M162.357 139.967C162.357 128.619 153.101 119.363 141.753 119.363C130.404 119.363 121.148 128.619 121.148 139.967C121.148 151.316 130.404 160.572 141.753 160.572C153.101 160.572 162.357 151.316 162.357 139.967ZM141.753 154.622C133.654 154.622 127.098 148.066 127.098 139.967C127.098 131.869 133.654 125.313 141.753 125.313C149.851 125.313 156.407 131.869 156.407 139.967C156.407 148.066 149.851 154.622 141.753 154.622Z" fill="white"/>
<path d="M141.747 135.619C139.323 135.619 137.395 137.547 137.395 139.971C137.395 142.395 139.323 144.324 141.747 144.324C144.171 144.324 146.099 142.395 146.099 139.971C146.099 137.547 144.171 135.619 141.747 135.619Z" fill="white"/>
<path d="M139.824 250.038C138.998 247.063 134.645 241.113 131.946 239.24C130.569 238.303 128.751 238.634 127.814 240.011C126.878 241.388 127.208 243.206 128.585 244.143C130.238 245.3 133.709 250.093 134.15 251.635C134.535 252.958 135.692 253.784 137.014 253.784C137.29 253.784 137.565 253.784 137.841 253.674C139.438 253.233 140.375 251.58 139.934 249.983L139.824 250.038Z" fill="white"/>
</svg>
