<svg width="283" height="401" viewBox="0 0 283 401" fill="none" xmlns="http://www.w3.org/2000/svg">
<path d="M105.465 258.524C118.62 258.524 131.831 254.12 142.455 245.259C143.721 244.213 143.886 242.342 142.84 241.076C141.794 239.81 139.923 239.645 138.657 240.691C118.235 257.753 87.4652 256.322 68.64 237.498L1.21059 170.074C0.990415 172.661 0.770245 175.303 0.660156 177.945L64.4566 241.736C75.6307 252.909 90.5477 258.579 105.52 258.579L105.465 258.524Z" fill="white"/>
<path d="M150.051 233.094C150.546 233.424 151.152 233.589 151.702 233.589C152.693 233.589 153.629 233.094 154.179 232.268C167.72 211.959 167.004 185.154 152.418 165.615C151.427 164.294 149.555 164.019 148.234 165.01C146.913 166 146.638 167.871 147.629 169.192C160.674 186.75 161.335 210.803 149.225 229.021C148.289 230.397 148.675 232.268 150.051 233.149V233.094Z" fill="white"/>
<path d="M133.427 57.1869C134.583 56.0311 134.583 54.1598 133.427 52.9489C132.271 51.7931 130.399 51.7931 129.188 52.9489L94.8407 87.2938C87.0244 95.1095 87.0244 107.769 94.8407 115.584L132.216 152.957C132.821 153.562 133.537 153.837 134.308 153.837C135.078 153.837 135.849 153.562 136.399 152.957C137.555 151.801 137.555 149.929 136.399 148.718L99.0241 111.346C93.5197 105.842 93.5197 96.9809 99.0241 91.4769L133.372 57.132L133.427 57.1869Z" fill="white"/>
<path d="M143.006 43.4271C144.162 44.583 146.088 44.583 147.244 43.4271L182.362 8.31175C180.326 7.48615 178.289 6.71552 176.252 6L143.006 39.2442C141.85 40.4 141.85 42.2713 143.006 43.4822V43.4271Z" fill="white"/>
<path d="M105.411 105.071L153.189 152.846C165.794 165.45 172.73 182.237 172.73 200.125C172.73 218.013 165.795 234.801 153.134 247.405L152.584 247.955C126.493 274.044 84.0535 274.044 58.0175 247.955L25.4862 215.426C24.3303 214.27 22.4588 214.27 21.2478 215.426C20.0919 216.582 20.0919 218.454 21.2478 219.665L53.7791 252.193C82.182 280.594 128.364 280.594 156.822 252.193L157.373 251.643C171.134 237.883 178.675 219.609 178.675 200.125C178.675 180.641 171.134 162.368 157.373 148.608L110.145 101.383L196.344 15.191C194.528 14.1452 192.711 13.1544 190.895 12.2188L105.356 97.751C103.374 99.7324 103.374 102.98 105.356 104.961L105.411 105.071Z" fill="white"/>
<path d="M8.69703 205.794C9.46765 205.794 10.2383 205.519 10.7887 204.914C11.9446 203.758 11.9446 201.887 10.7887 200.676L0.11007 189.998C0.11007 191.979 0 193.906 0 195.942C0 196.713 0 197.539 0 198.309L6.5503 204.859C7.15579 205.464 7.87135 205.74 8.64198 205.74L8.69703 205.794Z" fill="white"/>
<path d="M72.2742 281.969C73.8155 282.575 75.5219 281.859 76.1824 280.318C76.7879 278.777 76.0723 277.071 74.5311 276.41C64.4029 272.282 55.3206 266.283 47.5593 258.522L0.166016 211.133C0.22106 214.05 0.331166 216.967 0.441255 219.884L43.3209 262.76C51.6326 271.071 61.3754 277.566 72.2742 281.969Z" fill="white"/>
<path d="M136.125 92.4121C137.281 93.5679 139.152 93.5679 140.363 92.4121L209.169 23.6121C207.517 22.4012 205.921 21.2453 204.215 20.1445L136.125 88.229C134.969 89.3848 134.969 91.2561 136.125 92.467V92.4121Z" fill="white"/>
<path d="M105.244 288.41C128.363 288.41 150.931 279.274 167.444 262.762L167.995 262.211C202.232 228.031 202.232 172.331 167.995 138.151L138.876 109.035C137.72 107.879 135.849 107.879 134.638 109.035C133.482 110.191 133.482 112.062 134.638 113.273L163.756 142.389C179.169 157.8 187.646 178.33 187.646 200.236C187.646 222.142 179.169 242.617 163.756 258.028L163.206 258.579C145.041 276.742 118.895 285.383 93.3545 281.585C91.6481 281.365 90.2169 282.466 89.9967 284.117C89.7766 285.768 90.8774 287.254 92.5288 287.475C96.7672 288.08 101.061 288.41 105.299 288.41H105.244Z" fill="white"/>
<path d="M46.6228 284.887C47.9439 285.823 49.8154 285.493 50.7511 284.172C51.6869 282.851 51.3566 280.979 50.0355 280.044C45.4118 276.796 41.0633 273.164 37.0451 269.146L1.48633 233.59C1.81659 236.837 2.14689 239.974 2.58724 243.112L32.8066 273.329C37.0451 277.567 41.7238 281.475 46.6228 284.887Z" fill="white"/>
<path d="M146.033 103.586L174.27 131.822C192.49 150.04 202.563 174.312 202.563 200.181C202.563 226.05 192.545 250.323 174.27 268.541L173.72 269.091C144.877 297.932 100.676 305.528 63.7411 288.025C62.2549 287.309 60.4935 287.97 59.7779 289.456C59.0623 290.942 59.7228 292.703 61.209 293.419C100.401 312.022 147.298 303.987 177.958 273.329L178.509 272.779C197.884 253.405 208.508 227.646 208.508 200.236C208.508 172.826 197.829 147.013 178.509 127.639L152.363 101.495L220.728 33.1348C219.242 31.8138 217.755 30.4378 216.269 29.1719L146.033 99.403C144.877 100.559 144.877 102.43 146.033 103.641V103.586Z" fill="white"/>
<path d="M179.554 91.1466C180.71 92.3024 182.582 92.3024 183.793 91.1466L231.296 43.647C229.975 42.161 228.599 40.6748 227.223 39.2988L179.554 86.9635C178.399 88.1193 178.399 89.9908 179.554 91.2017V91.1466Z" fill="white"/>
<path d="M186.656 285.602C187.812 284.446 187.867 282.575 186.767 281.419C185.611 280.208 183.739 280.208 182.528 281.309C139.043 322.974 69.0265 322.203 26.4771 279.602L5.00977 258.137C5.72534 261.769 6.496 265.347 7.32166 268.87L22.2387 283.785C67.0999 328.643 140.859 329.469 186.656 285.547V285.602Z" fill="white"/>
<path d="M170.582 102.814C169.426 103.97 169.426 105.841 170.582 107.052L184.838 121.308C223.149 159.616 228.434 219.664 197.444 264.026C196.508 265.402 196.838 267.219 198.159 268.154C198.654 268.54 199.26 268.705 199.865 268.705C200.801 268.705 201.737 268.264 202.287 267.439C234.929 220.655 229.369 157.414 189.022 117.069L174.765 102.814C173.609 101.658 171.738 101.658 170.527 102.814H170.582Z" fill="white"/>
<path d="M199.041 294.353L199.591 293.803C251.223 242.175 251.223 158.184 199.591 106.557L194.527 101.493L240.875 55.1494C239.664 53.5532 238.453 51.9571 237.187 50.416L188.197 99.4016C187.647 99.952 187.316 100.723 187.316 101.493C187.316 102.264 187.647 103.034 188.197 103.585L195.408 110.74C244.728 160.056 244.728 240.304 195.408 289.565L194.857 290.115C171.023 313.947 139.263 327.102 105.41 327.102C71.5579 327.102 39.8523 313.947 15.963 290.115L12.3301 286.482C13.7612 290.831 15.3025 295.069 16.9538 299.252C41.2284 321.103 72.3836 333.046 105.41 333.046C140.804 333.046 174.106 319.286 199.041 294.298V294.353Z" fill="white"/>
<path d="M209.555 304.867L210.105 304.317C226.674 287.75 239.169 267.275 246.215 245.094C246.71 243.553 245.829 241.846 244.288 241.351C242.692 240.856 241.04 241.736 240.545 243.278C233.664 264.853 221.995 284.007 205.867 300.134L205.317 300.684C155.997 350 80.3106 355.669 24.8809 317.031C26.7524 320.774 28.734 324.406 30.8257 327.929C87.5215 361.448 160.896 353.578 209.555 304.922V304.867Z" fill="white"/>
<path d="M209.114 103.531C238.563 134.959 251.939 177.56 245.774 220.436C245.554 222.087 246.654 223.573 248.306 223.793C249.902 223.958 251.443 222.913 251.664 221.262C257.939 177.56 244.728 134.078 215.389 101.55L249.462 67.4798C248.361 65.7735 247.26 64.0672 246.104 62.416L209.114 99.3478C207.958 100.504 207.958 102.32 209.059 103.476L209.114 103.531Z" fill="white"/>
<path d="M115.098 362.933C116.749 362.823 118.015 361.447 117.905 359.796C117.795 358.144 116.419 356.823 114.768 356.989C89.2271 358.53 63.9067 353.686 40.9531 343.229C43.4301 346.586 46.0172 349.778 48.6043 352.861C69.6863 360.841 92.3096 364.364 115.153 362.933H115.098Z" fill="white"/>
<path d="M240.599 93.2927C241.755 94.4485 243.627 94.4485 244.838 93.2927L257.333 80.7985C256.342 78.9272 255.351 77.1659 254.305 75.3496L240.599 89.0545C239.443 90.2104 239.443 92.0818 240.599 93.2927Z" fill="white"/>
<path d="M236.14 103.31C235.149 101.989 233.278 101.714 231.957 102.705C230.636 103.696 230.361 105.567 231.351 106.888C278.194 169.468 271.919 255.166 216.434 310.646L215.884 311.196C194.031 333.047 166.674 347.908 136.785 354.072C135.189 354.403 134.143 355.999 134.473 357.595C134.748 359.026 136.014 359.962 137.39 359.962C137.611 359.962 137.776 359.962 137.996 359.907C169.041 353.522 197.444 338.111 220.122 315.434L220.673 314.884C278.304 257.257 284.799 168.312 236.14 103.365V103.31Z" fill="white"/>
<path d="M248.637 105.512C290.195 167.817 285.736 251.698 237.683 309.49C236.637 310.756 236.802 312.628 238.068 313.673C239.334 314.719 241.206 314.554 242.251 313.288C291.461 254.12 296.525 168.533 254.912 104.246L264.104 95.0545C263.278 93.0731 262.343 91.2018 261.462 89.2754L248.967 101.769C247.976 102.76 247.811 104.356 248.581 105.512H248.637Z" fill="white"/>
<path d="M226.399 330.019C227.61 328.918 227.665 326.992 226.509 325.836C225.408 324.625 223.481 324.57 222.325 325.726C178.015 367.281 117.08 381.372 61.3203 366.346C64.5129 369.318 67.7605 372.07 71.1182 374.657C125.612 385.5 183.519 370.198 226.399 330.019Z" fill="white"/>
<path d="M236.967 332.276C201.848 367.391 155.005 386.765 105.08 386.765C99.3005 386.765 93.5758 386.38 87.9062 385.884C92.4199 388.471 97.0436 390.728 101.722 392.654C102.878 392.654 103.979 392.764 105.135 392.764C156.657 392.764 204.986 372.785 241.26 336.514L241.811 335.963C248.416 329.358 254.416 322.313 259.92 314.993C264.709 305.251 268.892 294.738 272.415 283.455C263.663 300.958 252.049 317.305 237.627 331.725L237.077 332.276H236.967Z" fill="white"/>
<path d="M271.754 115.583C270.488 111.676 269.222 107.823 267.79 104.08C266.965 105.016 266.745 106.447 267.405 107.548C268.946 110.19 270.378 112.886 271.754 115.583Z" fill="white"/>
<path d="M141.574 400.747H142.069C172.674 401.022 204.875 385.941 230.856 357.65C201.792 380.987 167.169 395.573 130.234 400.141C134.032 400.582 137.775 400.802 141.574 400.747Z" fill="white"/>
<path d="M105.355 227.37C112.455 227.37 119.171 224.618 124.18 219.554L124.73 219.004C135.134 208.602 135.134 191.704 124.73 181.302L76.8967 133.472C59.2274 115.804 59.2274 87.0183 76.8967 69.3504L146.143 0.11002C144.766 0.11002 143.39 0 142.014 0H141.519C140.253 0 138.987 -6.04663e-05 137.776 0.11002L72.7133 65.1673C52.7322 85.1469 52.7322 117.675 72.7133 137.71L120.547 185.54C128.638 193.631 128.638 206.73 120.547 214.821L119.996 215.372C112.18 223.187 98.5292 223.187 90.7129 215.372L7.32053 131.931C6.77009 134.188 6.2747 136.499 5.7793 138.811L86.5295 219.554C91.5385 224.563 98.254 227.37 105.41 227.37H105.355Z" fill="white"/>
<path d="M109.483 204.859C107.226 207.116 103.538 207.116 101.281 204.859L80.3093 183.889C79.1534 182.733 77.2819 182.733 76.0709 183.889C74.915 185.045 74.915 186.916 76.0709 188.127L97.0428 209.097C99.2446 211.299 102.217 212.565 105.355 212.565C108.492 212.565 111.465 211.354 113.666 209.097L114.217 208.547C116.418 206.345 117.685 203.373 117.685 200.236C117.685 197.098 116.474 194.126 114.217 191.925L66.3831 144.095C45.4662 123.18 42.9342 89.4952 60.5484 65.7179C61.5392 64.397 61.264 62.5256 59.9429 61.5348C58.6218 60.5441 56.7503 60.8194 55.7595 62.1404C36.4389 88.2293 39.2462 125.271 62.1997 148.278L110.033 196.108C111.134 197.209 111.74 198.64 111.74 200.236C111.74 201.832 111.134 203.263 110.033 204.364L109.483 204.914V204.859Z" fill="white"/>
<path d="M67.9802 53.1128C69.1362 54.2687 71.0077 54.2687 72.2187 53.1128L123.685 1.65039C119.997 2.31087 116.309 3.24661 112.566 4.29237L67.9802 48.8748C66.8243 50.0306 66.8243 51.9019 67.9802 53.1128Z" fill="white"/>
<path d="M63.9618 174.753C64.7325 174.753 65.5031 174.477 66.0535 173.872C67.2095 172.716 67.2095 170.845 66.0535 169.634L11.8898 115.475C11.2292 117.621 10.5137 119.713 9.9082 121.914L61.8151 173.817C62.3656 174.422 63.1362 174.698 63.9068 174.698L63.9618 174.753Z" fill="white"/>
<path d="M33.246 122.85C34.7872 122.685 36.2734 121.529 36.2734 119.878C36.2734 119.383 36.1633 118.887 35.8881 118.447C29.9983 92.9634 37.4293 66.8194 55.9243 48.326L91.2628 12.9902C80.7493 18.5493 70.6211 25.8146 61.0985 34.7311L54.4931 41.336C49.4841 46.6749 44.6402 52.4539 40.1265 58.7285C30.4387 74.2497 26.3654 92.6332 28.5672 111.072L17.5583 100.064C16.7327 102.045 15.962 104.082 15.1914 106.118L31.0442 121.97C31.6497 122.575 32.3653 122.905 33.1909 122.85H33.246Z" fill="white"/>
<path d="M105.356 243.002C116.2 243.002 127.043 238.874 135.3 230.618L135.85 230.067C143.832 222.087 148.235 211.464 148.235 200.181C148.235 188.898 143.832 178.275 135.85 170.294L88.0719 122.464C82.4574 116.85 79.3749 109.42 79.3749 101.494C79.3749 93.5683 82.4574 86.0829 88.0719 80.5239L165.685 2.91742C163.373 2.36702 161.006 1.87161 158.694 1.48633L83.8885 76.2857C69.9623 90.2108 69.9623 112.777 83.8885 126.702L131.667 174.532C138.548 181.412 142.291 190.549 142.291 200.236C142.291 209.923 138.493 219.059 131.612 225.939L131.062 226.49C116.915 240.635 93.8516 240.635 79.6501 226.49L3.63371 150.425C3.2484 152.846 2.91816 155.323 2.58789 157.8L75.4667 230.673C83.7234 238.929 94.5672 243.057 105.356 243.057V243.002Z" fill="white"/>
</svg>
