<svg width="284" height="394" viewBox="0 0 284 394" fill="none" xmlns="http://www.w3.org/2000/svg">
<path d="M138.162 134.561C136.676 135.276 136.015 137.037 136.731 138.524L168.822 206.278C169.317 207.379 170.418 207.984 171.519 207.984C171.959 207.984 172.4 207.874 172.785 207.709C174.271 206.993 174.932 205.232 174.216 203.746L142.125 135.992C141.41 134.506 139.648 133.9 138.162 134.561Z" fill="white"/>
<path d="M41.7787 153.384C40.2925 152.669 38.531 153.274 37.7604 154.76L28.9533 172.593C11.9445 119.645 34.7881 61.4125 84.1079 34.7731C85.5391 34.0025 86.0895 32.1862 85.3189 30.7551C84.5483 29.3241 82.7317 28.7737 81.3006 29.5442C27.6323 58.4953 3.74295 123.002 25.2103 180.134L11.4492 207.874L7.59599 199.728C4.62359 193.453 2.20177 187.069 0.165127 180.629C0.110082 183.326 0 186.023 0 188.775C0 190.261 0 191.692 0 193.178C0 194.554 0 195.93 0 197.306C0.715578 198.957 1.43112 200.609 2.20174 202.26L8.09137 214.644L3.02738 224.826L0.880563 220.258C1.10074 222.79 1.32095 225.211 1.59617 227.688C1.98148 231.321 2.42195 234.899 2.91735 238.421L43.0997 157.292C43.8153 155.806 43.2098 154.045 41.7236 153.274L41.7787 153.384Z" fill="white"/>
<path d="M169.482 9.56542C208.453 18.9222 240.654 45.0112 257.828 81.1725L273.736 114.692C263.883 80.3469 247.37 52.5517 227.499 32.297C211.371 18.7021 192.105 8.84997 170.913 3.78629C169.317 3.40101 167.72 4.39169 167.335 5.98785C166.95 7.58401 167.941 9.18014 169.537 9.56542H169.482Z" fill="white"/>
<path d="M13.6513 186.352C13.9816 186.352 14.3118 186.297 14.6971 186.187C16.2384 185.637 17.0091 183.931 16.4586 182.39C7.6515 158.447 6.44044 133.294 11.5596 109.682C7.81655 121.57 4.89921 134.34 2.97266 147.879C3.90841 160.153 6.44047 172.482 10.8991 184.481C11.3394 185.692 12.4954 186.407 13.7064 186.407L13.6513 186.352Z" fill="white"/>
<path d="M83.1729 18.5361C104.86 8.24363 128.915 4.1707 152.694 6.70254C154.29 6.86766 155.777 5.71176 155.997 4.06056C156.162 2.40936 155.006 0.978453 153.355 0.758293C128.419 -1.88363 103.319 2.40949 80.6409 13.1423C78.7694 14.0229 76.9529 14.9586 75.1364 15.8943C61.8707 25.5263 49.4856 38.1304 38.752 53.4865C50.5865 39.0661 65.5036 26.9022 83.1729 18.5361Z" fill="white"/>
<path d="M228.764 54.0373C227.663 52.8265 225.736 52.7714 224.58 53.8722C223.369 54.973 223.314 56.8993 224.415 58.0552C232.507 66.7515 239.222 76.7138 244.396 87.5567L276.487 155.311C279.239 161.145 281.496 167.2 283.258 173.419C282.872 165.879 282.212 158.613 281.276 151.513L249.791 85.0249C244.396 73.6316 237.296 63.174 228.819 54.0373H228.764Z" fill="white"/>
<path d="M101.777 27.0123C138.382 14.5182 178.784 21.178 209.774 44.8452C210.325 45.2305 210.93 45.4507 211.591 45.4507C212.471 45.4507 213.352 45.0653 213.958 44.2948C214.949 42.9738 214.728 41.1026 213.407 40.1119C180.821 15.2338 138.382 8.24373 99.9057 21.3983C98.3645 21.9487 97.5388 23.5999 98.0342 25.1961C98.5847 26.7372 100.291 27.5628 101.832 27.0674L101.777 27.0123Z" fill="white"/>
<path d="M268.397 159.164L251.498 123.498C250.783 122.012 248.966 121.406 247.535 122.067C246.049 122.782 245.388 124.543 246.104 126.029L263.003 161.695C271.59 179.859 274.562 199.728 271.7 219.487L263.443 213.818C264.049 207.324 263.994 200.719 263.168 194.169C262.948 192.518 261.406 191.307 259.865 191.582C258.214 191.802 257.058 193.233 257.278 194.884C259.15 210.626 256.728 226.587 250.177 241.118C249.517 242.604 250.177 244.365 251.663 245.081C252.049 245.246 252.489 245.356 252.874 245.356C254.03 245.356 255.076 244.696 255.572 243.595C258.929 236.165 261.241 228.404 262.562 220.478L272.25 227.138H272.305L281.388 233.468C281.663 231.266 281.883 229.009 282.103 226.753L277.094 223.285C280.837 201.434 277.81 179.308 268.287 159.164H268.397Z" fill="white"/>
<path d="M236.252 91.41C221.885 61.0829 194.803 39.5071 161.942 32.2969C160.345 31.9116 158.749 32.9574 158.419 34.5535C158.089 36.1497 159.079 37.7459 160.676 38.0762C191.721 44.9011 217.316 65.2659 230.857 93.8867L239.664 112.435C240.16 113.536 241.261 114.141 242.362 114.141C242.802 114.141 243.242 114.031 243.628 113.866C245.114 113.151 245.774 111.389 245.059 109.903L236.252 91.3549V91.41Z" fill="white"/>
<path d="M32.256 140.89C32.3111 142.486 33.6322 143.752 35.2285 143.752H35.3385C36.9898 143.697 38.2558 142.321 38.2007 140.67C36.7696 100.105 59.3929 62.7333 95.8874 45.4508C111.19 38.2405 128.143 34.9381 144.932 35.9288C146.418 36.0939 147.959 34.7729 148.07 33.1217C148.18 31.4705 146.914 30.0946 145.262 29.9845C127.483 28.8837 109.483 32.4062 93.3003 40.0568C54.6591 58.3851 30.6597 97.9589 32.2009 140.89H32.256Z" fill="white"/>
<path d="M83.1714 87.9963C81.9054 86.9506 80.0338 87.1708 78.988 88.4367C64.8416 106.16 59.172 129.056 63.3554 151.292C63.6306 152.723 64.8966 153.714 66.2727 153.714C66.4379 153.714 66.6581 153.714 66.8232 153.714C68.4195 153.384 69.5203 151.843 69.1901 150.247C65.337 129.662 70.6213 108.526 83.6668 92.1794C84.7126 90.9135 84.4925 89.0421 83.2265 87.9963H83.1714Z" fill="white"/>
<path d="M172.289 282.618C180.986 282.618 189.738 281.131 198.215 278.049C199.757 277.499 200.582 275.793 199.977 274.252C199.426 272.71 197.72 271.885 196.179 272.49C161.941 284.984 122.749 268.803 107.007 235.613L75.9065 169.951C75.1909 168.465 73.3745 167.859 71.9433 168.52C70.4571 169.235 69.7967 170.996 70.5123 172.483L101.612 238.145C114.768 265.885 143.006 282.618 172.289 282.618Z" fill="white"/>
<path d="M210.215 271.996C210.711 271.996 211.261 271.831 211.756 271.556C245.829 250.916 258.599 208.095 241.425 171.878L209.335 104.124C205.977 97.024 201.628 90.5293 196.344 84.8051C195.243 83.5942 193.317 83.4842 192.161 84.64C190.95 85.7408 190.84 87.6672 191.996 88.8231C196.839 94.1069 200.858 100.106 203.995 106.656L236.086 174.41C251.939 207.875 240.159 247.393 208.729 266.437C207.298 267.263 206.858 269.134 207.738 270.51C208.289 271.446 209.28 271.941 210.27 271.941L210.215 271.996Z" fill="white"/>
<path d="M88.8974 78.1452C87.6313 79.191 87.5213 81.1172 88.5671 82.3281C89.1726 82.9886 89.9983 83.3739 90.8239 83.3739C91.4845 83.3739 92.1999 83.1537 92.7504 82.6583C97.5392 78.5303 102.879 75.0629 108.603 72.3659C130.181 62.1285 155.446 63.4495 176.088 75.8885C176.583 76.1637 177.079 76.3288 177.629 76.3288C178.62 76.3288 179.611 75.8335 180.161 74.8979C180.987 73.4668 180.546 71.6504 179.17 70.8248C156.822 57.34 129.52 55.9089 106.071 67.027C99.8512 69.9992 94.0715 73.7419 88.8423 78.2001L88.8974 78.1452Z" fill="white"/>
<path d="M111.465 87.7218C112.896 86.8962 113.392 85.08 112.621 83.6489C111.795 82.2179 110.034 81.7225 108.547 82.5481C81.7959 97.629 70.0165 130.763 81.1355 159.604C81.5758 160.76 82.7317 161.531 83.8877 161.531C84.2179 161.531 84.6033 161.475 84.9335 161.31C86.4748 160.705 87.2454 158.999 86.6399 157.458C76.6218 131.369 87.2454 101.372 111.465 87.7218Z" fill="white"/>
<path d="M115.098 231.761C118.4 238.751 122.914 245.026 128.474 250.365C129.024 250.915 129.795 251.19 130.51 251.19C131.226 251.19 132.051 250.86 132.657 250.255C133.813 249.044 133.758 247.172 132.547 246.016C127.538 241.228 123.465 235.559 120.437 229.229L93.7406 172.923C93.0251 171.437 91.2086 170.832 89.7774 171.492C88.2912 172.208 87.6306 173.969 88.3462 175.455L115.043 231.761H115.098Z" fill="white"/>
<path d="M216.05 245.136C214.894 243.981 213.023 243.981 211.812 245.136C207.188 249.815 201.849 253.613 195.904 256.42C180.436 263.74 162.657 263.63 147.134 256.089C145.648 255.374 143.887 255.979 143.171 257.465C142.456 258.951 143.061 260.713 144.547 261.428C153.244 265.666 162.602 267.758 171.904 267.758C181.207 267.758 190.014 265.776 198.436 261.758C205.041 258.621 210.931 254.438 216.05 249.264C217.206 248.109 217.206 246.182 216.05 245.026V245.136Z" fill="white"/>
<path d="M220.839 238.971C221.334 239.247 221.829 239.412 222.38 239.412C223.371 239.412 224.361 238.916 224.912 237.981C235.921 219.817 237.077 197.526 227.939 178.317L212.362 145.458C211.646 143.972 209.83 143.367 208.399 144.027C206.912 144.743 206.252 146.504 206.967 147.99L222.545 180.849C230.802 198.242 229.756 218.441 219.793 234.898C218.912 236.274 219.407 238.146 220.784 238.971H220.839Z" fill="white"/>
<path d="M195.903 110.508C183.573 84.5292 155.445 70.1637 127.373 75.5576C125.777 75.8878 124.676 77.429 125.006 79.0252C125.336 80.6213 126.877 81.667 128.474 81.3918C153.849 76.5483 179.335 89.5378 190.509 113.04L199.206 131.313C199.701 132.414 200.802 133.019 201.903 133.019C202.343 133.019 202.784 132.909 203.169 132.744C204.655 132.029 205.316 130.267 204.6 128.781L195.958 110.508H195.903Z" fill="white"/>
<path d="M155.666 250.035C160.95 251.961 166.454 252.897 171.959 252.897C178.839 252.897 185.72 251.356 192.105 248.328C194.967 246.952 197.72 245.301 200.197 243.43C201.518 242.439 201.793 240.568 200.802 239.247C199.811 237.926 197.94 237.651 196.619 238.642C194.417 240.293 192.05 241.724 189.518 242.88C179.5 247.613 168.216 248.163 157.647 244.366C147.134 240.568 138.712 232.862 133.868 222.735L119.336 192.078C118.621 190.591 116.804 189.986 115.373 190.647C113.887 191.362 113.226 193.123 113.942 194.609L128.474 225.267C133.978 236.825 143.556 245.576 155.611 249.925L155.666 250.035Z" fill="white"/>
<path d="M174.105 104.674C173.005 103.463 171.133 103.408 169.922 104.509C168.711 105.61 168.656 107.536 169.757 108.692C172.729 111.884 175.151 115.462 177.023 119.425L209.114 187.179C215.224 200.114 214.453 215.139 206.967 227.303C206.086 228.679 206.527 230.551 207.958 231.376C208.453 231.651 209.004 231.816 209.499 231.816C210.49 231.816 211.481 231.321 212.031 230.386C220.563 216.46 221.499 199.398 214.453 184.592L182.362 116.838C180.215 112.325 177.408 108.197 174.051 104.619L174.105 104.674Z" fill="white"/>
<path d="M156.27 92.621C143.995 87.8876 130.73 88.3278 118.895 93.9419C107.446 99.3909 98.749 109.023 94.5105 121.077C90.2721 133.13 90.9327 146.12 96.4371 157.678L106.4 178.759C106.896 179.859 107.996 180.465 109.097 180.465C109.538 180.465 109.978 180.355 110.363 180.19C111.85 179.474 112.51 177.713 111.795 176.227L101.832 155.146C97.0427 145.019 96.437 133.626 100.125 123.058C103.813 112.49 111.409 104.069 121.427 99.3357C131.776 94.4372 143.39 94.0519 154.124 98.1799C155.665 98.7303 157.371 98.0148 157.977 96.4737C158.582 94.9326 157.812 93.2265 156.27 92.621Z" fill="white"/>
<path d="M201.077 191.032L194.967 178.152C194.252 176.666 192.435 176.061 191.004 176.721C189.518 177.437 188.857 179.198 189.573 180.684L195.683 193.564C198.766 200.113 199.206 207.434 196.784 214.259C194.417 221.029 189.573 226.478 183.133 229.505C176.693 232.532 169.427 232.862 162.656 230.385C155.886 227.909 150.437 222.955 147.354 216.405L123.245 165.548C122.529 164.062 120.712 163.457 119.281 164.117C117.795 164.833 117.135 166.594 117.85 168.08L141.96 218.937C145.758 226.918 152.363 232.972 160.62 235.944C164.308 237.265 168.106 237.926 171.849 237.926C176.583 237.926 181.261 236.88 185.665 234.789C193.536 231.046 199.481 224.441 202.398 216.13C205.316 207.819 204.82 198.903 201.022 190.922L201.077 191.032Z" fill="white"/>
<path d="M168.986 123.277C161.17 106.765 141.574 99.6645 125.281 107.37C117.409 111.113 111.464 117.718 108.547 126.029C105.63 134.34 106.125 143.256 109.923 151.237L111.354 154.319C111.85 155.42 112.951 156.025 114.052 156.025C114.492 156.025 114.932 155.915 115.318 155.75C116.804 155.035 117.464 153.273 116.749 151.787L115.318 148.705C112.235 142.155 111.795 134.835 114.217 128.01C116.584 121.24 121.428 115.791 127.868 112.764C141.188 106.434 157.206 112.324 163.647 125.863L182.802 166.263C183.298 167.364 184.398 167.969 185.499 167.969C185.94 167.969 186.38 167.859 186.765 167.694C188.252 166.978 188.912 165.217 188.196 163.731L169.041 123.332L168.986 123.277Z" fill="white"/>
<path d="M143.225 119.645C139.317 118.709 135.298 119.095 131.61 120.856C122.748 125.039 119.06 135.827 123.354 144.909L155.445 212.663C158.582 219.268 165.132 223.175 171.848 223.175C174.38 223.175 176.912 222.625 179.279 221.524C188.141 217.341 191.884 206.553 187.535 197.472L158.802 136.873C158.087 135.387 156.325 134.781 154.839 135.442C153.353 136.157 152.692 137.918 153.408 139.405L182.141 200.003C185.004 206.113 182.581 213.323 176.692 216.13C170.802 218.937 163.646 216.24 160.784 210.131L128.693 142.377C125.831 136.267 128.253 129.057 134.142 126.25C136.564 125.094 139.206 124.819 141.794 125.479C143.39 125.865 144.986 124.874 145.371 123.278C145.757 121.682 144.766 120.085 143.17 119.7L143.225 119.645Z" fill="white"/>
<path d="M113.392 357.472C114.493 357.472 115.539 356.867 116.089 355.821L146.749 293.956C150.327 295.002 153.96 295.882 157.703 296.433C157.868 296.433 158.033 296.433 158.143 296.433C159.574 296.433 160.84 295.387 161.06 293.901C161.335 292.305 160.235 290.764 158.583 290.488C148.07 288.837 138.052 285.315 128.804 279.976C127.373 279.15 125.557 279.646 124.731 281.077C123.905 282.508 124.401 284.324 125.832 285.15C130.676 287.902 135.74 290.213 140.914 292.085L110.695 353.069C109.979 354.555 110.585 356.316 112.071 357.087C112.511 357.307 112.951 357.417 113.392 357.417V357.472Z" fill="white"/>
<path d="M253.094 176.831C253.534 178.042 254.69 178.812 255.901 178.812C256.231 178.812 256.562 178.812 256.892 178.647C258.433 178.097 259.259 176.391 258.709 174.849C257.608 171.657 256.342 168.52 254.91 165.493L222.819 97.7385C220.342 92.5647 217.48 87.6662 214.177 83.0978C213.242 81.7769 211.37 81.4467 210.049 82.4374C208.728 83.3731 208.398 85.2444 209.389 86.5654C212.471 90.8585 215.168 95.4818 217.48 100.27L249.571 168.025C250.892 170.832 252.103 173.804 253.149 176.776L253.094 176.831Z" fill="white"/>
<path d="M199.261 73.9055C200.087 73.9055 200.858 73.5753 201.463 72.9148C202.564 71.7039 202.454 69.8325 201.243 68.7317C184.289 53.4306 162.437 44.8995 139.648 44.7344C137.997 44.7344 136.676 46.0554 136.676 47.7066C136.676 49.3578 137.997 50.6786 139.648 50.6786C161.005 50.8437 181.427 58.8246 197.28 73.135C197.83 73.6304 198.546 73.9055 199.261 73.9055Z" fill="white"/>
<path d="M119.391 46.8259C112.621 48.312 106.016 50.5687 99.7406 53.5408C86.4749 59.8154 75.2458 68.8969 66.3286 80.4553C65.3378 81.7763 65.558 83.6477 66.8791 84.6384C67.4295 85.0787 68.035 85.2438 68.6955 85.2438C69.5762 85.2438 70.4569 84.8585 71.0624 84.088C79.3741 73.2451 89.8876 64.8239 102.273 58.9346C108.162 56.1276 114.327 54.0362 120.657 52.6602C122.254 52.3299 123.3 50.7337 122.914 49.1375C122.584 47.5414 120.933 46.4956 119.391 46.8809V46.8259Z" fill="white"/>
<path d="M28.3487 218.937C26.8625 218.221 25.101 218.827 24.3304 220.313L6.2207 256.804C6.88124 259.887 7.59689 262.914 8.36752 265.831L29.6146 222.9C30.3302 221.414 29.7247 219.652 28.2385 218.882L28.3487 218.937Z" fill="white"/>
<path d="M32.6969 210.13C33.1372 210.35 33.5777 210.46 34.0181 210.46C35.1189 210.46 36.1647 209.855 36.7152 208.809L54.4946 172.868C55.045 174.189 55.4853 175.51 56.0908 176.776L66.054 197.746C66.5494 198.847 67.6502 199.452 68.7511 199.452C69.1914 199.452 69.6317 199.342 70.017 199.177C71.5032 198.462 72.1638 196.7 71.4482 195.214L61.4852 174.244C49.7607 149.531 50.4763 120.305 63.3567 96.1423C64.1273 94.7113 63.5768 92.8949 62.1457 92.1243C60.7145 91.3538 58.8982 91.9042 58.1276 93.3352C46.293 115.516 44.1462 141.605 51.6873 165.217L31.431 206.112C30.7154 207.598 31.3209 209.36 32.8071 210.13H32.6969Z" fill="white"/>
<path d="M46.4572 220.753C44.971 220.038 43.2097 220.643 42.439 222.129L12.9902 281.517C13.8709 284.159 14.8068 286.801 15.7976 289.333L47.7784 224.771C48.4939 223.285 47.8885 221.524 46.4023 220.753H46.4572Z" fill="white"/>
<path d="M49.9243 213.709C50.3646 213.929 50.8051 214.039 51.2454 214.039C52.3463 214.039 53.3921 213.434 53.9426 212.388L59.0617 202.095C59.7772 200.609 59.1717 198.848 57.6855 198.077C56.1993 197.362 54.438 197.967 53.6674 199.453L48.5482 209.746C47.8326 211.232 48.4381 212.993 49.9243 213.764V213.709Z" fill="white"/>
<path d="M38.9158 274.308C37.4296 273.592 35.6683 274.198 34.8977 275.684L21.4668 302.819C22.5126 305.13 23.6136 307.387 24.7695 309.644L40.2919 278.326C41.0075 276.84 40.402 275.078 38.9158 274.308Z" fill="white"/>
<path d="M43.5942 264.895C44.0345 265.115 44.4748 265.225 44.9152 265.225C46.0161 265.225 47.062 264.619 47.6125 263.574L75.6852 206.882C76.4008 205.396 75.7953 203.635 74.3091 202.865C72.8229 202.149 71.0614 202.754 70.2908 204.241L42.2181 260.932C41.5025 262.418 42.108 264.179 43.5942 264.95V264.895Z" fill="white"/>
<path d="M79.4299 237.705C80.1455 236.219 79.54 234.457 78.0538 233.687C76.5676 232.971 74.8061 233.577 74.0355 235.063L62.6413 258.07L31.2109 321.476C32.4219 323.512 33.688 325.438 34.899 327.42L67.9257 260.711L79.3197 237.705H79.4299Z" fill="white"/>
<path d="M62.4201 303.753C60.9339 303.038 59.1725 303.643 58.4018 305.129L42.2188 337.823C43.5398 339.584 44.9159 341.346 46.292 343.052L63.7411 307.771C64.4567 306.285 63.8512 304.524 62.365 303.753H62.4201Z" fill="white"/>
<path d="M66.493 295.498C66.9334 295.718 67.3737 295.828 67.814 295.828C68.9149 295.828 69.9609 295.223 70.5113 294.177L91.7584 251.246C94.7308 256.364 98.0886 261.208 101.942 265.666C102.547 266.327 103.373 266.712 104.199 266.712C104.914 266.712 105.575 266.492 106.125 265.997C107.391 264.896 107.501 263.024 106.4 261.814C101.226 255.869 96.8776 249.209 93.5199 242.054L83.5568 221.029C82.8413 219.543 81.0798 218.937 79.5936 219.598C78.1074 220.313 77.4468 222.075 78.1624 223.561L88.1255 244.586C88.1255 244.586 88.2357 244.751 88.2357 244.861L65.0618 291.59C64.3462 293.076 64.9517 294.837 66.4379 295.608L66.493 295.498Z" fill="white"/>
<path d="M98.9702 275.078C99.6857 273.592 99.0802 271.83 97.594 271.06C96.1078 270.344 94.3465 270.95 93.5759 272.436L81.1358 297.534L54.1641 352.024C55.5952 353.565 57.0814 355.051 58.5676 356.537L86.4751 300.176L98.9151 275.078H98.9702Z" fill="white"/>
<path d="M78.0532 348.995C76.567 348.28 74.8055 348.885 74.0349 350.371L67.1543 364.297C68.7506 365.617 70.3468 366.883 71.9431 368.094L79.4293 353.013C80.1448 351.527 79.5394 349.766 78.0532 348.995Z" fill="white"/>
<path d="M82.5109 342.996C83.6118 342.996 84.6576 342.39 85.208 341.345L117.794 275.572C118.51 274.086 117.904 272.325 116.418 271.554C114.932 270.838 113.171 271.444 112.4 272.93L79.8138 338.703C79.0982 340.189 79.7037 341.95 81.1899 342.721C81.6302 342.941 82.0705 343.051 82.5109 343.051V342.996Z" fill="white"/>
<path d="M124.951 299.406C125.666 297.92 125.061 296.159 123.575 295.388C122.089 294.672 120.327 295.278 119.556 296.764L112.951 310.084L81.0254 374.59C82.7318 375.691 84.3832 376.737 86.0896 377.783L118.291 312.781L124.896 299.461L124.951 299.406Z" fill="white"/>
<path d="M108.051 365.288C106.565 364.573 104.804 365.178 104.033 366.664L95.9414 382.956C97.7579 383.837 99.5743 384.607 101.391 385.378L109.372 369.306C110.088 367.82 109.482 366.059 107.996 365.288H108.051Z" fill="white"/>
<path d="M157.811 303.202C156.325 302.487 154.564 303.092 153.793 304.578L111.904 389.12C113.831 389.725 115.812 390.276 117.739 390.716L159.077 307.22C159.793 305.734 159.188 303.973 157.701 303.202H157.811Z" fill="white"/>
<path d="M156.327 344.648C154.841 343.932 153.079 344.538 152.308 346.024L129.135 392.808C131.281 393.083 133.373 393.248 135.52 393.413L157.703 348.666C158.418 347.18 157.813 345.418 156.327 344.648Z" fill="white"/>
<path d="M196.234 302.488C194.748 301.772 192.986 302.377 192.215 303.864L147.85 393.414C150.161 393.304 152.473 393.083 154.785 392.808L197.5 306.506C198.215 305.019 197.61 303.258 196.124 302.488H196.234Z" fill="white"/>
<path d="M193.59 352.904C194.306 351.418 193.701 349.657 192.214 348.886C190.728 348.17 188.967 348.776 188.196 350.262L168.49 390.001C171.132 389.285 173.774 388.46 176.362 387.524C178.233 386.864 180.105 386.148 181.976 385.377L178.563 383.066L193.48 352.904H193.59Z" fill="white"/>
<path d="M198.655 359.068C197.72 360.444 198.05 362.261 199.426 363.196L209.279 369.966C210.93 368.756 212.582 367.435 214.233 366.114L202.839 358.298C201.463 357.362 199.646 357.692 198.71 359.068H198.655Z" fill="white"/>
<path d="M265.644 239.631C264.708 241.007 265.038 242.823 266.414 243.759L278.469 252.07C278.909 249.978 279.24 247.777 279.625 245.63L269.827 238.86C268.451 237.925 266.635 238.255 265.699 239.631H265.644Z" fill="white"/>
<path d="M257.333 254.547C256.397 255.923 256.728 257.739 258.104 258.675L274.232 269.793C274.782 267.757 275.333 265.72 275.828 263.684L261.462 253.776C260.085 252.841 258.269 253.171 257.333 254.547Z" fill="white"/>
<path d="M246.82 268.088C245.884 269.464 246.214 271.28 247.59 272.216L268.727 286.801C269.443 284.875 270.158 282.948 270.819 281.022L250.948 267.372C249.572 266.437 247.755 266.767 246.82 268.143V268.088Z" fill="white"/>
<path d="M248.03 257.135C248.966 255.759 248.581 253.888 247.205 253.007C245.829 252.071 243.957 252.457 243.076 253.833C234.489 266.602 222.6 276.784 208.674 283.389C197.61 288.618 185.83 291.425 173.665 291.645C172.014 291.645 170.693 293.021 170.748 294.672C170.748 296.268 172.124 297.589 173.72 297.589H173.775C174.656 297.589 175.537 297.424 176.418 297.424L159.519 331.549C158.803 333.035 159.409 334.796 160.895 335.567C161.335 335.787 161.776 335.897 162.216 335.897C163.317 335.897 164.363 335.292 164.913 334.246L183.353 296.984C192.986 295.773 202.343 293.076 211.316 288.838C214.894 287.132 218.361 285.205 221.664 283.059L199.756 327.311C199.041 328.797 199.646 330.558 201.132 331.329C201.573 331.549 202.013 331.659 202.454 331.659C203.555 331.659 204.6 331.054 205.151 330.008L214.343 311.404L245.278 332.705C246.379 331.109 247.535 329.458 248.636 327.806L216.985 306.011L229.59 280.527L262.232 302.983C263.057 301.167 263.938 299.351 264.709 297.479L232.288 275.133C238.287 269.904 243.627 263.905 248.14 257.245L248.03 257.135Z" fill="white"/>
<path d="M231.571 298.965C230.636 300.341 230.966 302.157 232.342 303.093L254.25 318.174C255.24 316.468 256.231 314.707 257.167 312.945L235.7 298.194C234.324 297.259 232.507 297.589 231.571 298.965Z" fill="white"/>
<path d="M216.765 330.172C215.829 331.548 216.159 333.364 217.535 334.3L234.709 346.134C235.975 344.648 237.296 343.106 238.507 341.565L220.893 329.401C219.517 328.466 217.701 328.796 216.765 330.172Z" fill="white"/>
<path d="M195.298 336.063C194.362 337.439 194.693 339.255 196.069 340.191L222.82 358.629C224.306 357.253 225.738 355.877 227.169 354.391L199.426 335.292C198.05 334.356 196.234 334.687 195.298 336.063Z" fill="white"/>
<path d="M190.948 374.481C190.013 375.857 190.343 377.673 191.719 378.609L193.646 379.93C195.572 378.884 197.499 377.783 199.37 376.627L195.077 373.71C193.701 372.774 191.884 373.105 190.948 374.481Z" fill="white"/>
</svg>
