<svg width="277" height="395" viewBox="0 0 277 395" fill="none" xmlns="http://www.w3.org/2000/svg">
<path d="M240.929 297.821C240.213 298.371 239.828 299.252 239.828 300.133V331.285C241.865 328.258 243.846 325.121 245.773 321.873V301.564C251.663 296.72 257.167 291.491 262.396 285.987C264.048 281.364 265.589 276.631 266.965 271.787C259.204 281.254 250.562 290.06 240.929 297.821Z" fill="white"/>
<path d="M226.123 290.501C225.352 291.052 224.912 291.932 224.912 292.868V350.44C226.949 348.183 228.93 345.871 230.857 343.505V294.409C247.26 281.97 261.131 266.779 272.03 249.772C273.021 244.488 273.847 239.094 274.507 233.59C263.003 255.716 246.545 275.31 226.068 290.556L226.123 290.501Z" fill="white"/>
<path d="M213.021 282.465C211.37 282.465 210.049 283.786 210.049 285.437V364.915C212.085 363.209 214.067 361.392 215.994 359.576V285.437C215.994 283.786 214.673 282.465 213.021 282.465Z" fill="white"/>
<path d="M236.58 52.7283C228.268 41.1699 218.966 31.2077 209.113 22.9517C185.279 8.36608 157.316 0 127.372 0C113.996 0 100.951 1.70625 88.5656 4.84353C80.4741 8.75137 72.4926 13.6499 64.8965 19.5392C83.9419 10.8429 105.134 5.94432 127.427 5.94432C170.362 5.94432 209.113 23.9424 236.635 52.7283H236.58Z" fill="white"/>
<path d="M276.653 189.944C276.653 187.247 276.598 184.605 276.487 181.963C270.598 216.858 252.488 249.002 224.801 272.504C223.535 273.549 223.37 275.476 224.47 276.687C225.516 277.953 227.443 278.118 228.654 277.017C251.112 257.973 267.46 233.48 276.487 206.401C276.543 203.869 276.653 201.337 276.653 198.695C276.653 197.209 276.653 195.778 276.653 194.292C276.653 192.806 276.653 191.375 276.653 189.889V189.944Z" fill="white"/>
<path d="M102.824 23.0077C104.42 22.7325 105.521 21.1363 105.246 19.5401C104.971 17.944 103.374 16.8432 101.778 17.1184C77.3934 21.5766 55.4858 32.1443 37.3761 46.9501C31.3212 54.6557 25.7067 63.1318 20.6426 72.3785C40.5687 47.2253 69.3019 29.0621 102.824 22.9526V23.0077Z" fill="white"/>
<path d="M269.608 159.451C269.608 157.8 268.342 156.479 266.69 156.424C265.204 156.534 263.718 157.69 263.663 159.341C262.837 206.18 237.186 250.267 196.619 274.43C195.738 274.98 195.188 275.916 195.188 276.961V375.978C197.169 374.712 199.151 373.336 201.132 371.905V278.668C242.636 253.294 268.837 207.776 269.663 159.451H269.608Z" fill="white"/>
<path d="M223.426 56.306C222.27 57.4618 222.27 59.3332 223.426 60.5441C246.709 83.7159 260.856 114.428 263.278 147.012C263.388 148.553 264.709 149.764 266.25 149.764C266.305 149.764 266.415 149.764 266.47 149.764C268.122 149.654 269.333 148.223 269.222 146.572C266.69 112.557 251.939 80.5236 227.664 56.361C226.508 55.2052 224.581 55.2052 223.426 56.361V56.306Z" fill="white"/>
<path d="M121.428 14.9718C119.777 15.0268 118.511 16.4028 118.566 18.054C118.621 19.7052 119.777 20.861 121.649 20.9161C123.52 20.861 125.447 20.806 127.373 20.806C156.382 20.806 184.069 29.8326 207.463 46.895C208.013 47.2802 208.619 47.4454 209.224 47.4454C210.16 47.4454 211.041 47.005 211.646 46.2345C212.637 44.9135 212.307 43.0422 210.986 42.0514C186.546 24.2185 157.648 14.8066 127.373 14.8066C125.392 14.8066 123.41 14.8066 121.428 14.9167V14.9718Z" fill="white"/>
<path d="M2.97245 187.137C1.32111 187.137 0 188.458 0 190.109V261.441C1.70638 268.706 3.68799 275.751 5.94481 282.466V190.109C5.94481 188.458 4.62378 187.137 2.97245 187.137Z" fill="white"/>
<path d="M183.242 274.045C181.591 274.045 180.27 275.366 180.27 277.017V384.29C182.251 383.354 184.233 382.364 186.214 381.318V277.072C186.214 275.421 184.893 274.1 183.242 274.1V274.045Z" fill="white"/>
<path d="M254.746 157.083C254.746 86.8522 197.61 29.7207 127.373 29.7207C57.1361 29.7207 0 86.8522 0 157.083V172.219C0 173.87 1.32111 175.191 2.97245 175.191C4.62378 175.191 5.94481 173.87 5.94481 172.219V157.083C5.94481 90.1546 60.3838 35.665 127.373 35.665C194.362 35.665 248.801 90.0996 248.801 157.083C248.801 198.914 226.398 238.653 190.344 260.779C188.968 261.659 188.527 263.476 189.353 264.852C189.903 265.787 190.894 266.283 191.885 266.283C192.435 266.283 192.931 266.117 193.426 265.842C231.242 242.67 254.691 200.95 254.691 157.083H254.746Z" fill="white"/>
<path d="M168.326 315.27C166.675 315.27 165.354 316.59 165.354 318.242V390.069C167.335 389.463 169.317 388.748 171.298 388.032V318.242C171.298 316.59 169.977 315.27 168.326 315.27Z" fill="white"/>
<path d="M71.2268 66.6542C72.6029 65.7736 73.0432 63.9572 72.1625 62.5262C71.2818 61.1502 69.4653 60.7099 68.0342 61.5905C34.7323 82.3406 14.8613 118.062 14.8613 157.085V304.812C16.7328 308.885 18.7144 312.793 20.8061 316.591V157.085C20.8061 120.098 39.6313 86.2484 71.1718 66.5992L71.2268 66.6542Z" fill="white"/>
<path d="M239.774 160.551C239.774 158.9 238.508 157.524 236.911 157.469H236.801C235.205 157.469 233.884 158.735 233.829 160.331C232.508 202.491 206.362 239.974 167.225 255.825C166.124 256.266 165.354 257.366 165.354 258.577V306.242C165.354 307.893 166.675 309.214 168.326 309.214C169.977 309.214 171.298 307.893 171.298 306.242V260.559C211.591 243.386 238.397 204.308 239.774 160.496V160.551Z" fill="white"/>
<path d="M236.636 153.562C236.636 153.562 236.746 153.562 236.801 153.562C238.453 153.452 239.718 152.076 239.608 150.424C238.618 133.307 233.829 117.07 225.462 102.154C224.636 100.723 222.875 100.228 221.389 100.998C219.958 101.824 219.462 103.64 220.233 105.071C228.159 119.217 232.673 134.573 233.664 150.755C233.774 152.351 235.04 153.562 236.636 153.562Z" fill="white"/>
<path d="M127.372 44.6367C112.565 44.6367 98.1433 47.4988 84.5473 53.1129C83.0061 53.7183 82.2906 55.4796 82.9511 57.0207C83.5566 58.5618 85.318 59.2774 86.8592 58.6169C99.7396 53.278 113.391 50.581 127.427 50.581C159.518 50.581 189.572 64.8914 209.939 89.8246C210.544 90.5401 211.37 90.9254 212.25 90.9254C212.911 90.9254 213.572 90.7052 214.122 90.2649C215.388 89.2191 215.608 87.3478 214.562 86.0818C193.04 59.7727 161.279 44.6367 127.427 44.6367H127.372Z" fill="white"/>
<path d="M36.4947 130.665C34.8984 130.225 33.3021 131.216 32.8618 132.812C30.8251 140.738 29.7793 148.884 29.7793 157.14V203.043C29.7793 204.694 31.1004 206.015 32.7517 206.015C34.4031 206.015 35.7241 204.694 35.7241 203.043V157.14C35.7241 149.434 36.7149 141.728 38.5864 134.298C38.9718 132.702 38.036 131.106 36.4397 130.665H36.4947Z" fill="white"/>
<path d="M32.7517 213.941C31.1004 213.941 29.7793 215.262 29.7793 216.914V331.287C31.7059 334.149 33.6875 336.901 35.7241 339.543V216.914C35.7241 215.262 34.4031 213.941 32.7517 213.941Z" fill="white"/>
<path d="M204.599 216.473C205.59 215.152 205.37 213.28 204.049 212.29C202.728 211.299 200.856 211.519 199.865 212.84C187.921 228.306 171.132 239.81 152.582 245.148C151.316 245.534 150.436 246.69 150.436 248.01V393.481C152.417 393.151 154.399 392.821 156.38 392.38V250.212C175.316 244.268 192.379 232.324 204.599 216.473Z" fill="white"/>
<path d="M156.932 64.1207C155.336 63.6253 153.684 64.5059 153.189 66.0471C152.694 67.5882 153.574 69.2944 155.116 69.7898C193.316 81.9536 218.967 117.069 218.967 157.083C218.967 173.155 214.619 189.061 206.472 203.042C205.646 204.473 206.142 206.289 207.518 207.115C208.013 207.39 208.509 207.5 209.004 207.5C210.05 207.5 211.041 206.949 211.591 206.014C220.288 191.098 224.912 174.201 224.912 157.028C224.912 114.372 197.61 77 156.932 64.0656V64.1207Z" fill="white"/>
<path d="M127.372 65.4971C130.179 65.4971 133.042 65.6071 135.794 65.8823C137.5 66.1025 138.876 64.8366 139.041 63.1854C139.207 61.5342 137.996 60.1031 136.344 59.938C133.372 59.6628 130.344 59.5527 127.372 59.5527C88.2904 59.5527 53.1171 82.7796 37.6496 118.721C36.989 120.262 37.6496 121.968 39.1908 122.629C39.5761 122.794 39.9614 122.849 40.3467 122.849C41.5026 122.849 42.6035 122.188 43.0989 121.032C57.5756 87.2379 90.6573 65.442 127.317 65.442L127.372 65.4971Z" fill="white"/>
<path d="M70.7329 100.999C69.522 99.8984 67.6505 99.9534 66.5496 101.164C52.4582 116.465 44.752 136.335 44.752 157.085V292.869C44.752 294.52 46.073 295.841 47.7243 295.841C49.3756 295.841 50.6968 294.52 50.6968 292.869V157.085C50.6968 137.821 57.9075 119.438 70.9531 105.182C72.054 103.971 71.9989 102.1 70.788 100.999H70.7329Z" fill="white"/>
<path d="M47.6677 307.289C46.0163 307.289 44.6953 308.61 44.6953 310.261V350.385C46.6219 352.532 48.6585 354.623 50.6401 356.66V310.261C50.6401 308.61 49.319 307.289 47.6677 307.289Z" fill="white"/>
<path d="M138.547 233.039C136.895 233.039 135.574 234.36 135.574 236.011V394.692C137.556 394.692 139.537 394.692 141.519 394.526V236.011C141.519 234.36 140.198 233.039 138.547 233.039Z" fill="white"/>
<path d="M152.142 235.956C186.765 225.059 210.049 193.355 210.049 157.084C210.049 111.511 172.949 74.4141 127.372 74.4141C111.409 74.4141 95.8869 78.9824 82.456 87.6787C81.0799 88.5593 80.6946 90.4307 81.5753 91.8067C82.456 93.1827 84.3275 93.568 85.7036 92.6873C98.1437 84.6515 112.51 80.3584 127.372 80.3584C169.646 80.3584 204.104 114.758 204.104 157.084C204.104 190.769 182.527 220.16 150.381 230.287C148.785 230.783 147.959 232.434 148.454 234.03C148.84 235.296 150.051 236.122 151.317 236.122C151.592 236.122 151.922 236.122 152.197 236.011L152.142 235.956Z" fill="white"/>
<path d="M127.373 95.274C150.106 95.274 170.913 107.713 181.812 127.803C182.583 129.234 184.399 129.784 185.83 129.014C187.261 128.243 187.812 126.427 187.041 124.996C175.152 103.035 152.308 89.3848 127.373 89.3848C89.9978 89.3848 59.6133 119.767 59.6133 157.139V234.855C59.6133 236.507 60.9344 237.828 62.5857 237.828C64.2371 237.828 65.5581 236.507 65.5581 234.855V157.139C65.5581 123.069 93.3005 95.3291 127.373 95.3291V95.274Z" fill="white"/>
<path d="M123.631 326.168C121.979 326.168 120.658 327.489 120.658 329.14V393.702C122.64 393.977 124.621 394.197 126.603 394.363V329.14C126.603 327.489 125.282 326.168 123.631 326.168Z" fill="white"/>
<path d="M62.5857 256.156C60.9344 256.156 59.6133 257.477 59.6133 259.128V364.915C61.5949 366.567 63.5765 368.163 65.5581 369.704V259.128C65.5581 257.477 64.2371 256.156 62.5857 256.156Z" fill="white"/>
<path d="M195.133 157.084C195.133 150.535 194.198 144.04 192.326 137.82C191.886 136.224 190.234 135.344 188.638 135.839C187.042 136.334 186.161 137.986 186.657 139.527C188.363 145.196 189.189 151.085 189.189 157.084C189.189 191.154 161.446 218.894 127.374 218.894C126.163 218.894 125.007 218.894 123.796 218.784C122.97 218.674 122.2 219.004 121.594 219.61C120.989 220.16 120.658 220.986 120.658 221.756V308.224C120.658 309.876 121.979 311.196 123.631 311.196C125.282 311.196 126.603 309.876 126.603 308.224V224.784H127.374C164.749 224.784 195.133 194.402 195.133 157.029V157.084Z" fill="white"/>
<path d="M180.27 157.085C180.27 127.914 156.546 104.191 127.372 104.191C121.703 104.191 116.143 105.072 110.859 106.833C109.318 107.329 108.437 109.035 108.988 110.576C109.483 112.117 111.189 112.998 112.731 112.447C117.464 110.906 122.363 110.081 127.372 110.081C153.243 110.081 174.27 131.106 174.27 156.975C174.27 182.844 153.243 203.924 127.372 203.924C121.317 203.924 115.428 202.768 109.868 200.566C108.932 200.181 107.887 200.291 107.116 200.842C106.29 201.392 105.795 202.328 105.795 203.318V390.399C107.777 391.005 109.758 391.5 111.74 391.996V207.557C116.749 209.098 122.033 209.923 127.372 209.923C156.546 209.923 180.27 186.201 180.27 157.03V157.085Z" fill="white"/>
<path d="M99.1342 119.657C100.455 118.667 100.73 116.795 99.7397 115.474C98.7489 114.153 96.8773 113.878 95.5562 114.869C82.1804 124.996 74.5293 140.352 74.5293 157.03V177.614C74.5293 179.266 75.8503 180.587 77.5017 180.587C79.153 180.587 80.4741 179.266 80.4741 177.614V157.03C80.4741 142.224 87.2996 128.574 99.1342 119.602V119.657Z" fill="white"/>
<path d="M77.4471 194.621C75.7957 194.621 74.4746 195.942 74.4746 197.593V376.033C76.4562 377.299 78.4378 378.51 80.4194 379.666V197.648C80.4194 195.997 79.0984 194.676 77.4471 194.676V194.621Z" fill="white"/>
<path d="M93.1345 276.026C91.4831 276.026 90.1621 277.347 90.1621 278.998V384.62C92.1437 385.555 94.1253 386.381 96.1069 387.151V278.943C96.1069 277.292 94.7858 275.971 93.1345 275.971V276.026Z" fill="white"/>
<path d="M127.372 125.821C144.601 125.821 158.638 139.856 158.638 157.084C158.638 159.176 158.418 161.322 158.032 163.359C157.702 164.955 158.748 166.551 160.344 166.881C161.94 167.211 163.537 166.166 163.867 164.569C164.362 162.148 164.638 159.616 164.638 157.139C164.638 136.609 147.904 119.877 127.372 119.877C106.841 119.877 90.1074 136.609 90.1074 157.139V266.614C90.1074 268.265 91.4285 269.586 93.0798 269.586C94.7311 269.586 96.0522 268.265 96.0522 266.614V157.139C96.0522 139.911 110.089 125.876 127.317 125.876L127.372 125.821Z" fill="white"/>
<path d="M155.39 181.688C156.491 180.422 156.326 178.55 155.115 177.505C153.849 176.404 151.977 176.569 150.932 177.78C144.987 184.55 136.4 188.458 127.428 188.458C120.822 188.458 114.547 186.421 109.208 182.623C107.887 181.688 106.015 181.963 105.08 183.284C104.144 184.605 104.419 186.476 105.74 187.412C112.07 191.98 119.611 194.402 127.428 194.402C138.161 194.402 148.344 189.779 155.445 181.743L155.39 181.688Z" fill="white"/>
<path d="M117.3 142.058C116.199 140.847 114.273 140.792 113.117 141.947C108.933 145.855 106.566 151.414 106.566 157.138C106.566 168.642 115.924 177.999 127.428 177.999C138.933 177.999 148.29 168.642 148.29 157.138C148.29 146.516 140.364 137.599 129.795 136.443C128.199 136.278 126.658 137.434 126.493 139.085C126.327 140.737 127.483 142.168 129.135 142.388C136.676 143.213 142.345 149.598 142.345 157.194C142.345 165.394 135.685 172.109 127.428 172.109C119.172 172.109 112.511 165.45 112.511 157.194C112.511 153.066 114.163 149.213 117.19 146.351C118.401 145.195 118.456 143.323 117.3 142.168V142.058Z" fill="white"/>
<path d="M131.72 157.084C131.72 154.663 129.794 152.736 127.372 152.736C124.95 152.736 123.023 154.663 123.023 157.084C123.023 159.506 124.95 161.433 127.372 161.433C129.794 161.433 131.72 159.506 131.72 157.084Z" fill="white"/>
</svg>
