<svg width="284" height="397" viewBox="0 0 284 397" fill="none" xmlns="http://www.w3.org/2000/svg">
<path d="M104.363 246.525C116.803 246.525 126.876 236.397 126.876 224.013V169.083C126.876 161.708 133.372 155.709 140.803 156.479C147.188 157.085 152.197 162.919 152.197 169.744V181.743C152.197 192.421 160.894 201.117 171.573 201.117H223.534C245.497 201.117 266.359 193.797 283.313 180.367C283.203 177.89 283.038 175.413 282.872 172.991C266.359 187.302 245.552 195.173 223.479 195.173H171.518C164.142 195.173 158.087 189.173 158.087 181.743V169.744C158.087 159.892 150.711 151.416 141.298 150.535C130.234 149.434 120.877 158.186 120.877 169.083V224.013C120.877 233.15 113.446 240.581 104.308 240.581H18.494C12.9345 240.581 7.54013 240.03 2.25586 239.039C2.53108 241.076 2.80631 243.167 3.08153 245.204C8.09058 246.03 13.2097 246.525 18.4389 246.525H104.253H104.363Z" fill="white"/>
<path d="M246.433 176.79C239.112 179.101 231.406 180.257 223.59 180.257H182.582C180.93 180.257 179.609 181.578 179.609 183.229C179.609 184.88 180.93 186.201 182.582 186.201H223.59C232.012 186.201 240.323 184.936 248.25 182.459C249.846 181.963 250.672 180.312 250.176 178.716C249.681 177.12 248.03 176.294 246.433 176.79Z" fill="white"/>
<path d="M258.985 171.505C257.554 172.276 257.003 174.092 257.719 175.523C258.49 176.954 260.306 177.505 261.737 176.789C269.003 172.936 275.608 168.038 281.498 162.148C281.608 162.038 281.718 161.873 281.883 161.763C281.608 159.121 281.278 156.534 280.893 153.947C279.737 155.323 278.581 156.644 277.315 157.91C271.865 163.359 265.7 167.927 258.985 171.505Z" fill="white"/>
<path d="M28.1286 231.664C29.7799 231.664 31.1009 230.343 31.1009 228.691C31.1009 227.04 29.7799 225.719 28.1286 225.719H18.6059C12.4409 225.719 6.49611 224.894 0.771484 223.518C0.936618 225.664 1.15679 227.701 1.32192 229.792C6.88141 231.003 12.6611 231.664 18.5508 231.664H28.0735H28.1286Z" fill="white"/>
<path d="M170.088 177.505C171.739 177.505 173.06 176.184 173.06 174.533V169.745C173.06 152.297 159.739 137.326 142.786 135.73C122.859 133.913 106.016 149.545 106.016 169.084V224.014C106.016 224.95 105.245 225.665 104.365 225.665H42.99C41.3386 225.665 40.0176 226.986 40.0176 228.637C40.0176 230.288 41.3386 231.609 42.99 231.609H104.365C108.548 231.609 112.016 228.197 112.016 223.959V169.029C112.016 152.957 125.667 139.913 142.235 141.619C156.216 142.94 167.115 155.269 167.115 169.745V174.533C167.115 176.184 168.436 177.505 170.088 177.505Z" fill="white"/>
<path d="M223.536 165.341H187.812C185.72 141.949 167.446 123.07 144.217 120.869C142.621 120.704 141.079 120.648 139.593 120.648C112.896 120.648 91.209 142.389 91.209 169.029V206.291C91.209 207.942 92.5301 209.263 94.1814 209.263C95.8327 209.263 97.1538 207.942 97.1538 206.291V169.029C97.1538 144.261 118.456 124.501 143.721 126.758C164.583 128.739 181.427 147.013 182.087 168.368C182.087 169.964 183.463 171.23 185.06 171.23H223.591C241.535 171.23 258.379 164.24 271.039 151.526C274.067 148.499 276.709 145.251 279.021 141.839C278.47 138.977 277.92 136.115 277.259 133.308C274.507 138.371 270.984 143.105 266.801 147.343C255.241 158.901 239.884 165.286 223.536 165.286V165.341Z" fill="white"/>
<path d="M80.2541 216.748C81.9054 216.748 83.2265 215.427 83.2265 213.776C83.2265 212.125 81.9054 210.804 80.2541 210.804H18.6043C12.1641 210.804 5.94409 209.813 0.109375 207.941C0.109375 210.033 0.164413 212.124 0.274502 214.161C6.10921 215.812 12.2742 216.748 18.6043 216.748H80.2541Z" fill="white"/>
<path d="M18.605 201.833H79.264C80.9153 201.833 82.2364 200.512 82.2364 198.86V169.084C82.2364 158.406 85.2088 147.949 90.8233 138.867C91.704 137.491 91.2637 135.62 89.8875 134.739C88.4564 133.858 86.6399 134.299 85.7592 135.675C79.5392 145.692 76.2365 157.195 76.2365 169.029V195.833H18.5499C11.9446 195.833 5.66958 194.402 0 191.926C0 192.366 0 192.806 0 193.191C0 194.677 0 196.109 0 197.595C0 197.815 0 198.09 0 198.31C5.77967 200.512 11.9997 201.778 18.5499 201.778L18.605 201.833Z" fill="white"/>
<path d="M223.536 150.48H208.84C207.188 150.48 205.867 151.801 205.867 153.452C205.867 155.103 207.188 156.424 208.84 156.424H223.536C237.518 156.424 250.618 150.975 260.471 141.123C266.746 134.849 271.205 127.253 273.627 118.942C272.416 114.759 271.095 110.631 269.664 106.668C269.058 118.116 264.434 128.739 256.288 136.94C247.536 145.691 235.921 150.48 223.592 150.48H223.536Z" fill="white"/>
<path d="M95.9973 127.308C97.1533 128.519 99.0248 128.574 100.236 127.418C110.914 117.291 124.896 111.732 139.593 111.732C141.354 111.732 143.225 111.842 145.097 112.007C167.94 114.208 187.206 129.95 194.252 152.131C194.637 153.397 195.848 154.222 197.114 154.222C197.389 154.222 197.719 154.222 197.995 154.057C199.536 153.562 200.417 151.911 199.921 150.314C192.16 125.822 170.913 108.484 145.647 106.062C143.556 105.842 141.519 105.787 139.593 105.787C123.409 105.787 107.942 111.952 96.1625 123.07C94.9515 124.171 94.8965 126.097 96.0524 127.308H95.9973Z" fill="white"/>
<path d="M245.718 126.373C239.773 132.317 231.957 135.564 223.535 135.564H219.242C217.591 135.564 216.27 136.885 216.27 138.536C216.27 140.188 217.591 141.509 219.242 141.509H223.535C233.498 141.509 242.856 137.601 249.902 130.555C256.947 123.51 260.8 114.099 260.8 104.081V85.1475C258.929 81.1846 256.892 77.4419 254.856 73.6992V104.081C254.856 112.502 251.608 120.428 245.718 126.317V126.373Z" fill="white"/>
<path d="M64.3474 186.971C65.9988 186.971 67.3198 185.65 67.3198 183.999V169.083C67.3198 142.719 81.7415 118.446 104.915 105.732C106.346 104.962 106.897 103.145 106.071 101.659C105.245 100.228 103.484 99.6777 102.053 100.503C76.9527 114.263 61.375 140.572 61.375 169.083V181.027H18.6055C11.8901 181.027 5.72515 178.88 0.606013 175.303C0.495924 177.559 0.330792 179.816 0.220703 182.128C5.6701 185.21 11.8901 187.026 18.6055 187.026H64.3474V186.971Z" fill="white"/>
<path d="M124.015 98.5218C131.281 96.9256 138.657 96.4303 146.474 97.1458C168.767 99.2923 189.188 112.172 201.078 131.601C201.628 132.536 202.619 133.032 203.61 133.032C204.16 133.032 204.656 132.867 205.151 132.592C206.582 131.711 207.022 129.895 206.142 128.464C193.261 107.438 171.189 93.513 147.024 91.2014C138.437 90.4308 130.566 90.9263 122.694 92.6876C121.098 93.0178 120.052 94.6139 120.438 96.21C120.768 97.8062 122.419 98.7969 123.96 98.4667L124.015 98.5218Z" fill="white"/>
<path d="M40.5125 172.055C42.1638 172.055 43.4849 170.734 43.4849 169.083C43.4849 167.431 42.1638 166.111 40.5125 166.111H18.6048C10.9536 166.111 4.56847 160.827 2.752 153.727C2.31164 157.084 1.87128 160.496 1.54102 163.964C5.66935 168.862 11.7242 172.055 18.6598 172.055H40.5675H40.5125Z" fill="white"/>
<path d="M148.455 76.3957C145.428 76.1205 142.455 75.9555 139.538 75.9555C93.9061 75.9555 55.32 108.594 47.7238 153.507C47.4486 155.103 48.5495 156.644 50.1458 156.919C51.6871 157.139 53.2833 156.094 53.5585 154.498C60.6593 112.447 96.7685 81.8997 139.483 81.8997C142.18 81.8997 144.987 82.0099 147.85 82.2851C175.427 84.927 200.362 100.944 214.564 125.106C215.114 126.042 216.05 126.592 217.151 126.592H223.536C229.536 126.592 235.15 124.281 239.389 120.042C243.627 115.804 245.939 110.135 245.939 104.081V59.3333C244.012 56.5263 241.976 53.8294 239.939 51.1875V104.136C239.939 108.594 238.233 112.777 235.15 115.859C232.068 118.942 227.939 120.703 223.536 120.703H218.857C203.555 95.7149 177.353 79.2028 148.455 76.4508V76.3957Z" fill="white"/>
<path d="M149.886 61.5906C137.666 60.4898 126.437 61.2603 115.318 63.8472C113.722 64.2325 112.731 65.8286 113.061 67.4248C113.447 69.021 115.043 70.0667 116.639 69.6815C127.153 67.2597 137.776 66.4892 149.281 67.535C175.097 70.0118 198.821 82.2305 216.105 101.99C216.71 102.65 217.536 102.981 218.361 102.981C219.077 102.981 219.738 102.761 220.343 102.265C221.554 101.164 221.719 99.293 220.618 98.0821C202.288 77.222 177.188 64.2325 149.886 61.6457V61.5906Z" fill="white"/>
<path d="M228.049 99.0724C229.7 99.0724 231.021 97.7515 231.021 96.1003V40.565C229.04 38.4185 227.058 36.3818 225.021 34.4004V96.1003C225.021 97.7515 226.398 99.0724 228.049 99.0724Z" fill="white"/>
<path d="M18.6052 157.14H35.6139C37.1001 157.14 38.3661 156.039 38.5863 154.608C43.7605 118.282 68.2553 87.4042 102.548 74.0295C104.089 73.4241 104.86 71.7178 104.254 70.1767C103.649 68.6355 101.942 67.865 100.401 68.4704C64.8976 82.3405 39.3019 113.878 33.0819 151.251H18.6052C17.7795 151.251 17.064 150.59 17.064 149.71V98.4673C14.9172 103.916 12.8806 109.64 11.1191 115.475V149.71C11.1191 153.838 14.4769 157.195 18.6052 157.195V157.14Z" fill="white"/>
<path d="M28.4037 125.712C28.4037 125.712 28.789 125.712 29.0091 125.712C30.1651 125.712 31.266 124.997 31.7614 123.896C36.1649 113.438 42.1097 103.641 49.4306 94.7796C50.4765 93.5136 50.3113 91.6424 49.0453 90.5966C47.7793 89.5509 45.9078 89.7159 44.8619 90.9818C40.018 96.8711 35.7246 103.146 32.0366 109.806V68.1953C29.9449 71.6078 27.9633 75.1854 26.0918 78.818V122.795C26.0918 124.226 27.0826 125.437 28.4587 125.712H28.4037Z" fill="white"/>
<path d="M151.317 46.7301C147.299 46.3449 143.335 46.1797 139.592 46.1797C108.382 46.1797 78.548 58.0683 55.5394 79.644C54.3284 80.7448 54.2734 82.6712 55.4293 83.827C56.5853 85.0379 58.4568 85.0929 59.6127 83.9371C81.5204 63.4071 109.923 52.124 139.592 52.124C143.17 52.124 146.913 52.2891 150.766 52.6744C172.839 54.7659 193.756 63.187 211.315 76.892C212.196 77.6075 213.407 77.7175 214.453 77.2222C215.499 76.7268 216.104 75.6811 216.104 74.5253V26.2002C214.123 24.549 212.141 23.0079 210.104 21.4668V68.581C192.71 56.2521 172.509 48.7115 151.262 46.675L151.317 46.7301Z" fill="white"/>
<path d="M42.7152 76.9462C43.1006 77.1114 43.4859 77.1664 43.8712 77.1664C44.6418 77.1664 45.4125 76.8362 46.0179 76.2858C70.9531 51.1325 104.145 37.2624 139.593 37.2624C143.612 37.2624 147.85 37.4825 152.199 37.8678C167.831 39.3539 182.858 43.592 196.95 50.472C197.886 50.9123 198.931 50.8573 199.812 50.3069C200.693 49.7565 201.188 48.8209 201.188 47.7751V15.4116C199.207 14.1456 197.225 12.9898 195.188 11.834V43.0967C181.703 37.0973 167.446 33.3546 152.694 31.9236C148.18 31.5383 143.777 31.318 139.538 31.318C104.86 31.318 72.2191 44.0324 46.7886 67.2042V47.2247C44.7519 49.7015 42.7703 52.2333 40.8438 54.8202V74.1942C40.8438 75.4051 41.5593 76.5059 42.7152 76.9462Z" fill="white"/>
<path d="M154.124 17.1184L151.262 16.8982C149.666 16.7881 148.18 17.999 148.069 19.6502C147.959 21.3014 149.17 22.7325 150.822 22.8426L153.574 23.0626C163.372 23.9983 173.115 25.9247 182.472 28.7868C183.353 29.062 184.344 28.897 185.114 28.3466C185.885 27.7962 186.325 26.9155 186.325 25.9248V7.26617C184.344 6.33049 182.362 5.50494 180.381 4.73438V21.9619C171.849 19.5952 163.042 17.944 154.179 17.1184H154.124Z" fill="white"/>
<path d="M57.3561 45.6279C57.7964 45.8481 58.2918 46.0132 58.7872 46.0132C59.3377 46.0132 59.8881 45.8481 60.3835 45.5179C82.4563 31.3176 108.107 23.3368 134.638 22.4561C136.29 22.4561 137.556 21.0251 137.501 19.3739C137.501 17.7227 135.959 16.5668 134.418 16.5117C108.657 17.3373 83.6123 24.6577 61.7046 37.7022V31.3726C59.6679 33.2439 57.6863 35.2254 55.7598 37.2068V43.041C55.7598 44.1418 56.3652 45.1326 57.301 45.683L57.3561 45.6279Z" fill="white"/>
<path d="M139.592 7.48553C144.546 7.48553 149.721 7.70571 155.005 8.20107C159.298 8.58635 163.647 9.19167 167.885 9.96223C168.766 10.1273 169.647 9.85217 170.307 9.30177C170.968 8.75137 171.353 7.92587 171.353 6.99019V1.59621C169.371 0.990767 167.39 0.44032 165.408 0V3.46755C162.106 2.97219 158.803 2.53197 155.5 2.20173C149.996 1.70637 144.601 1.43109 139.537 1.43109C125.886 1.43109 112.566 3.02723 99.5751 6.21955C90.8781 10.0173 82.3462 14.9158 74.1445 20.9702C74.3647 20.9702 74.5849 20.9702 74.8051 20.8051C95.2266 11.8886 116.969 7.37551 139.537 7.37551L139.592 7.48553Z" fill="white"/>
<path d="M142.566 243.552V169.083C142.566 167.432 141.245 166.111 139.593 166.111C137.942 166.111 136.621 167.432 136.621 169.083V243.552C136.621 245.204 137.942 246.525 139.593 246.525C141.245 246.525 142.566 245.204 142.566 243.552Z" fill="white"/>
<path d="M101.611 256.211C99.9597 256.211 98.6387 257.532 98.6387 259.183C98.6387 260.834 99.9597 262.155 101.611 262.155H133.482C147.133 262.155 158.252 251.037 158.252 237.387V229.957C158.252 222.141 164.582 215.812 172.398 215.812H218.801C220.452 215.812 221.773 214.491 221.773 212.839C221.773 211.188 220.452 209.867 218.801 209.867H172.398C161.334 209.867 152.307 218.894 152.307 229.957V237.387C152.307 247.735 143.885 256.211 133.482 256.211H101.611Z" fill="white"/>
<path d="M232.949 213.391C232.729 215.042 233.885 216.528 235.536 216.748C252.104 218.895 267.682 226.711 281.278 239.095C281.608 236.728 281.883 234.306 282.103 231.83C268.397 220.271 252.875 212.951 236.306 210.804C234.6 210.584 233.169 211.74 232.949 213.391Z" fill="white"/>
<path d="M64.1809 261.826C71.2817 261.991 78.2723 262.211 85.2079 262.211C86.8592 262.211 88.1803 260.89 88.1803 259.239C88.1803 257.588 86.8592 256.267 85.2079 256.267C78.3824 256.267 71.3917 256.102 64.3461 255.882C44.5851 255.387 24.5489 254.891 5.55859 258.139C5.9439 260.12 6.38429 262.101 6.87969 264.028C25.3196 260.89 44.9704 261.386 64.236 261.826H64.1809Z" fill="white"/>
<path d="M172.343 224.729C169.481 224.729 167.114 227.04 167.114 229.957V237.388C167.114 255.991 151.977 271.072 133.427 271.072H20.5858C16.6226 271.072 12.7144 271.457 8.86133 272.008C9.35673 273.934 9.90714 275.861 10.4576 277.787C13.7602 277.347 17.118 277.072 20.5858 277.072H133.427C155.28 277.072 173.114 259.294 173.114 237.443V230.728H222.489C244.617 230.728 264.598 240.14 278.689 255.111C279.13 252.744 279.57 250.377 279.955 247.955C264.983 233.645 244.727 224.784 222.489 224.784H172.343V224.729Z" fill="white"/>
<path d="M67.924 292.484C93.1344 292.979 119.225 293.474 144.986 290.007C168.27 286.705 186.215 266.835 187.701 242.783C187.811 241.131 186.545 239.755 184.894 239.645C183.407 239.535 181.866 240.801 181.756 242.452C180.49 263.698 164.637 281.201 144.161 284.118C118.84 287.475 93.0243 286.98 68.0341 286.539C50.1447 286.209 31.7598 285.879 13.375 286.98C14.0355 288.961 14.7511 290.888 15.4667 292.814C32.9708 291.878 50.7502 292.154 67.924 292.484Z" fill="white"/>
<path d="M267.571 256.761C249.241 242.286 222.765 235.736 198.435 239.699C196.784 239.974 195.683 241.515 195.958 243.111C196.233 244.708 197.775 245.808 199.371 245.588C221.719 241.956 247.039 248.175 263.883 261.44C268.121 264.797 271.644 268.485 274.617 272.503C275.277 270.136 275.883 267.714 276.488 265.237C273.846 262.21 270.874 259.348 267.571 256.761Z" fill="white"/>
<path d="M45.2471 306.848C46.8984 306.738 48.1094 305.252 47.9993 303.656C47.8892 302.005 46.4031 300.849 44.8068 300.904C40.7335 301.234 36.2199 301.179 31.431 301.124C27.4127 301.124 23.1743 301.014 18.8809 301.234C19.7065 303.216 20.5872 305.197 21.4679 307.124C24.7706 307.069 28.0733 307.124 31.3209 307.124C36.2198 307.179 40.8986 307.234 45.2471 306.904V306.848Z" fill="white"/>
<path d="M197.499 257.367C189.793 259.294 186.325 266.174 182.913 272.889C180.105 278.393 177.243 284.062 171.959 287.97C170.638 288.96 170.363 290.832 171.298 292.153C172.289 293.474 174.161 293.749 175.482 292.813C181.867 288.08 185.225 281.475 188.197 275.641C191.334 269.421 193.867 264.467 199.206 263.147C220.398 255.221 249.516 259.404 263.993 282.521C265.644 285.878 267.021 289.511 267.956 293.198C269.057 290.226 270.158 287.144 271.149 284.007C270.378 282.19 269.718 280.649 269.167 279.604C252.874 253.515 220.563 248.726 197.389 257.422L197.499 257.367Z" fill="white"/>
<path d="M161.5 294.409C152.748 298.703 143.335 300.849 133.427 300.849H63.8513C62.2 300.849 60.8789 302.17 60.8789 303.821C60.8789 305.472 62.2 306.793 63.8513 306.793H133.427C144.216 306.793 154.565 304.427 164.087 299.748C165.573 299.033 166.179 297.216 165.463 295.785C164.748 294.299 162.931 293.694 161.5 294.409Z" fill="white"/>
<path d="M222.489 269.422H206.967C205.811 269.422 204.765 270.082 204.27 271.128C191.279 298.648 164.142 315.766 133.427 315.766H25.6504C26.6962 317.802 27.7971 319.783 28.843 321.71H133.372C165.739 321.71 194.472 303.987 208.783 275.366H222.434C240.434 275.366 255.076 290.007 255.131 308.005V320.939C257.222 317.197 259.204 313.399 261.075 309.436V308.005C261.075 286.704 243.681 269.422 222.434 269.422H222.489Z" fill="white"/>
<path d="M222.49 284.336H215.885C214.839 284.336 213.848 284.886 213.353 285.767C196.509 313.892 166.675 330.68 133.483 330.68H34.293C35.559 332.716 36.9351 334.698 38.2562 336.624H133.483C168.216 336.624 199.536 319.341 217.591 290.28H222.545C232.343 290.28 240.324 298.261 240.324 308.058V343.669C242.361 341.027 244.343 338.275 246.269 335.468V308.058C246.269 294.959 235.59 284.336 222.49 284.336Z" fill="white"/>
<path d="M130.897 348.458C130.897 346.807 129.465 345.596 127.814 345.541C100.017 346.367 72.4945 346.532 45.6328 346.587C47.2841 348.623 48.9355 350.605 50.6418 352.531C75.9623 352.476 101.833 352.256 127.979 351.485C129.631 351.485 130.897 350.054 130.897 348.403V348.458Z" fill="white"/>
<path d="M228.379 320.002C226.728 320.002 225.407 321.323 225.407 322.974C225.407 335.633 225.297 348.182 225.297 360.676C227.334 358.695 229.315 356.603 231.242 354.512C231.242 344.054 231.297 333.597 231.352 323.029C231.352 321.378 230.031 320.057 228.379 320.057V320.002Z" fill="white"/>
<path d="M145.648 350.936C178.124 347.578 207.463 330.516 226.288 304.097C227.224 302.776 226.948 300.904 225.572 299.969C224.251 299.033 222.38 299.308 221.444 300.684C203.665 325.672 175.812 341.854 145.097 345.046C143.446 345.212 142.29 346.698 142.455 348.294C142.62 349.835 143.886 350.991 145.428 350.991C145.538 350.991 145.648 350.991 145.758 350.991L145.648 350.936Z" fill="white"/>
<path d="M214.728 332.498C213.682 332.002 212.471 332.167 211.59 332.883C189.683 350.936 162.656 360.458 133.427 360.458H58.1816C60.2733 362.55 62.42 364.531 64.5668 366.402H133.427C161.94 366.402 188.417 357.761 210.49 341.304V373.447C212.526 371.906 214.508 370.365 216.489 368.714V335.195C216.489 334.039 215.829 332.993 214.783 332.498H214.728Z" fill="white"/>
<path d="M165.024 375.264C164.858 373.612 163.372 372.401 161.776 372.622C132.382 375.594 105.08 377.905 77.0625 376.364C80.3101 378.621 83.6128 380.768 86.9155 382.639C111.685 383.244 136.235 381.208 162.326 378.566C163.978 378.401 165.134 376.97 164.968 375.318L165.024 375.264Z" fill="white"/>
<path d="M200.142 360.237C199.262 359.686 198.161 359.631 197.225 360.127C189.519 364.145 181.317 367.392 172.95 369.814C171.354 370.254 170.473 371.905 170.914 373.501C171.354 375.098 173.006 375.978 174.602 375.538C181.813 373.446 188.858 370.749 195.629 367.557V383.188C197.665 382.088 199.647 380.877 201.574 379.611V362.769C201.574 361.723 201.023 360.787 200.142 360.237Z" fill="white"/>
<path d="M185.445 382.803C184.675 382.252 183.684 382.087 182.748 382.417C167.171 387.646 150.547 390.288 133.428 390.288H102.604C109.209 392.93 115.924 394.967 122.64 396.233H133.483C149.832 396.233 165.74 393.921 180.767 389.297V390.398C182.748 389.628 184.73 388.747 186.711 387.866V385.225C186.711 384.289 186.271 383.353 185.445 382.803Z" fill="white"/>
<path d="M283.644 193.245C283.644 192.144 283.644 191.098 283.589 190.053C276.543 195.061 268.947 199.245 260.965 202.382C259.809 202.822 259.094 203.923 259.094 205.134C259.094 206.345 259.864 207.445 260.965 207.886C268.892 211.023 276.268 215.041 283.093 219.829C283.258 217.518 283.368 215.206 283.478 212.839C279.075 209.977 274.451 207.335 269.607 205.079C274.451 202.822 279.13 200.125 283.644 197.153C283.644 195.832 283.644 194.511 283.644 193.19V193.245Z" fill="white"/>
</svg>
