<svg width="392" height="457" viewBox="0 0 392 457" fill="none" xmlns="http://www.w3.org/2000/svg">
<line x1="2.10277" y1="77.7559" x2="2.10277" y2="0.795265" stroke="white" stroke-width="3.79446"/>
<line x1="2.10277" y1="77.7559" x2="2.10277" y2="0.795265" stroke="white" stroke-width="3.79446"/>
<line y1="1.89769" x2="80.1725" y2="1.89769" stroke="white" stroke-width="3.79446"/>
<line y1="1.89769" x2="80.1725" y2="1.89769" stroke="white" stroke-width="3.79446"/>
<line x1="308" y1="2.89769" x2="388.172" y2="2.89769" stroke="white" stroke-width="3.79446"/>
<line x1="308" y1="2.89769" x2="388.172" y2="2.89769" stroke="white" stroke-width="3.79446"/>
<line x1="389.897" y1="0.794922" x2="389.897" y2="77.7555" stroke="white" stroke-width="3.79446"/>
<line x1="389.897" y1="0.794922" x2="389.897" y2="77.7555" stroke="white" stroke-width="3.79446"/>
<line x1="389.897" y1="379.795" x2="389.897" y2="456.756" stroke="white" stroke-width="3.79446"/>
<line x1="389.897" y1="379.795" x2="389.897" y2="456.756" stroke="white" stroke-width="3.79446"/>
<line x1="390.172" y1="454.692" x2="309.999" y2="454.692" stroke="white" stroke-width="3.79446"/>
<line x1="390.172" y1="454.692" x2="309.999" y2="454.692" stroke="white" stroke-width="3.79446"/>
<line x1="83.1719" y1="454.692" x2="2.99939" y2="454.692" stroke="white" stroke-width="3.79446"/>
<line x1="83.1719" y1="454.692" x2="2.99939" y2="454.692" stroke="white" stroke-width="3.79446"/>
<line x1="2.10277" y1="456.756" x2="2.10277" y2="379.795" stroke="white" stroke-width="3.79446"/>
<line x1="2.10277" y1="456.756" x2="2.10277" y2="379.795" stroke="white" stroke-width="3.79446"/>
<rect y="0.794922" width="392" height="456" fill="white" fill-opacity="0.2"/>
</svg>
