<svg width="538" height="172" viewBox="0 0 538 172" fill="none" xmlns="http://www.w3.org/2000/svg">
<rect x="528.19" y="8.55779" width="154.357" height="517.354" transform="rotate(90 528.19 8.55779)" stroke="white" stroke-width="2.52964"/>
<rect x="15.3926" y="155.064" width="16.4184" height="15.3913" transform="rotate(90 15.3926 155.064)" fill="white"/>
<rect x="15.3926" y="134.996" width="16.4184" height="15.3913" transform="rotate(90 15.3926 134.996)" fill="white"/>
<rect x="15.3926" width="16.4184" height="15.3913" transform="rotate(90 15.3926 0)" fill="white"/>
<rect x="15.3926" y="20.0645" width="16.4184" height="15.3913" transform="rotate(90 15.3926 20.0645)" fill="white"/>
<rect x="537.998" y="155.064" width="16.4184" height="15.3913" transform="rotate(90 537.998 155.064)" fill="white"/>
<rect x="537.998" y="134.996" width="16.4184" height="15.3913" transform="rotate(90 537.998 134.996)" fill="white"/>
<rect x="537.998" width="16.4184" height="15.3913" transform="rotate(90 537.998 0)" fill="white"/>
<rect x="537.998" y="20.0645" width="16.4184" height="15.3913" transform="rotate(90 537.998 20.0645)" fill="white"/>
<rect x="221.617" width="16.4184" height="15.3913" transform="rotate(90 221.617 0)" fill="white"/>
<rect x="221.617" y="20.0645" width="16.4184" height="15.3913" transform="rotate(90 221.617 20.0645)" fill="white"/>
<rect x="221.617" width="16.4184" height="15.3913" transform="rotate(90 221.617 0)" fill="white"/>
<rect x="221.617" y="20.0645" width="16.4184" height="15.3913" transform="rotate(90 221.617 20.0645)" fill="white"/>
<line x1="212.628" y1="16.416" x2="212.628" y2="21.8888" stroke="white" stroke-width="2.52964"/>
<rect x="221.617" y="134.996" width="16.4184" height="15.3913" transform="rotate(90 221.617 134.996)" fill="white"/>
<rect x="221.617" y="155.064" width="16.4184" height="15.3913" transform="rotate(90 221.617 155.064)" fill="white"/>
<line x1="212.628" y1="151.412" x2="212.628" y2="156.885" stroke="white" stroke-width="2.52964"/>
<rect x="156.637" y="67.4922" width="16.4184" height="15.3913" transform="rotate(90 156.637 67.4922)" fill="white"/>
<rect x="156.637" y="87.5645" width="16.4184" height="15.3913" transform="rotate(90 156.637 87.5645)" fill="white"/>
<line x1="147.63" y1="83.916" x2="147.63" y2="89.3888" stroke="white" stroke-width="2.52964"/>
<rect x="86.5176" y="67.4922" width="16.4184" height="15.3913" transform="rotate(90 86.5176 67.4922)" fill="white"/>
<rect x="86.5176" y="87.5645" width="16.4184" height="15.3913" transform="rotate(90 86.5176 87.5645)" fill="white"/>
<rect x="40.3574" y="78.4434" width="16.4184" height="15.3913" transform="rotate(90 40.3574 78.4434)" fill="white"/>
<rect x="86.5176" y="127.701" width="16.4184" height="15.3913" transform="rotate(90 86.5176 127.701)" fill="white"/>
<rect x="86.5176" y="27.3633" width="16.4184" height="15.3913" transform="rotate(90 86.5176 27.3633)" fill="white"/>
<rect x="124.148" y="47.4297" width="16.4184" height="15.3913" transform="rotate(90 124.148 47.4297)" fill="white"/>
<rect x="124.148" y="107.635" width="16.4184" height="15.3913" transform="rotate(90 124.148 107.635)" fill="white"/>
<rect x="156.648" y="127.701" width="16.4184" height="15.3913" transform="rotate(90 156.648 127.701)" fill="white"/>
<rect x="156.648" y="27.3633" width="16.4184" height="15.3913" transform="rotate(90 156.648 27.3633)" fill="white"/>
<rect x="202.816" y="78.4434" width="16.4184" height="15.3913" transform="rotate(90 202.816 78.4434)" fill="white"/>
<rect x="426.84" y="69.3242" width="34.661" height="15.3913" transform="rotate(90 426.84 69.3242)" fill="white"/>
<rect x="399.477" y="78.4434" width="16.4184" height="15.3913" transform="rotate(90 399.477 78.4434)" fill="white"/>
<rect x="452.486" y="78.4434" width="16.4184" height="15.3913" transform="rotate(90 452.486 78.4434)" fill="white"/>
<rect x="520.896" y="78.4434" width="16.4184" height="15.3913" transform="rotate(90 520.896 78.4434)" fill="white"/>
<rect x="498.672" y="78.4434" width="16.4184" height="15.3913" transform="rotate(90 498.672 78.4434)" fill="white"/>
<rect x="510.637" y="65.6719" width="41.958" height="15.3913" transform="rotate(90 510.637 65.6719)" fill="white"/>
<rect x="426.84" y="47.4297" width="16.4184" height="15.3913" transform="rotate(90 426.84 47.4297)" fill="white"/>
<rect x="426.84" y="107.635" width="16.4184" height="15.3913" transform="rotate(90 426.84 107.635)" fill="white"/>
<line x1="77.5246" y1="83.916" x2="77.5246" y2="89.3888" stroke="white" stroke-width="2.52964"/>
<rect x="372.107" y="134.996" width="16.4184" height="15.3913" transform="rotate(90 372.107 134.996)" fill="white"/>
<rect x="372.107" y="155.064" width="16.4184" height="15.3913" transform="rotate(90 372.107 155.064)" fill="white"/>
<line x1="363.111" y1="151.412" x2="363.111" y2="156.885" stroke="white" stroke-width="2.52964"/>
<rect x="372.107" width="16.4184" height="15.3913" transform="rotate(90 372.107 0)" fill="white"/>
<rect x="372.107" y="20.0645" width="16.4184" height="15.3913" transform="rotate(90 372.107 20.0645)" fill="white"/>
<line x1="363.111" y1="16.416" x2="363.111" y2="21.8888" stroke="white" stroke-width="2.52964"/>
<rect x="481.557" width="16.4184" height="15.3913" transform="rotate(90 481.557 0)" fill="white"/>
<rect x="481.557" y="20.0645" width="16.4184" height="15.3913" transform="rotate(90 481.557 20.0645)" fill="white"/>
<line x1="472.558" y1="16.416" x2="472.558" y2="21.8888" stroke="white" stroke-width="2.52964"/>
<rect x="481.557" y="134.996" width="16.4184" height="15.3913" transform="rotate(90 481.557 134.996)" fill="white"/>
<rect x="481.557" y="155.064" width="16.4184" height="15.3913" transform="rotate(90 481.557 155.064)" fill="white"/>
<line x1="472.558" y1="151.412" x2="472.558" y2="156.885" stroke="white" stroke-width="2.52964"/>
<path d="M196.403 85.7393C196.403 112.322 176.221 133.729 151.494 133.729C126.767 133.729 106.585 112.322 106.585 85.7393C106.585 59.1569 126.767 37.749 151.494 37.749C176.221 37.7491 196.403 59.1569 196.403 85.7393Z" stroke="white" stroke-width="2.52964"/>
<path d="M122.878 85.7393C122.878 112.322 102.696 133.729 77.9688 133.729C53.2419 133.729 33.0596 112.322 33.0596 85.7393C33.0597 59.1569 53.2419 37.749 77.9688 37.749C102.696 37.7491 122.878 59.1569 122.878 85.7393Z" stroke="white" stroke-width="2.52964"/>
<path d="M446.097 84.833C446.097 100.837 433.953 113.668 419.144 113.668C404.334 113.668 392.192 100.836 392.191 84.833C392.191 68.8295 404.334 55.9973 419.144 55.9971C433.953 55.9971 446.097 68.8294 446.097 84.833Z" stroke="white" stroke-width="2.52964"/>
<rect x="297.098" y="28.9453" width="16.4184" height="15.3913" transform="rotate(90 297.098 28.9453)" fill="white"/>
<path d="M336.591 86.5811C336.591 113.171 315.667 134.663 289.935 134.663C264.202 134.663 243.278 113.171 243.278 86.5811C243.278 59.991 264.202 38.499 289.935 38.499C315.667 38.4991 336.591 59.9911 336.591 86.5811Z" stroke="white" stroke-width="2.52964"/>
<rect x="297.098" y="69.8184" width="34.661" height="15.3913" transform="rotate(90 297.098 69.8184)" fill="white"/>
<rect x="249.662" y="78.791" width="16.4184" height="15.3913" transform="rotate(90 249.662 78.791)" fill="white"/>
<rect x="346.85" y="79.1934" width="16.4184" height="15.3913" transform="rotate(90 346.85 79.1934)" fill="white"/>
<rect x="297.098" y="127.639" width="16.4184" height="15.3913" transform="rotate(90 297.098 127.639)" fill="white"/>
</svg>
