<svg width="382" height="122" viewBox="0 0 382 122" fill="none" xmlns="http://www.w3.org/2000/svg">
<rect x="374.739" y="6.44646" width="108.889" height="366.683" transform="rotate(90 374.739 6.44646)" stroke="white" stroke-width="2.52964"/>
<rect x="10.9297" y="110.127" width="11.66" height="10.9306" transform="rotate(90 10.9297 110.127)" fill="white"/>
<rect x="10.9297" y="95.873" width="11.66" height="10.9306" transform="rotate(90 10.9297 95.873)" fill="white"/>
<rect x="10.9297" width="11.66" height="10.9306" transform="rotate(90 10.9297 0)" fill="white"/>
<rect x="10.9297" y="14.25" width="11.66" height="10.9306" transform="rotate(90 10.9297 14.25)" fill="white"/>
<rect x="382.074" y="110.127" width="11.66" height="10.9306" transform="rotate(90 382.074 110.127)" fill="white"/>
<rect x="382.074" y="95.873" width="11.66" height="10.9306" transform="rotate(90 382.074 95.873)" fill="white"/>
<rect x="382.074" width="11.66" height="10.9306" transform="rotate(90 382.074 0)" fill="white"/>
<rect x="382.074" y="14.25" width="11.66" height="10.9306" transform="rotate(90 382.074 14.25)" fill="white"/>
<rect x="157.389" width="11.66" height="10.9306" transform="rotate(90 157.389 0)" fill="white"/>
<rect x="157.389" y="14.25" width="11.66" height="10.9306" transform="rotate(90 157.389 14.25)" fill="white"/>
<rect x="157.389" width="11.66" height="10.9306" transform="rotate(90 157.389 0)" fill="white"/>
<rect x="157.389" y="14.25" width="11.66" height="10.9306" transform="rotate(90 157.389 14.25)" fill="white"/>
<line x1="151.37" y1="11.6602" x2="151.37" y2="15.5468" stroke="white" stroke-width="2.52964"/>
<rect x="157.389" y="95.873" width="11.66" height="10.9306" transform="rotate(90 157.389 95.873)" fill="white"/>
<rect x="157.389" y="110.127" width="11.66" height="10.9306" transform="rotate(90 157.389 110.127)" fill="white"/>
<line x1="151.37" y1="107.529" x2="151.37" y2="111.416" stroke="white" stroke-width="2.52964"/>
<rect x="111.242" y="47.9355" width="11.66" height="10.9306" transform="rotate(90 111.242 47.9355)" fill="white"/>
<rect x="111.242" y="62.1875" width="11.66" height="10.9306" transform="rotate(90 111.242 62.1875)" fill="white"/>
<line x1="105.212" y1="59.5977" x2="105.212" y2="63.4843" stroke="white" stroke-width="2.52964"/>
<rect x="61.4375" y="47.9355" width="11.66" height="10.9306" transform="rotate(90 61.4375 47.9355)" fill="white"/>
<rect x="61.4375" y="62.1875" width="11.66" height="10.9306" transform="rotate(90 61.4375 62.1875)" fill="white"/>
<rect x="28.6562" y="55.7109" width="11.66" height="10.9306" transform="rotate(90 28.6562 55.7109)" fill="white"/>
<rect x="61.4375" y="90.6914" width="11.66" height="10.9306" transform="rotate(90 61.4375 90.6914)" fill="white"/>
<rect x="61.4375" y="19.4336" width="11.66" height="10.9306" transform="rotate(90 61.4375 19.4336)" fill="white"/>
<rect x="88.1641" y="33.6875" width="11.66" height="10.9306" transform="rotate(90 88.1641 33.6875)" fill="white"/>
<rect x="88.1641" y="76.4395" width="11.66" height="10.9306" transform="rotate(90 88.1641 76.4395)" fill="white"/>
<rect x="111.244" y="90.6914" width="11.66" height="10.9306" transform="rotate(90 111.244 90.6914)" fill="white"/>
<rect x="111.244" y="19.4336" width="11.66" height="10.9306" transform="rotate(90 111.244 19.4336)" fill="white"/>
<rect x="144.031" y="55.7109" width="11.66" height="10.9306" transform="rotate(90 144.031 55.7109)" fill="white"/>
<rect x="303.129" y="49.2344" width="24.6156" height="10.9306" transform="rotate(90 303.129 49.2344)" fill="white"/>
<rect x="283.697" y="55.7109" width="11.66" height="10.9306" transform="rotate(90 283.697 55.7109)" fill="white"/>
<rect x="321.344" y="55.7109" width="11.66" height="10.9306" transform="rotate(90 321.344 55.7109)" fill="white"/>
<rect x="369.926" y="55.7109" width="11.66" height="10.9306" transform="rotate(90 369.926 55.7109)" fill="white"/>
<rect x="354.145" y="55.7109" width="11.66" height="10.9306" transform="rotate(90 354.145 55.7109)" fill="white"/>
<rect x="362.641" y="46.6406" width="29.7979" height="10.9306" transform="rotate(90 362.641 46.6406)" fill="white"/>
<rect x="303.129" y="33.6875" width="11.66" height="10.9306" transform="rotate(90 303.129 33.6875)" fill="white"/>
<rect x="303.129" y="76.4395" width="11.66" height="10.9306" transform="rotate(90 303.129 76.4395)" fill="white"/>
<line x1="55.4191" y1="59.5977" x2="55.4191" y2="63.4843" stroke="white" stroke-width="2.52964"/>
<rect x="264.264" y="95.873" width="11.66" height="10.9306" transform="rotate(90 264.264 95.873)" fill="white"/>
<rect x="264.264" y="110.127" width="11.66" height="10.9306" transform="rotate(90 264.264 110.127)" fill="white"/>
<line x1="258.239" y1="107.529" x2="258.239" y2="111.416" stroke="white" stroke-width="2.52964"/>
<rect x="264.264" width="11.66" height="10.9306" transform="rotate(90 264.264 0)" fill="white"/>
<rect x="264.264" y="14.25" width="11.66" height="10.9306" transform="rotate(90 264.264 14.25)" fill="white"/>
<line x1="258.239" y1="11.6602" x2="258.239" y2="15.5468" stroke="white" stroke-width="2.52964"/>
<rect x="341.992" width="11.66" height="10.9306" transform="rotate(90 341.992 0)" fill="white"/>
<rect x="341.992" y="14.25" width="11.66" height="10.9306" transform="rotate(90 341.992 14.25)" fill="white"/>
<line x1="335.968" y1="11.6602" x2="335.968" y2="15.5468" stroke="white" stroke-width="2.52964"/>
<rect x="341.992" y="95.873" width="11.66" height="10.9306" transform="rotate(90 341.992 95.873)" fill="white"/>
<rect x="341.992" y="110.127" width="11.66" height="10.9306" transform="rotate(90 341.992 110.127)" fill="white"/>
<line x1="335.968" y1="107.529" x2="335.968" y2="111.416" stroke="white" stroke-width="2.52964"/>
<path d="M139.114 60.8926C139.114 79.5911 124.923 94.6074 107.587 94.6074C90.2509 94.6074 76.0597 79.591 76.0596 60.8926C76.0596 42.194 90.2508 27.1768 107.587 27.1768C124.923 27.1768 139.114 42.1939 139.114 60.8926Z" stroke="white" stroke-width="2.52964"/>
<path d="M86.8994 60.8926C86.8992 79.5911 72.7082 94.6074 55.3721 94.6074C38.036 94.6074 23.8449 79.591 23.8447 60.8926C23.8447 42.194 38.0359 27.1768 55.3721 27.1768C72.7083 27.1768 86.8994 42.1939 86.8994 60.8926Z" stroke="white" stroke-width="2.52964"/>
<path d="M316.444 60.2461C316.444 71.4315 307.963 80.3572 297.67 80.3574C287.377 80.3574 278.895 71.4317 278.895 60.2461C278.895 49.0604 287.377 40.1338 297.67 40.1338C307.963 40.134 316.444 49.0605 316.444 60.2461Z" stroke="white" stroke-width="2.52964"/>
<rect x="210.992" y="20.5586" width="11.66" height="10.9306" transform="rotate(90 210.992 20.5586)" fill="white"/>
<path d="M238.675 61.4883C238.675 80.1797 223.97 95.2683 205.907 95.2686C187.845 95.2686 173.139 80.1798 173.139 61.4883C173.139 42.7968 187.845 27.708 205.907 27.708C223.969 27.7083 238.675 42.797 238.675 61.4883Z" stroke="white" stroke-width="2.52964"/>
<rect x="210.992" y="49.582" width="24.6156" height="10.9306" transform="rotate(90 210.992 49.582)" fill="white"/>
<rect x="177.305" y="55.957" width="11.66" height="10.9306" transform="rotate(90 177.305 55.957)" fill="white"/>
<rect x="246.328" y="56.2441" width="11.66" height="10.9306" transform="rotate(90 246.328 56.2441)" fill="white"/>
<rect x="210.992" y="90.6465" width="11.66" height="10.9306" transform="rotate(90 210.992 90.6465)" fill="white"/>
</svg>
