<svg width="407" height="169" viewBox="0 0 407 169" fill="none" xmlns="http://www.w3.org/2000/svg">
<path d="M113.882 61.4912C113.552 61.466 113.845 59.2311 111.999 57.2695C111.686 56.9379 110.399 55.5719 108.572 55.3876C105.607 55.0869 103.159 58.0921 102.883 58.4394C99.9847 62.0965 102.261 66.2291 104.183 76.5989C105.381 83.0595 105.828 88.6412 105.941 90.1332C106.092 92.1451 106.945 104.125 110.675 108.32C111.061 108.752 111.53 109.28 112.363 109.643C115.171 110.863 119.189 109.643 119.189 109.643C119.189 109.643 119.925 126.107 127.532 140.161C134.072 152.242 143.506 158.514 145.38 159.727C148.477 161.729 155.264 166.015 165.455 167.627C168.41 168.095 174.256 168.97 181.383 167.627C192.816 165.474 202.999 158.472 202.999 158.472C202.999 158.472 197.049 154.471 193.897 152.029C191.497 150.168 184.901 144.951 180.624 136.43C178.025 131.254 177.252 126.788 176.831 124.246C176.831 124.246 175.909 118.666 176.074 108.626C175.785 108.816 174.071 109.905 171.758 109.528C169.204 109.111 168.016 107.245 167.864 106.995C167.108 105.99 166.041 104.432 165.06 102.414C161.847 95.802 163.157 91.6192 161.502 78.7815C161.222 76.6204 161.07 75.848 160.699 72.7845C159.343 61.6018 159.872 59.561 161.285 58.7809C162.862 57.9097 165.091 58.8604 165.277 58.9438C168.419 60.3273 168.482 64.2463 169.248 64.2074C170.396 64.1474 169.678 55.411 171.901 45.8966C173.67 38.3359 176.695 32.8611 178.357 29.8985C181.442 24.4021 184.011 19.8273 189.346 15.3786C194.83 10.8058 202.999 6.56276 202.999 6.56276C202.955 6.54918 190.227 1.0703 182.141 0.459168C173.902 -0.163624 161.593 -1.09488 148.01 4.86711C130.083 12.7362 122.572 27.0679 120.706 30.9772C114.003 45.0157 114.769 61.5629 113.88 61.4952L113.882 61.4912Z" fill="white"/>
<path d="M215.702 61.4912C215.372 61.466 215.665 59.2311 213.819 57.2695C213.507 56.9379 212.22 55.5719 210.393 55.3876C207.427 55.0869 204.979 58.0921 204.704 58.4394C201.805 62.0965 204.081 66.2291 206.003 76.5989C207.201 83.0595 207.648 88.6412 207.761 90.1332C207.913 92.1451 208.765 104.125 212.495 108.32C212.882 108.752 213.35 109.28 214.183 109.643C216.991 110.863 221.009 109.643 221.009 109.643C221.009 109.643 221.745 126.107 229.352 140.161C235.892 152.242 245.326 158.514 247.201 159.727C250.297 161.729 257.084 166.015 267.275 167.627C270.231 168.095 276.076 168.97 283.204 167.627C294.636 165.474 304.819 158.472 304.819 158.472C304.819 158.472 298.869 154.471 295.717 152.029C293.317 150.168 286.721 144.951 282.444 136.43C279.845 131.254 279.073 126.788 278.652 124.246C278.652 124.246 277.729 118.666 277.894 108.626C277.606 108.816 275.892 109.905 273.579 109.528C271.025 109.111 269.836 107.245 269.684 106.995C268.929 105.99 267.861 104.432 266.881 102.414C263.667 95.802 264.978 91.6192 263.322 78.7815C263.042 76.6204 262.89 75.848 262.519 72.7845C261.163 61.6018 261.693 59.561 263.105 58.7809C264.683 57.9097 266.911 58.8604 267.098 58.9438C270.239 60.3273 270.302 64.2463 271.068 64.2074C272.216 64.1474 271.498 55.411 273.722 45.8966C275.49 38.3359 278.515 32.8611 280.177 29.8985C283.262 24.4021 285.831 19.8273 291.167 15.3786C296.65 10.8058 304.819 6.56276 304.819 6.56276C304.775 6.54918 292.048 1.0703 283.961 0.459168C275.723 -0.163624 263.413 -1.09488 249.83 4.86711C231.904 12.7362 224.392 27.0679 222.526 30.9772C215.824 45.0157 216.59 61.5629 215.7 61.4952L215.702 61.4912Z" fill="white"/>
<path d="M317.528 61.4912C317.199 61.466 317.491 59.2311 315.645 57.2695C315.333 56.9379 314.046 55.5719 312.219 55.3876C309.253 55.0869 306.805 58.0921 306.53 58.4394C303.631 62.0965 305.907 66.2291 307.83 76.5989C309.027 83.0595 309.474 88.6412 309.587 90.1332C309.739 92.1451 310.591 104.125 314.321 108.32C314.708 108.752 315.176 109.28 316.009 109.643C318.817 110.863 322.836 109.643 322.836 109.643C322.836 109.643 323.571 126.107 331.178 140.161C337.718 152.242 347.152 158.514 349.027 159.727C352.123 161.729 358.91 166.015 369.102 167.627C372.057 168.095 377.902 168.97 385.03 167.627C396.463 165.474 406.645 158.472 406.645 158.472C406.645 158.472 400.696 154.471 397.543 152.029C395.143 150.168 388.547 144.951 384.271 136.43C381.671 131.254 380.899 126.788 380.478 124.246C380.478 124.246 379.556 118.666 379.721 108.626C379.432 108.816 377.718 109.905 375.405 109.528C372.851 109.111 371.662 107.245 371.51 106.995C370.755 105.99 369.688 104.432 368.707 102.414C365.493 95.802 366.804 91.6192 365.148 78.7815C364.868 76.6204 364.717 75.848 364.345 72.7845C362.989 61.6018 363.519 59.561 364.931 58.7809C366.509 57.9097 368.737 58.8604 368.924 58.9438C372.066 60.3273 372.129 64.2463 372.894 64.2074C374.042 64.1474 373.324 55.411 375.548 45.8966C377.316 38.3359 380.341 32.8611 382.003 29.8985C385.089 24.4021 387.657 19.8273 392.993 15.3786C398.476 10.8058 406.645 6.56276 406.645 6.56276C406.602 6.54918 393.874 1.0703 385.787 0.459168C377.549 -0.163624 365.239 -1.09488 351.657 4.86711C333.73 12.7362 326.218 27.0679 324.352 30.9772C317.65 45.0157 318.416 61.5629 317.526 61.4952L317.528 61.4912Z" fill="white"/>
<path d="M135.792 80.4458C135.664 78.546 139.525 76.8176 141.959 76.1934C148.836 74.424 157.118 78.1671 157.048 80.8385C156.997 82.7809 152.535 84.0659 151.76 84.2896C144.805 86.2922 135.982 83.2415 135.794 80.4458H135.792Z" fill="#B18FAE"/>
<path d="M12.3781 61.4912C12.0482 61.466 12.341 59.2311 10.4946 57.2695C10.1823 56.9379 8.89537 55.5719 7.0685 55.3876C4.10266 55.0869 1.65501 58.0921 1.37946 58.4394C-1.51925 62.0965 0.75675 66.2291 2.6792 76.5989C3.87698 83.0595 4.32387 88.6412 4.43671 90.1332C4.58855 92.1451 5.44109 104.125 9.17092 108.32C9.55739 108.752 10.026 109.28 10.8591 109.643C13.667 110.863 17.6851 109.643 17.6851 109.643C17.6851 109.643 18.4207 126.107 26.028 140.161C32.5677 152.242 42.0019 158.514 43.8764 159.727C46.9727 161.729 53.7598 166.015 63.9513 167.627C66.9065 168.095 72.7519 168.97 79.8794 167.627C91.3122 165.474 101.495 158.472 101.495 158.472C101.495 158.472 95.5452 154.471 92.3926 152.029C89.9929 150.168 83.3967 144.951 79.1202 136.43C76.5207 131.254 75.7484 126.788 75.3274 124.246C75.3274 124.246 74.4052 118.666 74.5701 108.626C74.2815 108.816 72.5675 109.905 70.2544 109.528C67.7006 109.111 66.5118 107.245 66.3596 106.995C65.6046 105.99 64.5372 104.432 63.5565 102.414C60.3429 95.802 61.6535 91.6192 59.998 78.7815C59.718 76.6204 59.5661 75.848 59.195 72.7845C57.839 61.6018 58.3683 59.561 59.7809 58.7809C61.3585 57.9097 63.5868 58.8604 63.7735 58.9438C66.9152 60.3273 66.9781 64.2463 67.7441 64.2074C68.892 64.1474 68.1737 55.411 70.3976 45.8966C72.166 38.3359 75.1906 32.8611 76.8529 29.8985C79.9382 24.4021 82.5071 19.8273 87.8426 15.3786C93.3257 10.8058 101.495 6.56276 101.495 6.56276C101.451 6.54918 88.7235 1.0703 80.6367 0.459168C72.3984 -0.163624 60.0891 -1.09488 46.5063 4.86711C28.5796 12.7362 21.0678 27.0679 19.2019 30.9772C12.4996 45.0157 13.2655 61.5629 12.3759 61.4952L12.3781 61.4912Z" fill="white"/>
<path d="M34.2882 80.4458C34.1606 78.546 38.0215 76.8176 40.4555 76.1934C47.3321 74.424 55.614 78.1671 55.5438 80.8385C55.4926 82.7809 51.0312 84.0659 50.2559 84.2896C43.3008 86.2922 34.4777 83.2415 34.2904 80.4458H34.2882Z" fill="#B18FAE"/>
<path d="M237.616 80.4458C237.489 78.546 241.35 76.8176 243.784 76.1934C250.66 74.424 258.942 78.1671 258.872 80.8385C258.821 82.7809 254.359 84.0659 253.584 84.2896C246.629 86.2922 237.806 83.2415 237.619 80.4458H237.616Z" fill="#B18FAE"/>
<path d="M339.441 80.4458C339.313 78.546 343.174 76.8176 345.608 76.1934C352.484 74.424 360.766 78.1671 360.696 80.8385C360.645 82.7809 356.184 84.0659 355.408 84.2896C348.453 86.2922 339.63 83.2415 339.443 80.4458H339.441Z" fill="#B18FAE"/>
</svg>
