<svg width="1920" height="93" viewBox="0 0 1920 93" fill="none" xmlns="http://www.w3.org/2000/svg">
<g clip-path="url(#clip0_868_305)">
<path d="M-297.273 89.17C-297.273 89.17 -73.9434 10.6121 125.083 3.72031C369.18 -4.73219 426.55 96.0099 666.32 82.1188C842.48 71.9137 818.33 10.8303 997.08 3.72031C1214.79 -4.93904 1240.93 90.1353 1459.05 82.1188C1640.42 75.4532 1614.61 4.93127 1798.01 3.72031C1986.87 2.4733 1967.18 82.4677 2156.1 82.1188C2343.45 81.7728 2321.38 3.72031 2508.73 3.72031C2696.09 3.72031 2926.48 89.17 2926.48 89.17" stroke="#B69AB4" stroke-width="6.32411"/>
<path d="M-711.953 89.17C-711.953 89.17 -488.623 10.6121 -289.597 3.72031C-45.498 -4.73219 11.87 96.0099 251.645 82.1188C427.8 71.9137 403.65 10.8303 582.4 3.72031C800.11 -4.93904 826.25 90.1353 1044.37 82.1188C1225.74 75.4532 1199.93 4.93127 1383.33 3.72031C1572.19 2.4733 1552.5 82.4677 1741.42 82.1188C1928.77 81.7728 1906.7 3.72031 2094.05 3.72031C2281.41 3.72031 2511.8 89.17 2511.8 89.17" stroke="#B69AB4" stroke-width="6.32411"/>
</g>
<defs>
<clipPath id="clip0_868_305">
<rect width="1920" height="93" fill="white"/>
</clipPath>
</defs>
</svg>
