<svg width="748" height="373" viewBox="0 0 748 373" fill="none" xmlns="http://www.w3.org/2000/svg">
<rect x="64" y="373" width="64" height="373" transform="rotate(-180 64 373)" fill="white"/>
<rect x="147" y="373" width="65" height="373" transform="rotate(-180 147 373)" fill="white"/>
<rect x="230" y="373" width="65" height="373" transform="rotate(-180 230 373)" fill="white"/>
<rect x="313" y="373" width="65" height="373" transform="rotate(-180 313 373)" fill="white"/>
<rect x="397" y="373" width="66" height="373" transform="rotate(-180 397 373)" fill="white"/>
<rect x="480" y="373" width="65" height="373" transform="rotate(-180 480 373)" fill="white"/>
<rect x="566" y="373" width="68" height="373" transform="rotate(-180 566 373)" fill="white"/>
<rect x="644" y="373" width="60" height="373" transform="rotate(-180 644 373)" fill="white"/>
<rect x="730" y="373" width="68" height="373" transform="rotate(-180 730 373)" fill="white"/>
</svg>
