<svg width="739" height="373" viewBox="0 0 739 373" fill="none" xmlns="http://www.w3.org/2000/svg">
<g clip-path="url(#clip0_1014_143)">
<rect x="721.998" y="437.001" width="64" height="481" transform="rotate(-180 721.998 437.001)" fill="white"/>
<rect x="638.998" y="439.001" width="60" height="481" transform="rotate(-180 638.998 439.001)" fill="white"/>
<rect x="562.998" y="439.001" width="68" height="481" transform="rotate(-180 562.998 439.001)" fill="white"/>
<rect x="477.998" y="439.001" width="65" height="481" transform="rotate(-180 477.998 439.001)" fill="white"/>
<rect x="396.998" y="439.001" width="67" height="481" transform="rotate(-180 396.998 439.001)" fill="white"/>
<rect x="313.998" y="439.001" width="65" height="481" transform="rotate(-180 313.998 439.001)" fill="white"/>
<rect x="230.998" y="439.001" width="65" height="481" transform="rotate(-180 230.998 439.001)" fill="white"/>
<rect x="148.998" y="439.001" width="65" height="481" transform="rotate(-180 148.998 439.001)" fill="white"/>
<rect x="63.998" y="439.001" width="64" height="481" transform="rotate(-180 63.998 439.001)" fill="white"/>
</g>
<defs>
<clipPath id="clip0_1014_143">
<rect width="739" height="373" fill="white"/>
</clipPath>
</defs>
</svg>
