<svg width="219" height="36" viewBox="0 0 219 36" fill="none" xmlns="http://www.w3.org/2000/svg">
<path d="M38.2973 20.999C38.2973 23.0973 37.9265 25.0276 37.1855 26.7894C36.4441 28.5513 35.4147 30.0731 34.0968 31.3544C32.7791 32.6359 31.2141 33.637 29.4023 34.3579C27.6068 35.0626 25.6468 35.415 23.5218 35.415H14.8247C12.6997 35.415 10.7313 35.0626 8.91945 34.3579C7.10761 33.637 5.54261 32.6359 4.22499 31.3544C2.90708 30.0731 1.86946 28.5513 1.11184 26.7894C0.370519 25.0276 0 23.0973 0 20.999V14.4158C0 12.3335 0.370519 10.4115 1.11184 8.64961C1.86946 6.87163 2.90737 5.3498 4.22499 4.08438C5.54261 2.80311 7.10761 1.80204 8.91945 1.08118C10.7313 0.360306 12.6997 0 14.8247 0H23.5218C25.6468 0 27.6068 0.360306 29.4023 1.08118C31.2141 1.80204 32.7791 2.80311 34.0968 4.08438C35.4147 5.3498 36.4441 6.87163 37.1855 8.64961C37.9265 10.4115 38.2973 12.3335 38.2973 14.4158V20.999ZM31.8731 14.4158C31.8731 13.1826 31.6673 12.0692 31.2555 11.0763C30.8602 10.067 30.2918 9.21002 29.5507 8.50528C28.8257 7.78469 27.9447 7.23193 26.9068 6.84758C25.8855 6.4471 24.7573 6.24699 23.5218 6.24699H14.8247C13.5729 6.24699 12.4279 6.4471 11.3902 6.84758C10.3689 7.23193 9.4876 7.78469 8.74656 8.50528C8.00524 9.21002 7.42866 10.067 7.01681 11.0763C6.62156 12.0692 6.42392 13.1826 6.42392 14.4158V20.999C6.42392 22.2324 6.62156 23.3538 7.01681 24.3627C7.42866 25.3559 8.00524 26.2129 8.74656 26.9335C9.4876 27.6385 10.3689 28.191 11.3902 28.5915C12.4279 28.9758 13.5729 29.168 14.8247 29.168H23.4723C24.7244 29.168 25.8607 28.9758 26.882 28.5915C27.9199 28.191 28.8094 27.6385 29.5507 26.9335C30.2918 26.2129 30.8602 25.3559 31.2555 24.3627C31.6673 23.3538 31.8731 22.2324 31.8731 20.999V14.4158ZM80.0538 32.2674C80.0538 32.716 79.9633 33.1324 79.782 33.5167C79.6172 33.9014 79.3867 34.2376 79.0901 34.526C78.8101 34.7983 78.4725 35.0145 78.0772 35.1747C77.6817 35.3349 77.2617 35.415 76.817 35.415C76.4217 35.415 76.018 35.3428 75.6064 35.1988C75.2109 35.0544 74.857 34.8223 74.5438 34.5019L51.0712 10.6676V34.9344H44.6473V3.14755C44.6473 2.50678 44.8283 1.93025 45.1907 1.41769C45.5696 0.889 46.0473 0.496436 46.6239 0.240291C47.2333 1.06122e-06 47.8591 -0.0560365 48.5018 0.0721727C49.1441 0.184253 49.696 0.472659 50.157 0.93711L73.6296 24.7471V0.480582H80.0538V32.2674ZM116.671 20.8549H96.3859V14.5601H116.671V20.8549ZM119.562 34.9344H96.3859C95.4964 34.9344 94.5246 34.7821 93.4704 34.4779C92.4162 34.1736 91.4359 33.6769 90.5301 32.9883C89.6406 32.2836 88.8909 31.3785 88.2817 30.2732C87.6885 29.1522 87.3919 27.7826 87.3919 26.1648V3.62813C87.3919 3.19539 87.4743 2.78698 87.639 2.40263C87.8038 2.01827 88.0261 1.68175 88.3061 1.39363C88.6027 1.10522 88.9488 0.881065 89.3441 0.720872C89.7393 0.560679 90.1675 0.480582 90.6288 0.480582H119.562V6.7273H93.8161V26.1648C93.8161 26.9816 94.0385 27.6063 94.4833 28.0387C94.928 28.4712 95.5788 28.6874 96.4351 28.6874H119.562V34.9344ZM132.262 34.9344H125.838V0.480582H132.262V34.9344ZM175.18 12.0612C175.18 13.4868 174.998 14.7602 174.636 15.8815C174.274 17.0026 173.779 17.9958 173.154 18.8607C172.544 19.7098 171.836 20.4386 171.029 21.0471C170.222 21.6559 169.373 22.1602 168.484 22.5607C167.611 22.9453 166.721 23.2256 165.815 23.4016C164.926 23.5779 164.086 23.6659 163.295 23.6659L176.712 34.9344H166.779L153.387 23.6659H148.767V17.4192H163.295C164.102 17.355 164.835 17.1948 165.494 16.9387C166.169 16.6664 166.746 16.3058 167.224 15.8575C167.718 15.4089 168.097 14.8723 168.36 14.2476C168.624 13.6068 168.755 12.8781 168.755 12.0612V8.12093C168.755 7.76856 168.706 7.50421 168.607 7.32816C168.525 7.13598 168.41 6.99958 168.261 6.91975C168.13 6.82353 167.981 6.76748 167.817 6.75135C167.668 6.7355 167.528 6.7273 167.397 6.7273H146.197V34.9344H139.773V3.62813C139.773 3.19539 139.856 2.78698 140.02 2.40263C140.185 2.01827 140.407 1.68175 140.687 1.39363C140.984 1.10522 141.33 0.881065 141.725 0.720872C142.12 0.560679 142.549 0.480582 143.01 0.480582H167.397C168.83 0.480582 170.041 0.73673 171.029 1.24929C172.017 1.746 172.816 2.37857 173.425 3.14755C174.051 3.90041 174.496 4.71722 174.76 5.59829C175.04 6.47908 175.18 7.3041 175.18 8.07281V12.0612ZM218.814 20.999C218.814 23.0973 218.443 25.0276 217.702 26.7894C216.961 28.5513 215.931 30.0731 214.614 31.3544C213.296 32.6359 211.731 33.637 209.919 34.3579C208.124 35.0626 206.164 35.415 204.039 35.415H195.341C193.216 35.415 191.248 35.0626 189.436 34.3579C187.624 33.637 186.059 32.6359 184.742 31.3544C183.424 30.0731 182.386 28.5513 181.628 26.7894C180.887 25.0276 180.517 23.0973 180.517 20.999V14.4158C180.517 12.3335 180.887 10.4115 181.628 8.64961C182.386 6.87163 183.424 5.3498 184.742 4.08438C186.059 2.80311 187.624 1.80204 189.436 1.08118C191.248 0.360306 193.216 0 195.341 0H204.039C206.164 0 208.124 0.360306 209.919 1.08118C211.731 1.80204 213.296 2.80311 214.614 4.08438C215.931 5.3498 216.961 6.87163 217.702 8.64961C218.443 10.4115 218.814 12.3335 218.814 14.4158V20.999ZM212.39 14.4158C212.39 13.1826 212.184 12.0692 211.772 11.0763C211.377 10.067 210.809 9.21002 210.067 8.50528C209.343 7.78469 208.461 7.23193 207.424 6.84758C206.402 6.4471 205.274 6.24699 204.039 6.24699H195.341C194.089 6.24699 192.945 6.4471 191.907 6.84758C190.886 7.23193 190.004 7.78469 189.263 8.50528C188.522 9.21002 187.945 10.067 187.534 11.0763C187.138 12.0692 186.941 13.1826 186.941 14.4158V20.999C186.941 22.2324 187.138 23.3538 187.534 24.3627C187.945 25.3559 188.522 26.2129 189.263 26.9335C190.004 27.6385 190.886 28.191 191.907 28.5915C192.945 28.9758 194.089 29.168 195.341 29.168H203.989C205.241 29.168 206.378 28.9758 207.399 28.5915C208.437 28.191 209.326 27.6385 210.067 26.9335C210.809 26.2129 211.377 25.3559 211.772 24.3627C212.184 23.3538 212.39 22.2324 212.39 20.999V14.4158Z" fill="white"/>
</svg>
