<svg width="102" height="169" viewBox="0 0 102 169" fill="none" xmlns="http://www.w3.org/2000/svg">
<path d="M89.117 61.4912C89.4469 61.466 89.1541 59.2311 91.0005 57.2695C91.3128 56.9379 92.5997 55.5719 94.4266 55.3876C97.3925 55.0869 99.8401 58.0921 100.116 58.4394C103.014 62.0965 100.738 66.2291 98.8159 76.5989C97.6181 83.0595 97.1712 88.6412 97.0584 90.1332C96.9066 92.1451 96.054 104.125 92.3242 108.32C91.9377 108.752 91.4691 109.28 90.6361 109.643C87.8281 110.863 83.81 109.643 83.81 109.643C83.81 109.643 83.0744 126.107 75.4671 140.161C68.9274 152.242 59.4932 158.514 57.6187 159.727C54.5224 161.729 47.7354 166.015 37.5439 167.627C34.5886 168.095 28.7432 168.97 21.6157 167.627C10.1829 165.474 0.000392329 158.472 0.000392329 158.472C0.000392329 158.472 5.94996 154.471 9.10248 152.029C11.5022 150.168 18.0984 144.951 22.3749 136.43C24.9744 131.254 25.7467 126.788 26.1677 124.246C26.1677 124.246 27.0899 118.666 26.925 108.626C27.2136 108.816 28.9277 109.905 31.2407 109.528C33.7945 109.111 34.9834 107.245 35.1355 106.995C35.8906 105.99 36.9579 104.432 37.9386 102.414C41.1522 95.802 39.8416 91.6192 41.4971 78.7815C41.7772 76.6204 41.929 75.848 42.3001 72.7845C43.6561 61.6018 43.1268 59.561 41.7142 58.7809C40.1366 57.9097 37.9083 58.8604 37.7216 58.9438C34.5799 60.3273 34.517 64.2463 33.7511 64.2074C32.6031 64.1474 33.3214 55.411 31.0975 45.8966C29.3292 38.3359 26.3045 32.8611 24.6423 29.8985C21.5569 24.4021 18.9881 19.8273 13.6526 15.3786C8.16938 10.8058 0.000392329 6.56276 0.000392329 6.56276C0.0438665 6.54918 12.7716 1.0703 20.8584 0.459168C29.0968 -0.163624 41.406 -1.09488 54.9888 4.86711C72.9155 12.7362 80.4273 27.0679 82.2932 30.9772C88.9955 45.0157 88.2296 61.5629 89.1193 61.4952L89.117 61.4912Z" fill="white"/>
<path d="M67.2069 80.4458C67.3346 78.546 63.4736 76.8176 61.0396 76.1934C54.163 74.424 45.8811 78.1671 45.9514 80.8385C46.0025 82.7809 50.4639 84.0659 51.2392 84.2896C58.1943 86.2922 67.0174 83.2415 67.2047 80.4458H67.2069Z" fill="#B18FAE"/>
</svg>
