<svg width="102" height="169" viewBox="0 0 102 169" fill="none" xmlns="http://www.w3.org/2000/svg">
<path d="M12.3781 61.4912C12.0482 61.466 12.341 59.2311 10.4946 57.2695C10.1823 56.9379 8.89537 55.5719 7.0685 55.3876C4.10266 55.0869 1.65501 58.0921 1.37946 58.4394C-1.51925 62.0965 0.75675 66.2291 2.6792 76.5989C3.87698 83.0595 4.32387 88.6412 4.43671 90.1332C4.58855 92.1451 5.44109 104.125 9.17092 108.32C9.55739 108.752 10.026 109.28 10.8591 109.643C13.667 110.863 17.6851 109.643 17.6851 109.643C17.6851 109.643 18.4207 126.107 26.028 140.161C32.5677 152.242 42.0019 158.514 43.8764 159.727C46.9727 161.729 53.7598 166.015 63.9513 167.627C66.9065 168.095 72.7519 168.97 79.8794 167.627C91.3122 165.474 101.495 158.472 101.495 158.472C101.495 158.472 95.5452 154.471 92.3926 152.029C89.9929 150.168 83.3967 144.951 79.1202 136.43C76.5207 131.254 75.7484 126.788 75.3274 124.246C75.3274 124.246 74.4052 118.666 74.5701 108.626C74.2815 108.816 72.5675 109.905 70.2544 109.528C67.7006 109.111 66.5118 107.245 66.3596 106.995C65.6046 105.99 64.5372 104.432 63.5565 102.414C60.3429 95.802 61.6535 91.6192 59.998 78.7815C59.718 76.6204 59.5661 75.848 59.195 72.7845C57.839 61.6018 58.3683 59.561 59.7809 58.7809C61.3585 57.9097 63.5868 58.8604 63.7735 58.9438C66.9152 60.3273 66.9781 64.2463 67.7441 64.2074C68.892 64.1474 68.1737 55.411 70.3976 45.8966C72.166 38.3359 75.1906 32.8611 76.8529 29.8985C79.9382 24.4021 82.5071 19.8273 87.8426 15.3786C93.3257 10.8058 101.495 6.56276 101.495 6.56276C101.451 6.54918 88.7235 1.0703 80.6367 0.459168C72.3984 -0.163624 60.0891 -1.09488 46.5063 4.86711C28.5796 12.7362 21.0678 27.0679 19.2019 30.9772C12.4996 45.0157 13.2655 61.5629 12.3759 61.4952L12.3781 61.4912Z" fill="white"/>
<path d="M34.2882 80.4458C34.1606 78.546 38.0215 76.8176 40.4555 76.1934C47.3321 74.424 55.614 78.1671 55.5438 80.8385C55.4926 82.7809 51.0312 84.0659 50.2559 84.2896C43.3008 86.2922 34.4777 83.2415 34.2904 80.4458H34.2882Z" fill="#B18FAE"/>
</svg>
