<svg width="407" height="169" viewBox="0 0 407 169" fill="none" xmlns="http://www.w3.org/2000/svg">
<path d="M292.763 61.4912C293.093 61.466 292.8 59.2311 294.647 57.2695C294.959 56.9379 296.246 55.5719 298.073 55.3876C301.039 55.0869 303.486 58.0921 303.762 58.4394C306.66 62.0965 304.384 66.2291 302.462 76.5989C301.264 83.0595 300.817 88.6412 300.704 90.1332C300.553 92.1451 299.7 104.125 295.97 108.32C295.584 108.752 295.115 109.28 294.282 109.643C291.474 110.863 287.456 109.643 287.456 109.643C287.456 109.643 286.721 126.107 279.113 140.161C272.574 152.242 263.139 158.514 261.265 159.727C258.169 161.729 251.381 166.015 241.19 167.627C238.235 168.095 232.389 168.97 225.262 167.627C213.829 165.474 203.646 158.472 203.646 158.472C203.646 158.472 209.596 154.471 212.749 152.029C215.148 150.168 221.745 144.951 226.021 136.43C228.62 131.254 229.393 126.788 229.814 124.246C229.814 124.246 230.736 118.666 230.571 108.626C230.86 108.816 232.574 109.905 234.887 109.528C237.441 109.111 238.629 107.245 238.782 106.995C239.537 105.99 240.604 104.432 241.585 102.414C244.798 95.802 243.488 91.6192 245.143 78.7815C245.423 76.6204 245.575 75.848 245.946 72.7845C247.302 61.6018 246.773 59.561 245.36 58.7809C243.783 57.9097 241.554 58.8604 241.368 58.9438C238.226 60.3273 238.163 64.2463 237.397 64.2074C236.249 64.1474 236.968 55.411 234.744 45.8966C232.975 38.3359 229.951 32.8611 228.288 29.8985C225.203 24.4021 222.634 19.8273 217.299 15.3786C211.815 10.8058 203.646 6.56276 203.646 6.56276C203.69 6.54918 216.418 1.0703 224.504 0.459168C232.743 -0.163624 245.052 -1.09488 258.635 4.86711C276.562 12.7362 284.073 27.0679 285.939 30.9772C292.642 45.0157 291.876 61.5629 292.765 61.4952L292.763 61.4912Z" fill="white"/>
<path d="M190.943 61.4912C191.273 61.466 190.98 59.2311 192.826 57.2695C193.139 56.9379 194.426 55.5719 196.252 55.3876C199.218 55.0869 201.666 58.0921 201.941 58.4394C204.84 62.0965 202.564 66.2291 200.642 76.5989C199.444 83.0595 198.997 88.6412 198.884 90.1332C198.732 92.1451 197.88 104.125 194.15 108.32C193.763 108.752 193.295 109.28 192.462 109.643C189.654 110.863 185.636 109.643 185.636 109.643C185.636 109.643 184.9 126.107 177.293 140.161C170.753 152.242 161.319 158.514 159.444 159.727C156.348 161.729 149.561 166.015 139.37 167.627C136.414 168.095 130.569 168.97 123.441 167.627C112.009 165.474 101.826 158.472 101.826 158.472C101.826 158.472 107.776 154.471 110.928 152.029C113.328 150.168 119.924 144.951 124.201 136.43C126.8 131.254 127.572 126.788 127.993 124.246C127.993 124.246 128.916 118.666 128.751 108.626C129.039 108.816 130.753 109.905 133.067 109.528C135.62 109.111 136.809 107.245 136.961 106.995C137.716 105.99 138.784 104.432 139.764 102.414C142.978 95.802 141.667 91.6192 143.323 78.7815C143.603 76.6204 143.755 75.848 144.126 72.7845C145.482 61.6018 144.953 59.561 143.54 58.7809C141.962 57.9097 139.734 58.8604 139.547 58.9438C136.406 60.3273 136.343 64.2463 135.577 64.2074C134.429 64.1474 135.147 55.411 132.923 45.8966C131.155 38.3359 128.13 32.8611 126.468 29.8985C123.383 24.4021 120.814 19.8273 115.478 15.3786C109.995 10.8058 101.826 6.56276 101.826 6.56276C101.87 6.54918 114.597 1.0703 122.684 0.459168C130.923 -0.163624 143.232 -1.09488 156.815 4.86711C174.741 12.7362 182.253 27.0679 184.119 30.9772C190.821 45.0157 190.055 61.5629 190.945 61.4952L190.943 61.4912Z" fill="white"/>
<path d="M89.1166 61.4912C89.4465 61.466 89.1537 59.2311 91.0001 57.2695C91.3124 56.9379 92.5993 55.5719 94.4262 55.3876C97.3921 55.0869 99.8397 58.0921 100.115 58.4394C103.014 62.0965 100.738 66.2291 98.8155 76.5989C97.6177 83.0595 97.1708 88.6412 97.058 90.1332C96.9062 92.1451 96.0536 104.125 92.3238 108.32C91.9373 108.752 91.4687 109.28 90.6357 109.643C87.8277 110.863 83.8096 109.643 83.8096 109.643C83.8096 109.643 83.074 126.107 75.4667 140.161C68.927 152.242 59.4928 158.514 57.6183 159.727C54.522 161.729 47.735 166.015 37.5435 167.627C34.5882 168.095 28.7428 168.97 21.6153 167.627C10.1825 165.474 -4.39936e-06 158.472 -4.39936e-06 158.472C-4.39936e-06 158.472 5.94956 154.471 9.10208 152.029C11.5018 150.168 18.098 144.951 22.3745 136.43C24.974 131.254 25.7463 126.788 26.1673 124.246C26.1673 124.246 27.0895 118.666 26.9246 108.626C27.2132 108.816 28.9273 109.905 31.2403 109.528C33.7941 109.111 34.983 107.245 35.1351 106.995C35.8902 105.99 36.9575 104.432 37.9382 102.414C41.1518 95.802 39.8412 91.6192 41.4967 78.7815C41.7768 76.6204 41.9286 75.848 42.2997 72.7845C43.6557 61.6018 43.1264 59.561 41.7138 58.7809C40.1363 57.9097 37.9079 58.8604 37.7212 58.9438C34.5796 60.3273 34.5166 64.2463 33.7507 64.2074C32.6027 64.1474 33.321 55.411 31.0971 45.8966C29.3288 38.3359 26.3041 32.8611 24.6419 29.8985C21.5565 24.4021 18.9877 19.8273 13.6522 15.3786C8.16899 10.8058 -4.39936e-06 6.56276 -4.39936e-06 6.56276C0.0434698 6.54918 12.7712 1.0703 20.858 0.459168C29.0964 -0.163624 41.4056 -1.09488 54.9884 4.86711C72.9151 12.7362 80.4269 27.0679 82.2928 30.9772C88.9951 45.0157 88.2292 61.5629 89.1189 61.4952L89.1166 61.4912Z" fill="white"/>
<path d="M270.853 80.4458C270.981 78.546 267.12 76.8176 264.686 76.1934C257.809 74.424 249.527 78.1671 249.597 80.8385C249.649 82.7809 254.11 84.0659 254.885 84.2896C261.84 86.2922 270.663 83.2415 270.851 80.4458H270.853Z" fill="#B18FAE"/>
<path d="M394.267 61.4912C394.597 61.466 394.304 59.2311 396.15 57.2695C396.463 56.9379 397.75 55.5719 399.577 55.3876C402.542 55.0869 404.99 58.0921 405.266 58.4394C408.164 62.0965 405.888 66.2291 403.966 76.5989C402.768 83.0595 402.321 88.6412 402.208 90.1332C402.057 92.1451 401.204 104.125 397.474 108.32C397.088 108.752 396.619 109.28 395.786 109.643C392.978 110.863 388.96 109.643 388.96 109.643C388.96 109.643 388.224 126.107 380.617 140.161C374.077 152.242 364.643 158.514 362.769 159.727C359.672 161.729 352.885 166.015 342.694 167.627C339.739 168.095 333.893 168.97 326.766 167.627C315.333 165.474 305.15 158.472 305.15 158.472C305.15 158.472 311.1 154.471 314.252 152.029C316.652 150.168 323.248 144.951 327.525 136.43C330.124 131.254 330.897 126.788 331.318 124.246C331.318 124.246 332.24 118.666 332.075 108.626C332.364 108.816 334.078 109.905 336.391 109.528C338.945 109.111 340.133 107.245 340.286 106.995C341.041 105.99 342.108 104.432 343.089 102.414C346.302 95.802 344.992 91.6192 346.647 78.7815C346.927 76.6204 347.079 75.848 347.45 72.7845C348.806 61.6018 348.277 59.561 346.864 58.7809C345.287 57.9097 343.058 58.8604 342.872 58.9438C339.73 60.3273 339.667 64.2463 338.901 64.2074C337.753 64.1474 338.471 55.411 336.248 45.8966C334.479 38.3359 331.455 32.8611 329.792 29.8985C326.707 24.4021 324.138 19.8273 318.803 15.3786C313.319 10.8058 305.15 6.56276 305.15 6.56276C305.194 6.54918 317.922 1.0703 326.008 0.459168C334.247 -0.163624 346.556 -1.09488 360.139 4.86711C378.066 12.7362 385.577 27.0679 387.443 30.9772C394.146 45.0157 393.38 61.5629 394.269 61.4952L394.267 61.4912Z" fill="white"/>
<path d="M372.357 80.4458C372.485 78.546 368.624 76.8176 366.19 76.1934C359.313 74.424 351.031 78.1671 351.101 80.8385C351.153 82.7809 355.614 84.0659 356.389 84.2896C363.344 86.2922 372.167 83.2415 372.355 80.4458H372.357Z" fill="#B18FAE"/>
<path d="M169.029 80.4458C169.156 78.546 165.296 76.8176 162.861 76.1934C155.985 74.424 147.703 78.1671 147.773 80.8385C147.824 82.7809 152.286 84.0659 153.061 84.2896C160.016 86.2922 168.839 83.2415 169.027 80.4458H169.029Z" fill="#B18FAE"/>
<path d="M67.2045 80.4458C67.3322 78.546 63.4713 76.8176 61.0373 76.1934C54.1606 74.424 45.8787 78.1671 45.949 80.8385C46.0002 82.7809 50.4616 84.0659 51.2369 84.2896C58.1919 86.2922 67.015 83.2415 67.2023 80.4458H67.2045Z" fill="#B18FAE"/>
</svg>
