<svg width="102" height="169" viewBox="0 0 102 169" fill="none" xmlns="http://www.w3.org/2000/svg">
<path d="M89.118 61.4912C89.4479 61.466 89.1551 59.2311 91.0014 57.2695C91.3138 56.9379 92.6007 55.5719 94.4276 55.3876C97.3934 55.0869 99.8411 58.0921 100.117 58.4394C103.015 62.0965 100.739 66.2291 98.8169 76.5989C97.6191 83.0595 97.1722 88.6412 97.0594 90.1332C96.9075 92.1451 96.055 104.125 92.3252 108.32C91.9387 108.752 91.4701 109.28 90.637 109.643C87.8291 110.863 83.811 109.643 83.811 109.643C83.811 109.643 83.0754 126.107 75.4681 140.161C68.9284 152.242 59.4942 158.514 57.6197 159.727C54.5234 161.729 47.7363 166.015 37.5448 167.627C34.5896 168.095 28.7442 168.97 21.6167 167.627C10.1839 165.474 0.00136889 158.472 0.00136889 158.472C0.00136889 158.472 5.95094 154.471 9.10345 152.029C11.5032 150.168 18.0994 144.951 22.3759 136.43C24.9754 131.254 25.7477 126.788 26.1687 124.246C26.1687 124.246 27.0909 118.666 26.9259 108.626C27.2146 108.816 28.9286 109.905 31.2417 109.528C33.7955 109.111 34.9843 107.245 35.1365 106.995C35.8915 105.99 36.9589 104.432 37.9396 102.414C41.1532 95.802 39.8426 91.6192 41.4981 78.7815C41.7781 76.6204 41.93 75.848 42.3011 72.7845C43.6571 61.6018 43.1278 59.561 41.7152 58.7809C40.1376 57.9097 37.9093 58.8604 37.7226 58.9438C34.5809 60.3273 34.5179 64.2463 33.752 64.2074C32.6041 64.1474 33.3224 55.411 31.0985 45.8966C29.3301 38.3359 26.3055 32.8611 24.6432 29.8985C21.5578 24.4021 18.989 19.8273 13.6535 15.3786C8.17036 10.8058 0.00136889 6.56276 0.00136889 6.56276C0.0448431 6.54918 12.7725 1.0703 20.8594 0.459168C29.0977 -0.163624 41.407 -1.09488 54.9898 4.86711C72.9165 12.7362 80.4283 27.0679 82.2941 30.9772C88.9965 45.0157 88.2306 61.5629 89.1202 61.4952L89.118 61.4912Z" fill="white"/>
<path d="M72.0106 80.6176C72.1383 78.7179 68.2773 76.9895 65.8433 76.3653C58.9667 74.5959 50.6848 78.3389 50.7551 81.0104C50.8062 82.9528 55.2677 84.2378 56.0429 84.4615C62.998 86.4641 71.8211 83.4134 72.0084 80.6176H72.0106Z" fill="#B18FAE"/>
</svg>
