<svg width="910" height="505" viewBox="0 0 910 505" fill="none" xmlns="http://www.w3.org/2000/svg">
<path d="M2 -12C5.4295 -9.79225 18.623 -3.48568 28.1102 3.21119C39.6378 11.3483 45.6137 25.038 49.5453 32.9236C51.1108 36.0633 55.0212 46.5562 62.0684 67.7137C70.8432 94.0576 75.2505 114.032 79.144 121.298C84.4034 131.113 97.1863 137.425 117.607 143.952C124.777 146.244 134.115 146.717 151.614 147.383C169.113 148.049 194.689 148.142 279.142 139.966C363.595 131.79 506.151 115.342 582.383 106.857C658.614 98.3716 664.201 98.348 668.6 98.8418C687.357 100.947 703.285 116.451 708.464 122.452C709.682 123.864 710.131 125.441 709.961 126.738C709.791 128.034 708.788 129.152 707.379 129.97C704.397 131.701 688.685 132.071 653.373 135.777C631.577 138.065 602.5 145.677 520.286 152.587C438.073 159.497 303.754 166.625 217.967 173.978C132.179 181.331 98.9924 188.693 79.6315 193.358C55.5845 199.153 49.453 202.555 46.4829 204.511C43.9514 206.179 42.7688 209.019 42.3388 212.391C42.1237 214.079 42.1926 215.747 42.7839 217.45C44.0413 221.073 49.1381 224.469 68.483 231.083C84.258 236.476 112.968 243.38 153.046 248.353C193.124 253.326 243.915 255.489 323.275 250.137C402.635 244.784 509.025 231.852 568.385 225.225C627.744 218.599 636.848 218.67 648.162 219.877C672.84 222.51 689.151 226.845 693.872 228.944C695.911 229.851 696.851 231.184 697.442 233.559C698.034 235.935 698.154 239.505 697.831 241.87C697.507 244.235 696.737 245.288 695.437 246.131C689.176 250.191 681.148 247.67 668.143 242.43C663.865 240.706 658.844 239.563 647.649 238.666C636.454 237.769 619.165 237.347 571.048 239.335C522.931 241.324 444.51 245.737 362.779 248.423C281.048 251.11 198.384 251.936 148.716 253.435C99.0487 254.934 84.883 257.081 76.5406 258.641C66.0033 260.611 62.8115 263.095 60.8953 265.441C58.9858 267.778 59.3785 273.669 60.0441 279.653C60.2875 281.84 62.041 281.943 62.8459 280.582C63.6508 279.221 63.889 276.3 64.6351 274.476C65.3812 272.653 66.628 272.016 67.8574 272.051C69.0867 272.087 70.2609 272.813 71.0051 274.014C76.4082 282.735 73.0705 297.352 75.1236 300.234C76.1182 301.63 78.2393 301.778 89.9322 302.048C101.625 302.318 123.138 302.421 215.989 296.737C308.84 291.053 472.376 279.578 559.818 273.966C647.259 268.354 653.65 268.952 659.721 269.882C671.413 271.673 678.112 274.233 679.716 276.255C681.288 278.235 679.6 281.658 677.634 284.878C672.822 292.76 663.963 296.642 622.183 306.616C600.949 311.685 566.935 312.236 547.521 313.567C528.106 314.898 523.911 314.799 495.765 311.907C467.62 309.015 415.65 303.333 337.326 304.357C259.002 305.381 155.899 313.282 102.101 317.546C48.302 321.81 46.9319 322.197 46.4566 323.018C43.987 327.284 51.0854 333.408 57.9282 353.879C61.1937 363.649 67.4827 372.342 75.6175 382.004C91.3254 400.661 106.308 406.202 126.386 413.341C139.304 417.934 158.724 421.529 190.598 424.851C222.473 428.173 266.458 430.354 291.323 431.195C316.187 432.036 320.598 431.47 383.01 416.877C445.421 402.285 565.698 373.683 628.42 358.933C691.143 344.183 692.665 344.15 693.646 343.415C701.396 337.605 700.768 313.807 699.998 303.643C699.311 294.561 687.026 280.763 677.597 270.858C673.255 266.299 661.313 262.192 639.628 249.793C625.396 241.656 606.196 227.142 593.58 217.628C575.456 203.959 564.094 189.834 552.452 173.399C542.83 159.816 540.125 148.931 538.433 126.11C536.974 106.429 536.633 70.1615 535.899 50.8491C535.164 31.5367 534.644 30.2426 533.363 28.983C521.396 17.2144 488.722 20.9338 477.325 21.2058C472.977 21.3095 471.654 22.9273 464.48 42.1333C457.306 61.3393 444.348 98.4895 436.67 126.164C428.992 153.839 426.987 170.912 426.301 186.474C425.615 202.036 426.309 215.57 430.116 235.557C433.923 255.544 440.821 281.575 445.53 317.365C450.239 353.155 452.55 397.916 453.624 422.273C455.086 455.442 449.725 467.938 445.175 476.242C441.385 483.159 431.228 485.418 413.743 486.422C405.063 486.921 399.21 481.875 394.093 476.738C391.472 474.106 387.803 463.76 381.74 439.045C377.788 422.94 375.67 398.817 374.144 374.06C372.618 349.304 372.673 324.444 374.322 297.171C375.972 269.898 379.216 240.965 380.887 204.185C382.558 167.405 382.558 123.654 381.831 99.8137C381.105 75.9729 379.652 73.3678 376.994 70.2781C364.411 55.6482 356.133 48.3906 353.872 46.983C352.714 46.2619 351.169 46.219 349.83 46.6626C342.786 48.9964 332.078 70.0916 318.425 98.3798C312.055 111.578 308.712 123.299 306.222 131.856C303.732 140.414 302.682 145.674 304.751 196.944C306.821 248.214 312.043 345.333 314.513 396.57C317.097 450.196 315.268 454.432 313.261 457.928C311.043 461.792 307.403 463.718 304.235 464.335C294.742 466.186 276.319 442.994 263.922 430.847C255.467 422.562 255.343 411.071 253.422 385.147C252.003 365.997 252.432 334.522 256.459 299.709C260.486 264.895 268.801 227.657 273.627 186.49C278.452 145.322 279.535 101.353 280 77.7181C280.656 44.4423 271.36 30.6128 266.625 26.5505C263.822 24.1465 259.418 24.1744 255.653 24.3138C252.251 24.4397 236.208 40.9098 212.826 66.6385C200.167 80.5678 196.668 90.2318 193.688 100.58C191.941 106.648 191.053 114.72 190.347 129.406C189.642 144.093 189.488 165.237 191.318 210.519C193.148 255.8 196.966 324.578 197.461 371.444C197.955 418.309 195.011 441.179 192.568 456.085C189.077 477.39 185.155 485.927 182.791 489.941C180.901 493.151 178.281 494.724 175.607 495.675C165.71 499.196 144.685 493.876 132.356 488.403C128.639 486.752 126.428 484.125 123.929 481.052C120.405 476.719 118.446 472.169 117.016 425.737C115.631 380.774 115.264 292.304 120.06 224.144C124.855 155.984 135.426 110.801 142.226 84.1427C153.325 40.6313 160.687 33.5735 167.158 27.1535C172.453 21.9009 192.573 23.7154 206.24 25.135C219.641 26.5271 229.196 35.3658 235.558 40.8015C242.784 46.9748 247.129 57.1145 252.186 69.1515C255.089 76.0612 257.472 85.074 261.132 144.258C264.792 203.442 269.35 312.645 272.18 371.728C275.011 430.811 275.975 436.463 278.561 445.224C289.686 482.93 299.647 495.028 306.444 500.689C309.523 503.253 313.79 502.734 316.993 502.233C318.585 501.985 319.828 500.623 321.715 498.105C323.602 495.588 326.023 491.668 345.751 429.28C365.479 366.891 402.442 246.153 422.937 175.047C443.432 103.94 446.34 86.1255 448.071 76.1204C450.093 64.4281 451.968 60.6488 454.583 56.5564C457.164 52.5178 461.51 49.093 474.242 41.84C501.976 26.0405 524.233 17.1677 529.902 15.7441C532.681 15.0465 535.419 15.1365 537.628 15.9629C539.837 16.7893 541.476 18.5379 545.19 28.5378C548.905 38.5377 554.645 56.736 558.951 91.708C563.256 126.68 565.953 177.874 563.855 228.585C561.758 279.295 554.786 327.97 551.171 357.403C546.498 395.441 547.721 406.451 549.022 410.389C552.036 419.516 565.066 422.575 596 428.433C604.37 430.019 608.317 428.509 611.557 426.284C613.229 425.137 614.192 423 618.939 399.291C623.687 375.582 631.996 330.121 637.836 271.534C643.676 212.946 646.797 142.609 648.734 105.269C651.088 59.8787 659.043 50.1135 663.614 45.0908C665.575 42.9366 668.511 42.1939 671.372 41.9316C674.231 41.6697 681.916 55.7845 692.48 78.4889C699.623 93.84 702.993 111.392 705.968 136.823C707.637 151.094 707.505 168.348 703.663 200.031C699.822 231.713 691.731 277.356 687.318 318.022C682.905 358.687 682.416 392.992 682.415 411.754C682.414 432.702 686.305 438.98 691.684 446.108C698.506 455.15 704.564 457.21 710.413 457.965C713.068 458.307 714.939 455.032 716.537 452.362C718.175 449.626 719.936 438.503 722.843 422.928C724.544 413.814 726.814 409.86 729.172 381.704C731.419 354.866 734.591 302.456 743.832 245.257C753.072 188.058 767.976 127.635 776.065 95.6575C784.154 63.6805 784.977 61.981 785.976 61.4324C787.863 60.3965 795.756 82.8575 806.274 119.592C810.842 135.547 811.852 146.586 812.677 158.357C814.36 182.395 813.374 198.35 810.654 213.342C808.512 225.149 803.809 245.285 799.827 271.586C795.845 297.887 792.468 329.692 790.717 353.506C787.879 392.117 789.718 408.673 791.646 410.637C793.615 412.642 797.038 412.441 799.763 412.761C801.151 412.924 802.586 412.401 803.59 411.11C804.594 409.819 805.133 407.6 805.78 393.294C806.426 378.987 807.165 352.659 807.314 338.203C807.481 321.957 797.444 310.414 782.778 295.096C775.805 287.814 771.233 285.922 760.555 282.451C752.233 279.746 737.644 276.341 719.504 270.096C701.365 263.85 680.023 255.179 664.513 249.779C640.344 241.364 624.845 238.378 615.043 234.439C603.701 229.882 597.847 222.764 595.864 219.872C594.948 218.535 594.961 217.024 595.625 215.458C596.288 213.893 597.794 212.207 612.412 205.816C627.031 199.424 654.717 188.379 671.014 182.167C691.217 174.466 699.374 173.614 705.596 174.017C712.591 174.47 718.827 182.873 743.197 188.873C754.649 191.692 763.647 188.76 769.354 186.268C777.056 182.905 778.591 175.187 784.07 169.303C795.695 156.818 800.51 143.204 803.982 132.57C805.92 126.634 810.56 121.929 813.884 115.834C815.256 113.317 818.376 111.693 821.17 109.493C826.984 104.915 825.178 92.962 826.333 87.6935C827.5 82.3685 828.318 77.1988 831.839 67.2751C834.422 59.995 836.436 54.5906 840.256 49.6171C844.569 44.0021 850.262 40.755 855.024 37.5219C859.856 34.2403 865.409 33.9844 869.67 30.7882C874.47 27.1866 877.743 21.2398 880.747 16.356C882.412 13.6498 882.63 10.6037 884.575 8.84609C888.667 5.14902 893.823 3.32121 899.137 1.67306C903.658 -1.13812 906.035 -4.52119 907.815 -6.52145C908.683 -7.57395 909.479 -8.70248 910.452 -10.0341" stroke="white" stroke-width="4" stroke-linecap="round"/>
</svg>
