<svg width="914" height="521" viewBox="0 0 914 521" fill="none" xmlns="http://www.w3.org/2000/svg">
<path d="M2 2C10.0214 2.13476 31.5227 36.6358 43.3794 43.5699C54.3953 50.0123 55.5502 70.4755 60.6428 88.4327C73.4265 133.51 69.6769 217.337 73.8181 264.502C77.9593 311.668 80.7916 321.309 84.8417 331.646C93.2362 353.072 105.156 372.027 115.756 386.609C135.763 414.132 171.664 433.937 190.609 441.135C206.563 447.197 224.063 447.398 236.02 446.448C241.291 446.029 244.521 442.886 247.035 440.116C249.549 437.346 251.142 434.315 258.142 411.279C265.141 388.244 277.5 345.296 285.565 309.136C293.631 272.975 297.029 244.904 298.821 226.079C301.439 198.584 300.222 186.537 298.738 180.743C295.947 169.84 285.253 163.214 271.872 155.857C258.503 148.506 241.669 146.869 229.661 147.667C224.734 147.995 222.541 150.862 220.706 153.896C216.808 160.341 214.619 172.284 212.12 196.214C207.856 237.061 212.572 270.427 217.219 286.015C227.191 319.473 250.958 341.505 269.172 356.918C279.7 365.827 296.934 371.124 317.367 376.61C339.668 382.598 364.861 382.924 391.23 382.194C405.062 381.811 419.659 378.603 434.963 374.262C450.266 369.922 465.795 363.831 487.568 352.452C509.341 341.073 536.888 324.591 560.089 308.345C583.29 292.098 601.31 276.586 617.936 260.095C650.485 227.807 668.134 201.218 674.398 187.248C678.829 177.366 679.349 170.329 679.442 165.515C679.677 153.328 650.418 132.304 626.684 119.964C598.218 105.163 569.425 109.516 556.765 112.155C546.978 114.195 540.992 127.592 533.757 143.361C530.139 151.246 528.926 160.578 527.919 176.417C526.143 204.345 529.838 227.477 533.575 237.714C541.894 260.504 568.06 280.911 589.422 293.485C601.624 300.668 615.868 303.172 636.227 305.443C670.56 309.272 697.19 307.149 707.866 305.176C731.511 300.804 757.836 283.171 773.1 270.404C781.726 263.189 779.939 244.179 777.31 226.981C774.206 206.665 745.175 186.405 712.396 161.147C694.656 147.478 671.509 136.445 656.108 128.958C633.426 117.93 617.637 115.309 600.1 113.473C558.024 109.068 535.003 121.366 514.189 136.494C492.998 151.896 481.292 177.247 471.356 203.362C466.215 216.874 466.442 237.397 466.187 260.315C465.984 278.487 470.617 294.089 476.491 309.368C482.537 325.096 493.019 338.838 503.532 351.419C523.486 375.298 552.76 385.487 583.07 391.714C602.013 395.605 622.462 393.048 640.216 391C655.883 389.192 670.682 380.301 686.308 371.054C716.185 353.375 733.948 326.19 746.327 301.874C756.928 281.051 756.571 255.032 755.942 236.471C755.09 211.313 730.739 187.944 703.692 164.331C687.143 149.884 663.016 140.744 640.274 131.172C629.61 126.683 620.218 124.199 593.516 121.833C566.814 119.467 522.956 117.615 494.874 117.617C455.765 117.621 434.426 125.4 414.64 133.786C395.304 141.981 378.677 154.326 363.572 166.576C349.177 178.249 338.551 192.56 329.05 206.329C319.632 219.978 315.098 236.006 311.515 259.07C305.61 297.069 309.227 327.848 312.559 341.983C319.962 373.381 341.003 397.712 361.266 417.893C379.646 436.199 408.014 437.685 435.719 438.913C453.385 439.696 471.268 430.47 493.16 417.531C507.209 409.226 524.984 393.859 543.978 374.5C562.973 355.14 582.074 331.349 594.097 314.762C611.764 290.387 617.751 272.734 623.25 254.462C630.106 231.685 631.99 202.757 632.153 176.47C632.259 159.468 622.691 147.034 611.345 134.671C600.045 122.356 585.236 115.169 568.803 108.582C547.567 100.069 522.346 95.6403 481.926 92.1737C453.715 89.7542 409.563 90.8288 382.257 91.7653C345.655 93.0207 328.158 99.9046 312.46 106.525C297.633 112.778 285.723 121.777 274.037 132.53C258.988 146.378 249.16 163.594 242.292 176.604C236.23 188.088 234.636 204.217 232.992 224.91C229.752 265.7 238.319 283.142 248.482 299.686C258.834 316.54 281.325 324.794 302.81 329.424C326.108 334.446 352.848 324.671 380.938 311.43C408.066 298.642 428.088 270.844 444.117 246.965C461.244 221.452 453.983 194.319 446.429 174.363C437.84 151.672 406.311 139.814 376.781 126.535C361.296 119.571 345.633 116.995 324.486 114.437C288.161 110.042 261.784 111.958 255.738 113.5C246.175 115.937 241.654 131.825 235.19 169.393C227.344 214.988 233.533 249.029 235.853 257.48C237.934 265.06 241.829 270.637 245.863 275.039C250.218 279.79 257.51 281.876 265.027 283.595C281.65 287.398 308.369 271.386 341.161 246.463C365.082 228.283 379.331 208.48 388.002 196.377C407.484 169.183 409.045 150.549 411.17 133.371C412.281 124.391 409.794 115.314 406.77 107.535C401.155 93.0896 378.773 81.3736 355.861 70.4755C345.868 65.7225 329.807 63.4384 305.829 60.4468C257.018 54.3571 245.961 62.7823 236.14 68.7492C223.984 76.1345 211.824 97.3617 204.877 112.869C197.038 130.366 201.571 154.273 206.533 161.375C211.789 168.898 223.48 169.319 243.535 169.883C251.078 170.095 256.051 165.177 259.684 160.72C262.492 157.275 261.515 151.817 260.848 146.774C259.635 137.6 238.131 121.838 217.627 108.488C209.067 102.915 197.988 100.369 184.356 97.1743C141.282 87.0791 105.613 93.4687 96.9783 96.8242C94.5355 97.7735 92.3905 100.284 90.7408 102.423C76.4969 120.892 89.5461 166.772 97.5356 191.379C101.955 204.99 110.466 212.942 118.951 220.27C122.305 223.167 132.505 222.724 146.735 221.295C173.079 218.648 191.455 190.312 201.611 176.817C208.521 167.635 208.237 150.933 206.464 140.142C205.766 135.895 200.061 133.577 195.148 130.932C174.692 119.925 136.323 126.033 120.618 131.078C105.297 136 95.6981 146.577 87.5662 156.031C83.5301 160.724 79.8466 170.542 74.5612 186.378C67.7906 206.665 66.3611 239.797 65.4543 272.697C65.0313 288.042 67.7609 294.255 71.3175 300.04C78.6177 311.913 93.3281 318.123 108.493 323.955C135.344 334.282 177.236 328.484 201.606 320.43C221.682 313.794 227.119 303.887 231.466 296.117C232.728 293.861 232.558 290.485 231.165 287.161C228.019 279.654 219.617 274.758 212.417 270.93C206.01 267.524 181.588 265.664 147.391 264.254C118.812 263.075 94.7276 286.823 73.8712 309.832C64.5192 320.149 59.7808 332.792 54.4286 346.086C47.1495 364.166 44.4172 390.157 43.3794 414.215C42.8134 427.337 45.5268 434.287 49.1948 440.405C57.069 453.54 73.213 458.758 88.2185 463.141C112.695 470.29 134.317 461.004 174.631 437.048C206.985 417.821 219.647 394.601 226.177 381.085C233.629 365.661 230.717 344.686 227.001 334.186C223.253 323.592 209.472 320.54 195.269 318.738C181.448 316.985 169.541 319.953 162.541 322.963C144.498 330.72 124.718 359.817 112.105 381.593C100.667 401.343 101.735 432.492 110.862 452.115C118.851 469.29 146.034 468.067 176.179 468.507C209.433 468.993 230.214 446.763 249.994 427.465C267.647 410.242 269.702 396.796 272.272 384.422C274.045 375.89 273.062 368.786 272.166 364.845C270.234 356.34 258.237 352.37 247.273 349.178C232.561 344.895 215.247 348.764 207.804 353.073C197.571 358.997 195.261 374.727 192.913 405.523C192.126 415.852 194.402 422.385 197.617 428.807C205.9 445.345 227.528 453.067 255.118 458.222C279.346 462.75 301.947 460.212 317.019 458.659C332.039 457.112 346.564 450.56 363.674 441.375C386.787 428.966 409.337 409.146 426.869 392.162C443.305 376.24 448.221 360.813 451.122 345.764C453.271 334.614 450.723 324.838 448.089 318.97C439.715 300.316 410.407 289.952 390.542 286.787C372.46 283.906 357.475 288.173 350.154 292.696C335.603 301.687 331.1 317.652 324.958 343.46C317.986 372.752 321.149 397.978 323.3 409.47C327.675 432.848 349.047 450.605 371.104 465.596C394.773 481.683 428.091 478.784 460.624 476.338C477.746 475.051 491.67 466.376 505.055 457.911C539.731 435.982 550.662 414.144 555.016 403.425C560.233 390.584 557.806 373.981 553.075 363.499C547.18 350.44 533.284 342.951 522.369 336.977C512.223 331.424 495.226 332.677 481.573 336.048C468.834 339.194 462.101 358.075 454.382 378.448C445.069 403.029 453.908 436.446 462.571 460.417C471.342 484.686 495.009 500.184 517.548 512.324C529.079 518.535 543.965 518.037 559.884 518.644C578.561 519.356 597.462 516.308 613.636 512.002C628.25 508.111 643.38 495.528 660.936 481.985C676.562 469.931 685.579 456.626 691.271 446.205C696.159 437.258 695.691 428.709 693.679 422.475C689.627 409.926 672.078 404.219 657.755 398.233C632.733 387.776 594.145 389.444 579.939 390.324C575.538 390.597 571.061 394.418 567.028 398.793C563.365 402.768 565.508 409.03 567.998 414.257C571.082 420.732 581.423 429.043 596.922 440.475C614.686 453.577 639.919 462.518 663.061 470.624C696.721 482.413 733.858 477.089 743.969 472.414C753.535 467.992 754.595 448.853 753.969 437.596C753.026 420.626 728.583 397.231 709.24 380.807C697.487 370.828 683.853 370.044 667.927 369.195C664.242 368.998 661.663 370.099 659.561 371.526C657.459 372.954 655.913 375.101 656.118 377.711C656.324 380.321 658.328 383.329 660.962 385.522C666.183 389.87 679.836 392.726 706.258 397.011C745.879 403.436 774.955 400.845 784.555 399.013C804.561 395.195 818.248 384.889 827.694 375.919C835.748 368.271 835.784 351.38 832.958 335.683C830.057 319.569 806.797 308.153 791.061 299.73C776.056 291.697 750.963 297.621 738.315 306.137C729.677 311.954 728.306 322.616 726.778 350.877C725.839 368.255 733.616 380.779 740.425 391.874C746.371 401.562 756.902 404.552 769.119 406.539C781.423 408.541 791.695 406.128 798.783 402.397C822.119 390.115 825.08 376.238 829.181 360.774C830.785 354.729 828.891 348.617 825.911 341.822C816.819 321.089 784.769 306.258 764.821 296.848C737.07 283.756 709.301 287.783 695.022 291.105C683.564 293.771 678.264 311.799 672.448 340.338C663.882 382.373 678.535 398.195 688.267 411.469C696.643 422.895 709.383 426.072 723.87 427.165C741.38 428.485 763.744 405.848 790.59 377.304C818.58 347.545 829.446 319.675 835.073 302.915C842.472 280.876 844.226 256.585 844.838 237.774C845.59 214.656 834.047 195.21 819.426 175.476C803.123 153.473 778.512 146.362 760.44 140.742C756.744 139.593 753.026 140.049 750.399 140.687C747.772 141.324 746.211 142.738 745.032 145.511C736.633 165.268 742.957 190.655 745.389 196.212C746.506 198.762 748.491 200.203 750.564 201.229C754.765 203.308 759.915 202.457 765.31 199.744C779.463 192.629 784.454 173.84 788.428 160.415C790.743 152.595 789.4 145.149 788.622 140.509C787.033 131.043 774.675 123.025 760.019 115.337C748.524 109.307 728.479 109.108 709.605 109.294C702.401 109.366 700.134 111.701 698.786 114.723C693.115 127.437 698.516 137.912 703.934 148.154C709.96 159.547 720.302 166.486 728.45 171.011C733.852 174.012 741.07 174.096 747.032 173.217C752.64 172.39 754.027 163.871 754.765 156.767C756.049 144.41 749.938 135.645 742.672 125.187C734.651 113.642 718.278 104.084 697.932 93.8093C687.631 88.6077 674.919 87.4446 658.169 85.9735C634.045 83.8547 612.929 85.5548 599.351 87.6902C564.587 93.1579 532.337 118.853 522.165 130.825C516.751 137.198 517.873 146.917 519.23 154.042C521.421 165.548 534.518 173.373 547.193 181.434C559.69 189.384 583.16 189.807 600.95 189.041C614.175 188.472 623.759 173.659 631.597 161.81C640.492 148.365 640.029 124.741 634.218 107.671C627.872 89.0334 590.686 79.3258 555.364 69.964C513.672 58.9136 485.269 63.193 477.568 64.588C467.77 66.3629 461.443 72.1505 458.289 75.2508C452.534 80.9075 450.852 93.2948 450.921 110.64C450.968 122.653 460.469 132.019 468.421 139.71C476.155 147.192 494.407 147.384 509.359 145.775C522.441 144.367 531.835 130.824 543.961 114.376C551.652 103.942 551.993 92.6685 551.959 77.3397C551.923 60.923 532.193 51.7275 516.113 43.5699C507.796 39.3503 479.229 37.855 441.383 36.0247C413.157 34.6597 395.763 42.2051 380.775 49.5266C368.311 55.6155 361.971 66.0359 357.506 77.0504C348.346 99.6452 356.905 126.098 361.114 133.555C363.997 138.664 370.626 141.131 376.844 142.514C382.577 143.79 387.897 142.03 392.397 139.285C397.119 136.405 399.92 131.083 402.184 125.771C404.616 120.067 403.884 114.359 402.703 110.209C399.859 100.212 384.276 93.6926 367.133 85.8592C357.308 81.3695 342.055 79.0196 318.237 76.5373C284.891 73.062 262.51 75.5007 257.292 76.9383C251.384 78.5659 247.703 83.1119 245.147 86.158C237.615 95.1331 238.141 126.782 239.978 144.992C241.221 157.324 252.398 165.381 261.503 171.36C273.164 179.018 292.022 174.465 302.358 169.754C313.673 164.597 317.538 149.458 321.868 130.005C332.204 83.5773 314.508 60.7635 304.458 47.6571C294.763 35.0131 279.171 30.7297 262.852 27.5413C247.513 24.5445 235.185 27.1932 230.229 28.8523C219.982 32.2832 208.834 46.9793 191.397 75.7894C181.972 91.3615 177.439 115.552 173.422 140.713C170.894 156.549 171.843 164.764 173.203 169.367C174.755 174.618 182.908 176.406 190.695 177.347C197.624 178.185 203.491 176.992 208.082 175.047C210.297 174.108 211.862 172.401 212.997 170.615C215.237 167.092 215.188 160.859 214.152 153.249C212.203 138.937 196.021 129.08 183.264 121.315C172.418 114.712 145.176 115.651 127.824 116.831C112.695 117.86 107.434 130.235 98.8004 148.482C95.6672 155.104 93.2007 163.94 90.4207 187.155C87.6408 210.369 85.0976 247.9 84.0753 269.939C82.3483 307.173 92.4438 322.078 99.6163 330.752C104.956 337.21 114.673 335.775 122.545 334.666C131.383 333.421 140.298 319.387 147.519 308.751C152.888 300.842 154.567 271.556 154.59 249.007C154.603 235.454 141.795 224.505 130.596 216.063C119.758 207.894 105.951 207.715 87.8373 207.402C73.9729 207.162 63.3009 223.701 55.5502 239.335C52.7796 244.924 50.9467 253.004 48.797 275.096C46.6472 297.187 44.8292 333.302 44.1475 356.051C43.2178 387.075 45.7868 401.501 50.056 415.248C60.4109 448.592 76.5681 460.277 87.575 467.627C92.2451 470.746 102.071 470.56 113.265 470.3C120.657 470.129 124.817 465.188 127.887 460.884C134.325 451.854 133.019 435.19 132.229 424.746C131.904 420.449 128.545 415.664 124.958 410.501C121.825 405.991 116.84 404.182 112.291 403.758C110.157 403.56 108.359 404.729 107.153 406.109C104.703 408.913 104.803 413.662 105.291 418.146C106.267 427.124 120.66 433.438 140.3 441.22C148.069 444.298 160.216 446.163 182.438 448.242C204.66 450.321 236.879 451.698 258.153 452.076C279.427 452.453 288.779 451.789 303.713 448.939C339.111 442.185 369.483 431.097 385.879 421.884C397.094 415.582 400.15 407.637 401.648 402.499C403.679 395.53 400.392 389.329 396.671 385.138C384.945 371.931 365.758 366.298 352.763 362.871C346.097 361.114 339.996 362.571 336.258 364.136C325.797 368.517 328.667 390.505 331.219 404.217C333.5 416.471 346.402 427.556 360.183 439.22C377.441 453.828 395.181 461.939 407.238 466.681C419.32 471.433 439.49 473.23 463.356 474.309C495.375 475.755 522.128 456.043 545.637 436.292C568.72 416.899 574.789 390.225 581.137 356.818C584.456 339.347 581.551 327.011 579.297 320.943C575.316 310.222 560.868 301.609 543.454 291.66C525.05 281.145 486.532 281.602 455.256 283.773C428.833 285.607 405.505 314.552 394.462 330.664C388.467 339.41 387.524 351.192 386.176 361.24C383.417 381.795 408.493 404.859 428.937 417.109C443.706 425.959 474.985 424.11 500.538 418.086C512.396 415.291 526.833 396.348 548.247 371.516C559.539 358.423 569.368 342.413 578.408 325.979C596.299 293.457 604.867 267.063 609.588 248.096C619.643 207.698 614.94 190.028 609.624 176.085C605.112 164.252 590.812 160.875 577.968 158.909C573.46 158.219 568.497 161.435 563.389 165.728C555.388 172.453 553.264 197.812 552.371 230.936C551.715 255.239 571.836 275.597 598.41 298.922C615.694 314.093 643.249 315.013 654.187 314.48C659.717 314.211 662.575 308.178 664.129 303.695C669.719 287.566 664.396 261.963 654.645 243.957C643.177 222.781 619.961 212.317 586.407 201.83C568.847 196.341 555.566 199.586 548.974 200.751C542.888 201.826 538.803 206.303 535.536 210.56C527.018 221.659 527.316 241.196 529.657 261.51C532.536 286.507 558.394 309.941 585.274 334.917C599.247 347.9 617.228 356.243 641.452 365.807C656.845 371.884 679.919 376.596 703.431 380.037C726.944 383.479 750.551 384.522 767.073 383.915C792.467 382.981 811.441 374.057 830.933 364.538C849.152 355.642 862.072 345.121 872.214 335.836C896.949 313.191 906.368 275.756 905.815 253.058C905.568 242.916 896.982 234.912 888.62 228.041C879.539 220.579 866.632 216.265 847.875 211.762C819.005 204.831 783.56 205.307 754.601 206.205C725.248 207.116 701.228 224.9 677.618 244.598C662.164 257.491 654.829 276.039 648.089 291.533C644.249 300.362 641.233 311.836 638.412 336.836C635.592 361.835 633.487 400.187 632.767 422.416C631.59 458.725 644.546 477.463 653.95 487.632C660.597 494.819 676.453 494.338 694.356 494.155C702.277 494.074 706.974 488.695 709.63 484.244C717.616 470.862 713.442 449.339 708.241 432.211C701.761 410.874 682.366 391.763 661.378 371.353C641.545 352.066 611.789 344.15 587.918 339.781C576.153 337.628 565.624 340.743 559.138 343.424C549.919 347.235 546.643 358.71 544.209 375.376C537.912 418.492 551.409 434.092 560.259 446.385C567.566 456.535 580.248 459.181 606.339 460.012C625.651 460.627 643.29 440.354 655.902 426.556C668.196 413.107 673.129 393.636 677.593 373.072C680.796 358.312 678.201 344.698 674.543 335.302C665.932 313.184 636.206 299.658 610.289 289.419C603.22 286.626 594.656 285.322 576.091 283.584C529.08 279.183 493.757 279.879 482.722 282.4C462.018 287.129 448.151 306.762 441.086 321.349C437.178 329.418 437.283 345.513 438.086 367.524C438.942 391.006 451.162 408.871 461.124 421.733C471.802 435.519 486.906 446.583 502.475 456.904C518.158 467.301 536.603 473.437 554.817 478.757C572.634 483.96 590.482 484.534 606.87 484.65C622.939 484.764 645.646 473.485 671.096 456.792C689.963 444.418 700.13 428.308 709.98 414.17C719.465 400.556 728.397 379.562 738.248 350.006C749.564 316.057 749.165 282.012 748.808 258C748.352 227.374 730.873 203.421 715.465 184.341C694.556 158.448 671.252 154.922 649.796 150.85C630.922 147.267 616.142 151.971 611.41 156.241C607.149 160.087 607.768 166.167 608.598 172.439C611.399 193.605 633.272 211.623 650.677 224.245C665.045 234.664 695.651 236.718 716.302 237.9C731.037 238.743 740.921 227.552 750.56 216.813C755.914 210.848 756.518 202.73 756.545 196.51C756.586 186.956 739.578 170.023 703.849 144.52C687.606 132.925 669.75 133.825 659.718 134.373C655.411 134.609 652.958 136.968 651.268 139.884C643.028 154.106 650.853 179.147 657.858 195.514C663.844 209.501 683.96 217.951 708.323 222.717C724.159 225.815 738.591 215.443 750.96 205.648C763.235 195.929 768.51 181.568 773.169 168.866C779.152 152.56 775.561 130.986 769.114 118.88C757.701 97.4481 734.93 84.1932 719.553 74.0466C708.297 66.619 686.324 65.7263 672.774 69.9359C660.535 73.7382 663.542 103.924 665.293 133.482C666.284 150.212 678.786 160.295 687.811 167.882C696.996 175.605 723.648 173.944 745.408 169.929C770.503 165.298 777.064 148.62 786.235 134.797C795.541 120.771 789.436 104.439 781.591 88.787C769.781 65.225 754.019 56.0272 742.086 48.1371C731.79 41.3299 714.364 42.5542 700.446 43.6718C688.23 44.6527 678.461 55.0412 657.833 76.5892C638.059 97.2458 628.78 128.391 621.359 162.211C610.68 210.887 614.711 245.985 616.439 255.727C620.063 276.151 632.835 290.949 644.506 301.375C655.879 311.535 696.24 311.656 721.081 309.981C726.219 309.634 729.074 304.07 731.22 299.128C733.376 294.164 731.971 289.139 730.686 285.273C727.25 274.931 712.945 262.997 696.393 251.562C677.479 238.496 633.91 237.817 614.567 240.073C604.823 241.21 603.255 253.884 600.318 269.522C594.713 299.36 601.862 322.115 611.425 348.537C616.724 363.178 631.896 383.902 649.253 407.511C660.178 422.37 674.523 432.836 692.529 443.743C709.051 453.752 727.092 453.704 739.885 453.587C754.814 453.45 764.125 439.864 768.796 431.842C773.726 423.375 771.697 410.046 768.964 400.539C765.633 388.954 754.742 379.527 744.47 370.039C733.992 360.361 721.25 357.028 710.96 355.13C707.675 354.524 703.056 354.922 699.587 355.555C696.118 356.188 693.889 357.472 692.114 360.957C678.641 387.417 687.938 429.967 693.483 448.003C698.592 464.617 712.63 476.859 728.854 486.976C734.065 490.225 740.429 489.305 746.694 488.589C759.518 487.122 772.57 460.409 779.241 447.582C784.951 436.603 783.812 416.614 780.213 403.938C775.691 388.016 752.908 379.034 721.909 366.25C702.094 358.079 681.752 356.461 648.318 355.202C623.263 354.258 581.72 355.295 553.648 356.791C525.576 358.286 512.218 360.874 500.245 363.969C488.273 367.065 478.09 370.591 459.679 378.902C441.267 387.214 414.936 400.204 395.363 411.666C362.632 430.833 349.463 445.038 345.971 449.977C342.916 454.296 342.277 459.975 343.336 465.648C345.755 478.617 370.372 483.161 383.707 486.349C402.669 490.882 415.195 486.834 418.688 483.565C428.878 474.026 421.049 453.97 416.582 443.651C410.628 429.895 394.342 416.76 376.951 404.967C359.429 393.086 336.244 392.376 284.231 392.841C265.633 393.006 256.145 401.968 249.966 409.323C238.21 423.316 245.39 450.298 249.237 463.672C251.126 470.238 257.416 474.208 261.93 476.84C264.123 478.119 266.733 478.042 268.505 476.993C272.276 474.761 272.383 468.616 271.752 463.206C270.124 449.257 247.996 433.944 233.893 425.183C218.938 415.893 196.007 418.255 181.034 420.453C178.682 420.799 177.379 423.552 176.449 426.216C174.415 432.044 177.047 438.985 180.96 444.819C189.571 457.657 208.645 466.057 226.171 471.767C231.286 473.433 237.328 472.692 241.011 471.845C244.694 470.998 246.034 469.249 246.793 466.827C248.449 461.546 247.027 455.8 244.775 450.941C239.495 439.547 222.451 435.797 206.284 434.63C200.767 434.232 196.525 436.084 192.432 438.357C187.664 441.004 184.947 446.767 182.967 452.234C181.047 457.535 182.68 462.777 184.921 466.635C189.4 474.344 209.452 478.106 254.742 481.612C276.588 483.304 299.75 467.232 315.641 455.643C330.357 444.911 331.293 432.254 333.048 418.265C333.766 412.54 330.946 407.262 326.903 402.42C323.074 397.834 316.326 395.93 309.631 394.441C303.853 393.155 298.474 395.339 294.21 398.822C286.334 405.254 286.193 422.493 285.984 443.588C285.828 459.372 299.254 471.027 309.486 479.724C325.463 493.305 359.021 491.624 388.937 484.228C408.476 479.397 425.863 464.104 448.567 444.221C462.976 431.603 481.169 411.571 497.044 391.94C512.919 372.309 525.392 353.102 534.833 337.336C544.273 321.57 550.303 309.827 556.517 294.57C570.057 261.328 577.787 228.591 581.583 203.349C584.86 181.549 579.237 163.152 571.633 150.488C563.809 137.459 539.252 136.525 508.259 135.121C500.292 134.76 495.138 137.032 490.196 140.506C485.565 143.762 485.546 151.908 486.027 159.351C486.235 162.572 487.341 164.566 491.039 169.617C494.737 174.668 501.242 182.69 531.12 189.67C560.999 196.651 614.054 202.347 648.647 195.637C683.24 188.927 697.765 169.637 707.033 155.384C721.338 133.385 724.27 112.575 725.069 94.672C725.483 85.4139 722.63 81.3025 719.658 78.1681C713.401 71.5684 702.989 69.8324 667.689 69.3037C659.467 69.1805 655.951 71.9205 653.06 74.4869C642.601 83.7717 643.261 109.508 647.326 133.578C651.003 155.345 673.41 168.371 694.256 182.585C709.068 192.686 739.117 195.53 769.206 197.64C787.453 198.92 798.66 191.873 806.289 184.895C809.551 181.911 808.722 176.236 807.589 170.907C806.106 163.934 798.668 159.276 792.387 155.976C786.587 152.929 780.918 153.156 778.934 154.24C770.316 158.947 788.618 171.027 793.857 179.341C796.321 183.251 801.146 184.382 806.143 185.378C813.182 186.78 819.703 184.965 823.507 182.525C831.444 177.431 829.684 158.732 830.836 111.881C831.362 90.4757 839.719 80.1601 846.967 68.9519C852.374 60.5924 860.341 51.625 869.094 43.3869C875.633 37.2332 885.755 21.89 912 3.5" stroke="white" stroke-width="4" stroke-linecap="round"/>
</svg>
