<svg width="906" height="518" viewBox="0 0 906 518" fill="none" xmlns="http://www.w3.org/2000/svg">
<path d="M2 2C5.21344 2.25931 15.2471 5.8975 23.1541 12.4781C38.5441 25.2862 43.7586 38.9305 48.6045 47.393C51.0304 51.6294 53.432 56.2558 56.0103 60.8493C67.5089 81.3363 113.175 90.6651 123.244 91.6102C132.878 92.5143 142.364 77.5304 150.437 73.1978C156.942 69.7071 167.52 68.3657 183.002 67.1128C192.56 66.3393 205.662 66.7162 293.401 71.7057C381.139 76.6953 543.139 86.6515 634.536 93.6741C725.934 100.697 741.82 104.484 751.364 106.98C769.207 111.648 779.273 119.649 786.916 127.495C790.513 131.188 791.824 136.099 792.91 140.597C794.17 145.813 792.631 151.072 788.624 156.851C782.177 166.151 767.964 176.261 752.838 186.325C741.822 193.655 728.648 196.753 702.386 200.155C683.771 202.566 654.055 202.947 635.454 203.075C600.528 203.313 587.83 195.534 579.572 190.96C571.981 186.756 567.689 174.741 563.365 162.615C554.765 138.498 551.179 128.899 543.784 124.411C542.093 123.384 540.397 123.467 506.307 123.294C472.217 123.121 405.609 123.055 368.435 123.572C331.261 124.088 325.54 125.19 315.032 128.976C289.071 138.332 269.045 148.505 260.07 155.061C250.575 161.998 247.419 172.432 244.657 184.229C239.571 205.953 241.454 225.341 244.491 236.813C253.072 269.226 275.108 288.172 288.822 299.863C304.791 313.477 325.614 316.508 351.852 319.674C368.981 321.741 394.168 321.491 415.023 320.624C435.878 319.757 451.718 317.449 467.657 313.616C499.54 305.949 519.296 296.844 527.306 292.283C542.219 283.791 552.878 270.321 562.561 254.229C567.323 246.315 568.762 236.29 570.809 222.073C574.022 199.767 573.132 179.293 571.789 166.196C570.49 153.536 564.579 141.927 558.28 130.872C551.971 119.799 542.149 110.698 529.266 100.87C511.902 87.6236 488.783 79.4411 463.478 73.5042C432.735 66.2912 410.474 67.6886 401.406 68.5107C390.639 69.4867 379.169 75.2326 364.228 84.4915C354.842 90.3077 342.978 100.205 330.722 112.423C318.466 124.641 306.479 139.343 296.821 152.518C279.376 176.313 269.177 197.54 262.968 213.328C258.901 223.67 259.135 234.598 260.275 245.95C261.923 262.366 286.782 273.397 316.875 288.178C328.139 293.71 345.212 298.407 363.204 302.715C381.196 307.023 400.027 309.805 419.339 311.504C438.652 313.202 457.875 313.733 472.224 313.467C495.501 313.035 513.033 308.092 529.634 301.649C546.076 295.268 560.21 285.096 573.057 275.159C585.402 265.612 594.39 253.781 601.792 242.639C615.23 222.41 612.956 197.655 607.079 175.467C599.988 148.693 571.356 137.849 552.933 127.082C541.073 120.149 522.87 112.481 507.205 106.2C491.541 99.9193 478.648 95.8327 459.665 91.7625C440.683 87.6924 416.003 83.7625 391.517 81.3219C367.031 78.8814 343.488 78.0492 328.009 77.8496C305.829 77.5637 292.023 80.5988 278.694 85.2286C253.708 93.9079 243.321 116.645 233.011 140.2C225.971 156.284 218.996 182.266 213.844 207.136C208.692 232.005 206.529 255.361 205.645 269.903C204.457 289.432 207.072 298.852 210.175 306.819C213.029 314.144 219.148 319.764 225.411 324.97C231.263 329.833 242.834 333.165 260.141 336.035C279.55 339.254 305.199 334.193 326.959 328.256C334.156 326.293 332.703 323.845 330.274 321.386C316.216 307.158 305.308 292.615 286.467 278.809C277.459 272.209 262.473 263.968 250.186 254.787C227.285 237.675 212.005 219.522 201.43 207.999C196.251 202.356 178.576 191.454 152.565 175.758C134.786 165.029 126.855 156.824 122.046 146.816C115.631 133.467 112.519 124.798 112.463 105.995C112.452 102.064 114.277 100.348 115.82 99.043C118.843 96.4849 137.561 92.9074 169.598 88.0807C198.848 83.6737 216.888 87.3448 223.394 89.0202C241.77 93.7529 260.872 109.943 270.367 120.682C276.69 127.834 275.786 139.651 272.777 152.772C267.508 175.742 249.215 183.458 218.542 201.432C192.297 216.81 142.561 241.694 113.653 256.229C69.1566 278.601 61.9913 282.922 57.0099 290.978C54.9614 294.291 55.8722 298.581 57.2619 302.978C61.8448 317.478 85.3403 324.225 122.531 330.621C138.744 333.409 163.034 332.1 182.124 330.951C214.742 328.99 237.137 321.497 255.175 314.837C295.3 300.021 315.496 280.436 322.151 279.235C330.553 277.72 339.859 296.517 353.854 340.256C365.653 377.131 356.531 389.132 351.868 397.267C350.119 400.318 347.183 402.145 340.231 406.815C324.663 417.272 301.907 430.876 281.027 443.589C267.111 452.062 247.176 454.449 223.844 456.635C207.802 458.138 199.059 456.12 194.574 454.419C186.09 451.2 170 427.079 154.814 409.733C146.827 400.61 131.605 400.903 110.589 400.762C101.205 400.699 83.5666 425.173 72.6234 440.955C70.6123 443.855 70.8579 449.899 71.4341 457.465C71.9365 464.062 78.8178 468.503 85.2564 471.772C89.7172 474.037 107.246 476.111 144.122 478.637C165.46 480.098 192.271 479.132 215.838 477.16C239.404 475.188 258.951 471.525 288.184 462.919C317.417 454.314 355.745 440.876 385.842 432.877C415.938 424.878 436.643 422.725 462.658 421.892C488.674 421.06 519.373 421.613 545.429 423.969C571.486 426.325 591.969 430.468 607.073 434.288C622.177 438.107 631.281 441.478 642.308 447.169C666.59 459.7 687.299 476.722 700.447 488.988C705.3 493.515 706.717 494.319 708.3 494.877C709.883 495.435 711.656 495.652 713.594 494.71C728.401 487.515 730.494 451.745 730.539 434.204C730.579 418.061 719.331 409.39 713.241 402.969C712.055 401.719 710.466 400.95 693.52 393.869C676.574 386.788 644.154 373.598 624.621 366.267C599.753 356.934 584.013 356.574 568.122 356.506C546.29 356.412 523.172 371.072 502.112 389.083C484.924 403.783 457.17 432.721 439.771 449.243C408.776 478.678 394.293 482.239 383.728 484.274C377.71 485.434 372.935 484.14 369.664 482.232C360.892 477.115 356.47 462.228 351.804 430.733C350.075 419.065 351.535 403.414 358.198 376.766C364.86 350.118 377.912 312.83 389.564 284.482C401.216 256.133 411.071 237.855 421.987 220.849C455.75 168.247 462.176 161.978 463.048 158.515C466.998 142.831 422.79 129.764 412.207 127.105C404.255 125.107 390.294 132.819 381.969 138.524C380.527 139.512 380.519 141.936 381.672 145.059C384.574 152.927 395.401 163.801 409.535 177.39C416.64 184.222 424.457 190.012 450.41 205.6C476.362 221.187 520.431 246.163 545.229 260.671C574.589 277.847 584.801 288.336 596.156 301.333C606.402 313.062 614.679 335.88 624.869 361.3C633.788 383.552 648.387 393.443 659.762 405.223C663.102 408.682 663.283 413.662 663.234 418.108C663.194 421.676 658.579 425.508 645.813 432.974C621.661 447.098 601.493 454.61 593.151 456.045C574.709 459.22 567.775 454.878 561.805 450.7C551.112 443.217 543.621 424.748 539.395 408.322C534.644 389.857 537.089 372.606 538.147 362.976C539.307 352.426 546.779 334.866 560.418 307.892C577.352 274.401 596.166 254.529 604.746 247.097C613.154 239.814 631.832 235.907 656.732 233.316C689.803 229.874 698.286 234.25 707.02 239.336C721.107 247.537 722.959 255.285 730.509 272.466C736.757 286.685 746.564 312.643 752.743 330.307C758.922 347.97 760.831 356.698 762.302 369.891C765.7 400.387 765.433 420.777 764.241 425.978C761.19 439.282 747.347 448.227 726.789 459.929C703.424 473.228 682.737 471.579 670.692 468.988C665.395 467.849 663.404 460.225 659.34 438.418C655.861 419.752 651.822 385.263 649.56 363.573C646.479 334.027 649.756 321.46 654.385 312.55C659.508 302.691 667.448 293.754 676.177 284.947C700.435 260.472 734.035 253.938 744.735 252.297C750.93 251.347 756.086 253.055 759.55 256.235C775.223 270.623 786.845 314.297 794.574 325.401C795.493 326.721 797.458 326.69 799.012 326.372C802.287 325.703 804.64 322.711 806.607 319.886C807.655 318.381 808.406 316.469 809.533 299.748C810.661 283.027 812.04 251.488 812.356 233.863C812.673 216.239 811.885 213.485 810.317 210.947C808.749 208.41 806.425 206.173 792.059 195.288C777.692 184.403 751.353 164.939 736.429 153.414C718.347 139.45 714.964 133.829 713.115 129.501C711.067 124.709 711.162 120.174 711.41 116.809C712.418 103.083 734.967 82.2593 744.916 72.1265C746.405 70.6101 746.018 68.6771 745.055 67.5544C735.348 56.232 694.616 52.8151 677.086 48.5905C648.176 41.623 629.222 56.3281 622.52 61.1985C615.25 66.4826 611.623 75.6327 603.462 81.1213C589.885 90.2521 561.451 86.8539 543.998 83.7487C520.388 79.5482 504.228 59.886 486.83 49.0895C451.217 26.989 433.657 44.7819 424.701 49.3506C417.078 53.2388 413.102 61.6741 410.562 64.4869C409.311 65.8717 407.153 66.0876 405.423 65.8617C393.196 64.2652 377.155 32.7673 366.934 23.4431C361.369 18.367 340.754 24.1648 314.396 26.9154C291.728 29.281 278.402 30.285 273.533 31.9252C265.647 34.5814 256.104 54.544 249.752 67.7097C248.943 69.3882 248.459 71.0715 248.354 70.7505C248.249 70.4294 248.663 68.1077 248.352 66.1167C247.76 62.3318 243.215 59.4862 237.077 57.0567C229.902 54.2165 209.419 54.9472 182.504 55.4511C155.648 55.954 143.341 63.5455 136.439 68.5504C128.782 74.1027 118.486 98.4283 111.772 118.956C108.847 127.902 111.703 135.757 112.178 139.58C113.945 153.778 66.2729 145.529 45.377 153.154C34.4335 157.148 30.7583 163.69 19.2202 187.776C12.8099 201.158 13.8782 232.68 17.2552 254.785C19.7423 271.064 33.7237 289.976 45.1787 307.544C56.7421 325.279 61.6799 333.929 63.3037 343.669C65.1263 354.602 37.2234 387.296 23.8808 406.752C22.5187 408.738 23.2876 412.265 23.7552 414.623C25.6258 424.058 52.0729 437.386 83.656 454.221C109.67 468.087 133.471 469.727 150.706 471.093C164.584 472.193 174.051 470.064 190.835 460.843C204.787 453.178 228.369 437.02 240.432 430.764C252.494 424.508 251.964 428.022 251.694 434.188C250.544 460.514 256.204 478.247 263.798 494.545C267.476 502.44 277.685 507.901 286.206 512.242C289.693 514.018 305.759 515.08 335.563 515.44C351.438 515.632 368.798 512.697 381.118 510.465C393.438 508.233 400.182 505.99 415.901 499.005C431.62 492.02 456.11 480.361 470.492 473.913C488.157 465.995 512.696 465.12 545.155 464.403C567.353 463.912 585.652 473.766 596.682 481.177C604.129 486.18 609.54 491.643 613.645 493.514C630.188 501.053 666.789 494.751 686.919 489.652C707.31 484.487 728.932 471.769 745.217 462.375C756.957 455.603 759.934 447.383 764.986 431.91C772.322 409.445 769.201 377.599 766.738 364.027C766.085 360.432 789.694 371.39 818.509 387.811C831.372 395.141 834.712 397.918 837.891 398.339C839.48 398.55 841.075 397.967 842.143 397.009C846.967 392.68 843.819 381.33 831.298 331.357C827.847 317.585 816.656 300.919 802.029 279.125C792.266 264.579 778.11 259.7 772.405 253.524C765.873 246.454 767.056 238.677 767.752 235.224C772.767 210.327 826.573 197.847 828.819 194.956C833.482 188.955 832.31 176.592 832.521 166.622C832.673 159.408 829.357 148.295 831.117 138.761C834.963 117.926 842.345 82.5386 844.676 75.1375C846.554 69.1718 857.426 68.0714 863.883 59.2974C866.392 55.8878 866.536 48.0551 867.478 39.4392C868.515 29.9573 888.173 36.6697 891.195 37.1065C892.466 37.2903 893.008 35.0627 892.674 33.2929C891.941 29.4076 881.324 27.1405 879.168 25.0078C878.222 24.0718 886.89 20.7593 886.89 20.7593C886.89 20.7593 885.069 15.5787 891.195 13.5078C894.075 12.0966 903.668 2.50781 903.668 2.50781" stroke="white" stroke-width="4" stroke-linecap="round"/>
</svg>
